<mxfile host="app.diagrams.net" modified="2022-01-12T06:37:23.976Z" agent="5.0 (Windows NT 10.0; Win64; x64) AppleWebKit/537.36 (KHTML, like Gecko) Chrome/97.0.4692.71 Safari/537.36" etag="tJpwX6zMJvv96hfcFZmY" version="16.2.4" type="github" pages="5">
  <diagram id="eHcuJjZNjuX4tk5rKyVP" name="第 1 页">
    <mxGraphModel dx="2324" dy="2222" grid="1" gridSize="10" guides="1" tooltips="1" connect="1" arrows="1" fold="1" page="1" pageScale="1" pageWidth="827" pageHeight="1169" math="0" shadow="0">
      <root>
        <mxCell id="0" />
        <mxCell id="1" parent="0" />
        <mxCell id="Eqw1G6QDZ1J7UmovNux2-1" value="案件表" style="shape=table;startSize=30;container=1;collapsible=1;childLayout=tableLayout;fixedRows=1;rowLines=0;fontStyle=1;align=center;resizeLast=1;fillColor=#CFC86B;strokeColor=#b85450;" vertex="1" parent="1">
          <mxGeometry x="550" y="190" width="180" height="810" as="geometry" />
        </mxCell>
        <mxCell id="Eqw1G6QDZ1J7UmovNux2-2" value="" style="shape=partialRectangle;collapsible=0;dropTarget=0;pointerEvents=0;fillColor=#CFC86B;top=0;left=0;bottom=1;right=0;points=[[0,0.5],[1,0.5]];portConstraint=eastwest;" vertex="1" parent="Eqw1G6QDZ1J7UmovNux2-1">
          <mxGeometry y="30" width="180" height="30" as="geometry" />
        </mxCell>
        <mxCell id="Eqw1G6QDZ1J7UmovNux2-3" value="PK" style="shape=partialRectangle;connectable=0;fillColor=#CFC86B;top=0;left=0;bottom=0;right=0;fontStyle=1;overflow=hidden;strokeColor=#b85450;" vertex="1" parent="Eqw1G6QDZ1J7UmovNux2-2">
          <mxGeometry width="30" height="30" as="geometry">
            <mxRectangle width="30" height="30" as="alternateBounds" />
          </mxGeometry>
        </mxCell>
        <mxCell id="Eqw1G6QDZ1J7UmovNux2-4" value="ID" style="shape=partialRectangle;connectable=0;fillColor=#CFC86B;top=0;left=0;bottom=0;right=0;align=left;spacingLeft=6;fontStyle=5;overflow=hidden;strokeColor=#b85450;" vertex="1" parent="Eqw1G6QDZ1J7UmovNux2-2">
          <mxGeometry x="30" width="150" height="30" as="geometry">
            <mxRectangle width="150" height="30" as="alternateBounds" />
          </mxGeometry>
        </mxCell>
        <mxCell id="Eqw1G6QDZ1J7UmovNux2-5" value="" style="shape=partialRectangle;collapsible=0;dropTarget=0;pointerEvents=0;fillColor=#CFC86B;top=0;left=0;bottom=0;right=0;points=[[0,0.5],[1,0.5]];portConstraint=eastwest;" vertex="1" parent="Eqw1G6QDZ1J7UmovNux2-1">
          <mxGeometry y="60" width="180" height="30" as="geometry" />
        </mxCell>
        <mxCell id="Eqw1G6QDZ1J7UmovNux2-6" value="" style="shape=partialRectangle;connectable=0;fillColor=#CFC86B;top=0;left=0;bottom=0;right=0;editable=1;overflow=hidden;strokeColor=#b85450;" vertex="1" parent="Eqw1G6QDZ1J7UmovNux2-5">
          <mxGeometry width="30" height="30" as="geometry">
            <mxRectangle width="30" height="30" as="alternateBounds" />
          </mxGeometry>
        </mxCell>
        <mxCell id="Eqw1G6QDZ1J7UmovNux2-7" value="案件码" style="shape=partialRectangle;connectable=0;fillColor=#CFC86B;top=0;left=0;bottom=0;right=0;align=left;spacingLeft=6;overflow=hidden;strokeColor=#b85450;" vertex="1" parent="Eqw1G6QDZ1J7UmovNux2-5">
          <mxGeometry x="30" width="150" height="30" as="geometry">
            <mxRectangle width="150" height="30" as="alternateBounds" />
          </mxGeometry>
        </mxCell>
        <mxCell id="Eqw1G6QDZ1J7UmovNux2-8" value="" style="shape=partialRectangle;collapsible=0;dropTarget=0;pointerEvents=0;fillColor=#CFC86B;top=0;left=0;bottom=0;right=0;points=[[0,0.5],[1,0.5]];portConstraint=eastwest;" vertex="1" parent="Eqw1G6QDZ1J7UmovNux2-1">
          <mxGeometry y="90" width="180" height="30" as="geometry" />
        </mxCell>
        <mxCell id="Eqw1G6QDZ1J7UmovNux2-9" value="" style="shape=partialRectangle;connectable=0;fillColor=#CFC86B;top=0;left=0;bottom=0;right=0;editable=1;overflow=hidden;strokeColor=#b85450;" vertex="1" parent="Eqw1G6QDZ1J7UmovNux2-8">
          <mxGeometry width="30" height="30" as="geometry">
            <mxRectangle width="30" height="30" as="alternateBounds" />
          </mxGeometry>
        </mxCell>
        <mxCell id="Eqw1G6QDZ1J7UmovNux2-10" value="案件名称" style="shape=partialRectangle;connectable=0;fillColor=#CFC86B;top=0;left=0;bottom=0;right=0;align=left;spacingLeft=6;overflow=hidden;strokeColor=#b85450;" vertex="1" parent="Eqw1G6QDZ1J7UmovNux2-8">
          <mxGeometry x="30" width="150" height="30" as="geometry">
            <mxRectangle width="150" height="30" as="alternateBounds" />
          </mxGeometry>
        </mxCell>
        <mxCell id="Eqw1G6QDZ1J7UmovNux2-11" value="" style="shape=partialRectangle;collapsible=0;dropTarget=0;pointerEvents=0;fillColor=#CFC86B;top=0;left=0;bottom=0;right=0;points=[[0,0.5],[1,0.5]];portConstraint=eastwest;" vertex="1" parent="Eqw1G6QDZ1J7UmovNux2-1">
          <mxGeometry y="120" width="180" height="30" as="geometry" />
        </mxCell>
        <mxCell id="Eqw1G6QDZ1J7UmovNux2-12" value="" style="shape=partialRectangle;connectable=0;fillColor=#CFC86B;top=0;left=0;bottom=0;right=0;editable=1;overflow=hidden;strokeColor=#b85450;" vertex="1" parent="Eqw1G6QDZ1J7UmovNux2-11">
          <mxGeometry width="30" height="30" as="geometry">
            <mxRectangle width="30" height="30" as="alternateBounds" />
          </mxGeometry>
        </mxCell>
        <mxCell id="Eqw1G6QDZ1J7UmovNux2-13" value="案件类型" style="shape=partialRectangle;connectable=0;fillColor=#CFC86B;top=0;left=0;bottom=0;right=0;align=left;spacingLeft=6;overflow=hidden;strokeColor=#b85450;" vertex="1" parent="Eqw1G6QDZ1J7UmovNux2-11">
          <mxGeometry x="30" width="150" height="30" as="geometry">
            <mxRectangle width="150" height="30" as="alternateBounds" />
          </mxGeometry>
        </mxCell>
        <mxCell id="Eqw1G6QDZ1J7UmovNux2-14" value="" style="shape=partialRectangle;collapsible=0;dropTarget=0;pointerEvents=0;fillColor=#CFC86B;top=0;left=0;bottom=0;right=0;points=[[0,0.5],[1,0.5]];portConstraint=eastwest;" vertex="1" parent="Eqw1G6QDZ1J7UmovNux2-1">
          <mxGeometry y="150" width="180" height="30" as="geometry" />
        </mxCell>
        <mxCell id="Eqw1G6QDZ1J7UmovNux2-15" value="" style="shape=partialRectangle;connectable=0;fillColor=#CFC86B;top=0;left=0;bottom=0;right=0;editable=1;overflow=hidden;strokeColor=#b85450;" vertex="1" parent="Eqw1G6QDZ1J7UmovNux2-14">
          <mxGeometry width="30" height="30" as="geometry">
            <mxRectangle width="30" height="30" as="alternateBounds" />
          </mxGeometry>
        </mxCell>
        <mxCell id="Eqw1G6QDZ1J7UmovNux2-16" value="案件状态" style="shape=partialRectangle;connectable=0;fillColor=#CFC86B;top=0;left=0;bottom=0;right=0;align=left;spacingLeft=6;overflow=hidden;strokeColor=#b85450;" vertex="1" parent="Eqw1G6QDZ1J7UmovNux2-14">
          <mxGeometry x="30" width="150" height="30" as="geometry">
            <mxRectangle width="150" height="30" as="alternateBounds" />
          </mxGeometry>
        </mxCell>
        <mxCell id="Eqw1G6QDZ1J7UmovNux2-17" value="" style="shape=partialRectangle;collapsible=0;dropTarget=0;pointerEvents=0;fillColor=#CFC86B;top=0;left=0;bottom=0;right=0;points=[[0,0.5],[1,0.5]];portConstraint=eastwest;" vertex="1" parent="Eqw1G6QDZ1J7UmovNux2-1">
          <mxGeometry y="180" width="180" height="30" as="geometry" />
        </mxCell>
        <mxCell id="Eqw1G6QDZ1J7UmovNux2-18" value="" style="shape=partialRectangle;connectable=0;fillColor=#CFC86B;top=0;left=0;bottom=0;right=0;editable=1;overflow=hidden;strokeColor=#b85450;" vertex="1" parent="Eqw1G6QDZ1J7UmovNux2-17">
          <mxGeometry width="30" height="30" as="geometry">
            <mxRectangle width="30" height="30" as="alternateBounds" />
          </mxGeometry>
        </mxCell>
        <mxCell id="Eqw1G6QDZ1J7UmovNux2-19" value="车型" style="shape=partialRectangle;connectable=0;fillColor=#CFC86B;top=0;left=0;bottom=0;right=0;align=left;spacingLeft=6;overflow=hidden;strokeColor=#b85450;" vertex="1" parent="Eqw1G6QDZ1J7UmovNux2-17">
          <mxGeometry x="30" width="150" height="30" as="geometry">
            <mxRectangle width="150" height="30" as="alternateBounds" />
          </mxGeometry>
        </mxCell>
        <mxCell id="Eqw1G6QDZ1J7UmovNux2-20" value="" style="shape=partialRectangle;collapsible=0;dropTarget=0;pointerEvents=0;fillColor=#CFC86B;top=0;left=0;bottom=0;right=0;points=[[0,0.5],[1,0.5]];portConstraint=eastwest;" vertex="1" parent="Eqw1G6QDZ1J7UmovNux2-1">
          <mxGeometry y="210" width="180" height="30" as="geometry" />
        </mxCell>
        <mxCell id="Eqw1G6QDZ1J7UmovNux2-21" value="" style="shape=partialRectangle;connectable=0;fillColor=#CFC86B;top=0;left=0;bottom=0;right=0;editable=1;overflow=hidden;strokeColor=#b85450;" vertex="1" parent="Eqw1G6QDZ1J7UmovNux2-20">
          <mxGeometry width="30" height="30" as="geometry">
            <mxRectangle width="30" height="30" as="alternateBounds" />
          </mxGeometry>
        </mxCell>
        <mxCell id="Eqw1G6QDZ1J7UmovNux2-22" value="机能" style="shape=partialRectangle;connectable=0;fillColor=#CFC86B;top=0;left=0;bottom=0;right=0;align=left;spacingLeft=6;overflow=hidden;strokeColor=#b85450;" vertex="1" parent="Eqw1G6QDZ1J7UmovNux2-20">
          <mxGeometry x="30" width="150" height="30" as="geometry">
            <mxRectangle width="150" height="30" as="alternateBounds" />
          </mxGeometry>
        </mxCell>
        <mxCell id="Eqw1G6QDZ1J7UmovNux2-23" value="" style="shape=partialRectangle;collapsible=0;dropTarget=0;pointerEvents=0;fillColor=#CFC86B;top=0;left=0;bottom=0;right=0;points=[[0,0.5],[1,0.5]];portConstraint=eastwest;" vertex="1" parent="Eqw1G6QDZ1J7UmovNux2-1">
          <mxGeometry y="240" width="180" height="30" as="geometry" />
        </mxCell>
        <mxCell id="Eqw1G6QDZ1J7UmovNux2-24" value="" style="shape=partialRectangle;connectable=0;fillColor=#CFC86B;top=0;left=0;bottom=0;right=0;editable=1;overflow=hidden;strokeColor=#b85450;" vertex="1" parent="Eqw1G6QDZ1J7UmovNux2-23">
          <mxGeometry width="30" height="30" as="geometry">
            <mxRectangle width="30" height="30" as="alternateBounds" />
          </mxGeometry>
        </mxCell>
        <mxCell id="Eqw1G6QDZ1J7UmovNux2-25" value="区域" style="shape=partialRectangle;connectable=0;fillColor=#CFC86B;top=0;left=0;bottom=0;right=0;align=left;spacingLeft=6;overflow=hidden;strokeColor=#b85450;" vertex="1" parent="Eqw1G6QDZ1J7UmovNux2-23">
          <mxGeometry x="30" width="150" height="30" as="geometry">
            <mxRectangle width="150" height="30" as="alternateBounds" />
          </mxGeometry>
        </mxCell>
        <mxCell id="Eqw1G6QDZ1J7UmovNux2-26" value="" style="shape=partialRectangle;collapsible=0;dropTarget=0;pointerEvents=0;fillColor=#CFC86B;top=0;left=0;bottom=0;right=0;points=[[0,0.5],[1,0.5]];portConstraint=eastwest;" vertex="1" parent="Eqw1G6QDZ1J7UmovNux2-1">
          <mxGeometry y="270" width="180" height="30" as="geometry" />
        </mxCell>
        <mxCell id="Eqw1G6QDZ1J7UmovNux2-27" value="" style="shape=partialRectangle;connectable=0;fillColor=#CFC86B;top=0;left=0;bottom=0;right=0;editable=1;overflow=hidden;strokeColor=#b85450;" vertex="1" parent="Eqw1G6QDZ1J7UmovNux2-26">
          <mxGeometry width="30" height="30" as="geometry">
            <mxRectangle width="30" height="30" as="alternateBounds" />
          </mxGeometry>
        </mxCell>
        <mxCell id="Eqw1G6QDZ1J7UmovNux2-28" value="FTE" style="shape=partialRectangle;connectable=0;fillColor=#CFC86B;top=0;left=0;bottom=0;right=0;align=left;spacingLeft=6;overflow=hidden;strokeColor=#b85450;" vertex="1" parent="Eqw1G6QDZ1J7UmovNux2-26">
          <mxGeometry x="30" width="150" height="30" as="geometry">
            <mxRectangle width="150" height="30" as="alternateBounds" />
          </mxGeometry>
        </mxCell>
        <mxCell id="Eqw1G6QDZ1J7UmovNux2-29" value="" style="shape=partialRectangle;collapsible=0;dropTarget=0;pointerEvents=0;fillColor=#CFC86B;top=0;left=0;bottom=0;right=0;points=[[0,0.5],[1,0.5]];portConstraint=eastwest;" vertex="1" parent="Eqw1G6QDZ1J7UmovNux2-1">
          <mxGeometry y="300" width="180" height="30" as="geometry" />
        </mxCell>
        <mxCell id="Eqw1G6QDZ1J7UmovNux2-30" value="" style="shape=partialRectangle;connectable=0;fillColor=#CFC86B;top=0;left=0;bottom=0;right=0;editable=1;overflow=hidden;strokeColor=#b85450;" vertex="1" parent="Eqw1G6QDZ1J7UmovNux2-29">
          <mxGeometry width="30" height="30" as="geometry">
            <mxRectangle width="30" height="30" as="alternateBounds" />
          </mxGeometry>
        </mxCell>
        <mxCell id="Eqw1G6QDZ1J7UmovNux2-31" value="现任目的" style="shape=partialRectangle;connectable=0;fillColor=#CFC86B;top=0;left=0;bottom=0;right=0;align=left;spacingLeft=6;overflow=hidden;strokeColor=#b85450;" vertex="1" parent="Eqw1G6QDZ1J7UmovNux2-29">
          <mxGeometry x="30" width="150" height="30" as="geometry">
            <mxRectangle width="150" height="30" as="alternateBounds" />
          </mxGeometry>
        </mxCell>
        <mxCell id="Eqw1G6QDZ1J7UmovNux2-32" value="" style="shape=partialRectangle;collapsible=0;dropTarget=0;pointerEvents=0;fillColor=#CFC86B;top=0;left=0;bottom=0;right=0;points=[[0,0.5],[1,0.5]];portConstraint=eastwest;" vertex="1" parent="Eqw1G6QDZ1J7UmovNux2-1">
          <mxGeometry y="330" width="180" height="30" as="geometry" />
        </mxCell>
        <mxCell id="Eqw1G6QDZ1J7UmovNux2-33" value="" style="shape=partialRectangle;connectable=0;fillColor=#CFC86B;top=0;left=0;bottom=0;right=0;editable=1;overflow=hidden;strokeColor=#b85450;" vertex="1" parent="Eqw1G6QDZ1J7UmovNux2-32">
          <mxGeometry width="30" height="30" as="geometry">
            <mxRectangle width="30" height="30" as="alternateBounds" />
          </mxGeometry>
        </mxCell>
        <mxCell id="Eqw1G6QDZ1J7UmovNux2-34" value="车门是否维修" style="shape=partialRectangle;connectable=0;fillColor=#CFC86B;top=0;left=0;bottom=0;right=0;align=left;spacingLeft=6;overflow=hidden;strokeColor=#b85450;" vertex="1" parent="Eqw1G6QDZ1J7UmovNux2-32">
          <mxGeometry x="30" width="150" height="30" as="geometry">
            <mxRectangle width="150" height="30" as="alternateBounds" />
          </mxGeometry>
        </mxCell>
        <mxCell id="Eqw1G6QDZ1J7UmovNux2-35" value="" style="shape=partialRectangle;collapsible=0;dropTarget=0;pointerEvents=0;fillColor=#CFC86B;top=0;left=0;bottom=0;right=0;points=[[0,0.5],[1,0.5]];portConstraint=eastwest;" vertex="1" parent="Eqw1G6QDZ1J7UmovNux2-1">
          <mxGeometry y="360" width="180" height="30" as="geometry" />
        </mxCell>
        <mxCell id="Eqw1G6QDZ1J7UmovNux2-36" value="" style="shape=partialRectangle;connectable=0;fillColor=#CFC86B;top=0;left=0;bottom=0;right=0;editable=1;overflow=hidden;strokeColor=#b85450;" vertex="1" parent="Eqw1G6QDZ1J7UmovNux2-35">
          <mxGeometry width="30" height="30" as="geometry">
            <mxRectangle width="30" height="30" as="alternateBounds" />
          </mxGeometry>
        </mxCell>
        <mxCell id="Eqw1G6QDZ1J7UmovNux2-37" value="故障图片" style="shape=partialRectangle;connectable=0;fillColor=#CFC86B;top=0;left=0;bottom=0;right=0;align=left;spacingLeft=6;overflow=hidden;strokeColor=#b85450;" vertex="1" parent="Eqw1G6QDZ1J7UmovNux2-35">
          <mxGeometry x="30" width="150" height="30" as="geometry">
            <mxRectangle width="150" height="30" as="alternateBounds" />
          </mxGeometry>
        </mxCell>
        <mxCell id="Eqw1G6QDZ1J7UmovNux2-38" value="" style="shape=partialRectangle;collapsible=0;dropTarget=0;pointerEvents=0;fillColor=#CFC86B;top=0;left=0;bottom=0;right=0;points=[[0,0.5],[1,0.5]];portConstraint=eastwest;" vertex="1" parent="Eqw1G6QDZ1J7UmovNux2-1">
          <mxGeometry y="390" width="180" height="30" as="geometry" />
        </mxCell>
        <mxCell id="Eqw1G6QDZ1J7UmovNux2-39" value="" style="shape=partialRectangle;connectable=0;fillColor=#CFC86B;top=0;left=0;bottom=0;right=0;editable=1;overflow=hidden;strokeColor=#b85450;" vertex="1" parent="Eqw1G6QDZ1J7UmovNux2-38">
          <mxGeometry width="30" height="30" as="geometry">
            <mxRectangle width="30" height="30" as="alternateBounds" />
          </mxGeometry>
        </mxCell>
        <mxCell id="Eqw1G6QDZ1J7UmovNux2-40" value="CF是否特别要求" style="shape=partialRectangle;connectable=0;fillColor=#CFC86B;top=0;left=0;bottom=0;right=0;align=left;spacingLeft=6;overflow=hidden;strokeColor=#b85450;" vertex="1" parent="Eqw1G6QDZ1J7UmovNux2-38">
          <mxGeometry x="30" width="150" height="30" as="geometry">
            <mxRectangle width="150" height="30" as="alternateBounds" />
          </mxGeometry>
        </mxCell>
        <mxCell id="Eqw1G6QDZ1J7UmovNux2-41" value="" style="shape=partialRectangle;collapsible=0;dropTarget=0;pointerEvents=0;fillColor=#CFC86B;top=0;left=0;bottom=0;right=0;points=[[0,0.5],[1,0.5]];portConstraint=eastwest;" vertex="1" parent="Eqw1G6QDZ1J7UmovNux2-1">
          <mxGeometry y="420" width="180" height="30" as="geometry" />
        </mxCell>
        <mxCell id="Eqw1G6QDZ1J7UmovNux2-42" value="" style="shape=partialRectangle;connectable=0;fillColor=#CFC86B;top=0;left=0;bottom=0;right=0;editable=1;overflow=hidden;strokeColor=#b85450;" vertex="1" parent="Eqw1G6QDZ1J7UmovNux2-41">
          <mxGeometry width="30" height="30" as="geometry">
            <mxRectangle width="30" height="30" as="alternateBounds" />
          </mxGeometry>
        </mxCell>
        <mxCell id="Eqw1G6QDZ1J7UmovNux2-43" value="CF要求内容" style="shape=partialRectangle;connectable=0;fillColor=#CFC86B;top=0;left=0;bottom=0;right=0;align=left;spacingLeft=6;overflow=hidden;strokeColor=#b85450;" vertex="1" parent="Eqw1G6QDZ1J7UmovNux2-41">
          <mxGeometry x="30" width="150" height="30" as="geometry">
            <mxRectangle width="150" height="30" as="alternateBounds" />
          </mxGeometry>
        </mxCell>
        <mxCell id="Eqw1G6QDZ1J7UmovNux2-44" value="" style="shape=partialRectangle;collapsible=0;dropTarget=0;pointerEvents=0;fillColor=#CFC86B;top=0;left=0;bottom=0;right=0;points=[[0,0.5],[1,0.5]];portConstraint=eastwest;" vertex="1" parent="Eqw1G6QDZ1J7UmovNux2-1">
          <mxGeometry y="450" width="180" height="30" as="geometry" />
        </mxCell>
        <mxCell id="Eqw1G6QDZ1J7UmovNux2-45" value="" style="shape=partialRectangle;connectable=0;fillColor=#CFC86B;top=0;left=0;bottom=0;right=0;editable=1;overflow=hidden;strokeColor=#b85450;" vertex="1" parent="Eqw1G6QDZ1J7UmovNux2-44">
          <mxGeometry width="30" height="30" as="geometry">
            <mxRectangle width="30" height="30" as="alternateBounds" />
          </mxGeometry>
        </mxCell>
        <mxCell id="Eqw1G6QDZ1J7UmovNux2-46" value="供应商是否特别要求" style="shape=partialRectangle;connectable=0;fillColor=#CFC86B;top=0;left=0;bottom=0;right=0;align=left;spacingLeft=6;overflow=hidden;strokeColor=#b85450;" vertex="1" parent="Eqw1G6QDZ1J7UmovNux2-44">
          <mxGeometry x="30" width="150" height="30" as="geometry">
            <mxRectangle width="150" height="30" as="alternateBounds" />
          </mxGeometry>
        </mxCell>
        <mxCell id="Eqw1G6QDZ1J7UmovNux2-47" value="" style="shape=partialRectangle;collapsible=0;dropTarget=0;pointerEvents=0;fillColor=#CFC86B;top=0;left=0;bottom=0;right=0;points=[[0,0.5],[1,0.5]];portConstraint=eastwest;" vertex="1" parent="Eqw1G6QDZ1J7UmovNux2-1">
          <mxGeometry y="480" width="180" height="30" as="geometry" />
        </mxCell>
        <mxCell id="Eqw1G6QDZ1J7UmovNux2-48" value="" style="shape=partialRectangle;connectable=0;fillColor=#CFC86B;top=0;left=0;bottom=0;right=0;editable=1;overflow=hidden;strokeColor=#b85450;" vertex="1" parent="Eqw1G6QDZ1J7UmovNux2-47">
          <mxGeometry width="30" height="30" as="geometry">
            <mxRectangle width="30" height="30" as="alternateBounds" />
          </mxGeometry>
        </mxCell>
        <mxCell id="Eqw1G6QDZ1J7UmovNux2-49" value="供应商要求内容" style="shape=partialRectangle;connectable=0;fillColor=#CFC86B;top=0;left=0;bottom=0;right=0;align=left;spacingLeft=6;overflow=hidden;strokeColor=#b85450;" vertex="1" parent="Eqw1G6QDZ1J7UmovNux2-47">
          <mxGeometry x="30" width="150" height="30" as="geometry">
            <mxRectangle width="150" height="30" as="alternateBounds" />
          </mxGeometry>
        </mxCell>
        <mxCell id="Eqw1G6QDZ1J7UmovNux2-50" value="" style="shape=partialRectangle;collapsible=0;dropTarget=0;pointerEvents=0;fillColor=#CFC86B;top=0;left=0;bottom=0;right=0;points=[[0,0.5],[1,0.5]];portConstraint=eastwest;" vertex="1" parent="Eqw1G6QDZ1J7UmovNux2-1">
          <mxGeometry y="510" width="180" height="30" as="geometry" />
        </mxCell>
        <mxCell id="Eqw1G6QDZ1J7UmovNux2-51" value="" style="shape=partialRectangle;connectable=0;fillColor=#CFC86B;top=0;left=0;bottom=0;right=0;editable=1;overflow=hidden;strokeColor=#b85450;" vertex="1" parent="Eqw1G6QDZ1J7UmovNux2-50">
          <mxGeometry width="30" height="30" as="geometry">
            <mxRectangle width="30" height="30" as="alternateBounds" />
          </mxGeometry>
        </mxCell>
        <mxCell id="Eqw1G6QDZ1J7UmovNux2-52" value="QA是否特别要求" style="shape=partialRectangle;connectable=0;fillColor=#CFC86B;top=0;left=0;bottom=0;right=0;align=left;spacingLeft=6;overflow=hidden;strokeColor=#b85450;" vertex="1" parent="Eqw1G6QDZ1J7UmovNux2-50">
          <mxGeometry x="30" width="150" height="30" as="geometry">
            <mxRectangle width="150" height="30" as="alternateBounds" />
          </mxGeometry>
        </mxCell>
        <mxCell id="Eqw1G6QDZ1J7UmovNux2-53" value="" style="shape=partialRectangle;collapsible=0;dropTarget=0;pointerEvents=0;fillColor=#CFC86B;top=0;left=0;bottom=0;right=0;points=[[0,0.5],[1,0.5]];portConstraint=eastwest;" vertex="1" parent="Eqw1G6QDZ1J7UmovNux2-1">
          <mxGeometry y="540" width="180" height="30" as="geometry" />
        </mxCell>
        <mxCell id="Eqw1G6QDZ1J7UmovNux2-54" value="" style="shape=partialRectangle;connectable=0;fillColor=#CFC86B;top=0;left=0;bottom=0;right=0;editable=1;overflow=hidden;strokeColor=#b85450;" vertex="1" parent="Eqw1G6QDZ1J7UmovNux2-53">
          <mxGeometry width="30" height="30" as="geometry">
            <mxRectangle width="30" height="30" as="alternateBounds" />
          </mxGeometry>
        </mxCell>
        <mxCell id="Eqw1G6QDZ1J7UmovNux2-55" value="QA要求内容" style="shape=partialRectangle;connectable=0;fillColor=#CFC86B;top=0;left=0;bottom=0;right=0;align=left;spacingLeft=6;overflow=hidden;strokeColor=#b85450;" vertex="1" parent="Eqw1G6QDZ1J7UmovNux2-53">
          <mxGeometry x="30" width="150" height="30" as="geometry">
            <mxRectangle width="150" height="30" as="alternateBounds" />
          </mxGeometry>
        </mxCell>
        <mxCell id="Eqw1G6QDZ1J7UmovNux2-56" value="" style="shape=partialRectangle;collapsible=0;dropTarget=0;pointerEvents=0;fillColor=#CFC86B;top=0;left=0;bottom=0;right=0;points=[[0,0.5],[1,0.5]];portConstraint=eastwest;" vertex="1" parent="Eqw1G6QDZ1J7UmovNux2-1">
          <mxGeometry y="570" width="180" height="30" as="geometry" />
        </mxCell>
        <mxCell id="Eqw1G6QDZ1J7UmovNux2-57" value="" style="shape=partialRectangle;connectable=0;fillColor=#CFC86B;top=0;left=0;bottom=0;right=0;editable=1;overflow=hidden;strokeColor=#b85450;" vertex="1" parent="Eqw1G6QDZ1J7UmovNux2-56">
          <mxGeometry width="30" height="30" as="geometry">
            <mxRectangle width="30" height="30" as="alternateBounds" />
          </mxGeometry>
        </mxCell>
        <mxCell id="Eqw1G6QDZ1J7UmovNux2-58" value="DLR是否特别要求" style="shape=partialRectangle;connectable=0;fillColor=#CFC86B;top=0;left=0;bottom=0;right=0;align=left;spacingLeft=6;overflow=hidden;strokeColor=#b85450;" vertex="1" parent="Eqw1G6QDZ1J7UmovNux2-56">
          <mxGeometry x="30" width="150" height="30" as="geometry">
            <mxRectangle width="150" height="30" as="alternateBounds" />
          </mxGeometry>
        </mxCell>
        <mxCell id="Eqw1G6QDZ1J7UmovNux2-59" value="" style="shape=partialRectangle;collapsible=0;dropTarget=0;pointerEvents=0;fillColor=#CFC86B;top=0;left=0;bottom=0;right=0;points=[[0,0.5],[1,0.5]];portConstraint=eastwest;" vertex="1" parent="Eqw1G6QDZ1J7UmovNux2-1">
          <mxGeometry y="600" width="180" height="30" as="geometry" />
        </mxCell>
        <mxCell id="Eqw1G6QDZ1J7UmovNux2-60" value="" style="shape=partialRectangle;connectable=0;fillColor=#CFC86B;top=0;left=0;bottom=0;right=0;editable=1;overflow=hidden;strokeColor=#b85450;" vertex="1" parent="Eqw1G6QDZ1J7UmovNux2-59">
          <mxGeometry width="30" height="30" as="geometry">
            <mxRectangle width="30" height="30" as="alternateBounds" />
          </mxGeometry>
        </mxCell>
        <mxCell id="Eqw1G6QDZ1J7UmovNux2-61" value="DLR要求内容" style="shape=partialRectangle;connectable=0;fillColor=#CFC86B;top=0;left=0;bottom=0;right=0;align=left;spacingLeft=6;overflow=hidden;strokeColor=#b85450;" vertex="1" parent="Eqw1G6QDZ1J7UmovNux2-59">
          <mxGeometry x="30" width="150" height="30" as="geometry">
            <mxRectangle width="150" height="30" as="alternateBounds" />
          </mxGeometry>
        </mxCell>
        <mxCell id="Eqw1G6QDZ1J7UmovNux2-62" value="" style="shape=partialRectangle;collapsible=0;dropTarget=0;pointerEvents=0;fillColor=#CFC86B;top=0;left=0;bottom=0;right=0;points=[[0,0.5],[1,0.5]];portConstraint=eastwest;" vertex="1" parent="Eqw1G6QDZ1J7UmovNux2-1">
          <mxGeometry y="630" width="180" height="30" as="geometry" />
        </mxCell>
        <mxCell id="Eqw1G6QDZ1J7UmovNux2-63" value="" style="shape=partialRectangle;connectable=0;fillColor=#CFC86B;top=0;left=0;bottom=0;right=0;editable=1;overflow=hidden;strokeColor=#b85450;" vertex="1" parent="Eqw1G6QDZ1J7UmovNux2-62">
          <mxGeometry width="30" height="30" as="geometry">
            <mxRectangle width="30" height="30" as="alternateBounds" />
          </mxGeometry>
        </mxCell>
        <mxCell id="Eqw1G6QDZ1J7UmovNux2-64" value="EDER担当" style="shape=partialRectangle;connectable=0;fillColor=#CFC86B;top=0;left=0;bottom=0;right=0;align=left;spacingLeft=6;overflow=hidden;strokeColor=#b85450;" vertex="1" parent="Eqw1G6QDZ1J7UmovNux2-62">
          <mxGeometry x="30" width="150" height="30" as="geometry">
            <mxRectangle width="150" height="30" as="alternateBounds" />
          </mxGeometry>
        </mxCell>
        <mxCell id="Eqw1G6QDZ1J7UmovNux2-65" value="" style="shape=partialRectangle;collapsible=0;dropTarget=0;pointerEvents=0;fillColor=#CFC86B;top=0;left=0;bottom=0;right=0;points=[[0,0.5],[1,0.5]];portConstraint=eastwest;" vertex="1" parent="Eqw1G6QDZ1J7UmovNux2-1">
          <mxGeometry y="660" width="180" height="30" as="geometry" />
        </mxCell>
        <mxCell id="Eqw1G6QDZ1J7UmovNux2-66" value="" style="shape=partialRectangle;connectable=0;fillColor=#CFC86B;top=0;left=0;bottom=0;right=0;editable=1;overflow=hidden;strokeColor=#b85450;" vertex="1" parent="Eqw1G6QDZ1J7UmovNux2-65">
          <mxGeometry width="30" height="30" as="geometry">
            <mxRectangle width="30" height="30" as="alternateBounds" />
          </mxGeometry>
        </mxCell>
        <mxCell id="Eqw1G6QDZ1J7UmovNux2-67" value="QA担当" style="shape=partialRectangle;connectable=0;fillColor=#CFC86B;top=0;left=0;bottom=0;right=0;align=left;spacingLeft=6;overflow=hidden;strokeColor=#b85450;" vertex="1" parent="Eqw1G6QDZ1J7UmovNux2-65">
          <mxGeometry x="30" width="150" height="30" as="geometry">
            <mxRectangle width="150" height="30" as="alternateBounds" />
          </mxGeometry>
        </mxCell>
        <mxCell id="Eqw1G6QDZ1J7UmovNux2-68" value="" style="shape=partialRectangle;collapsible=0;dropTarget=0;pointerEvents=0;fillColor=#CFC86B;top=0;left=0;bottom=0;right=0;points=[[0,0.5],[1,0.5]];portConstraint=eastwest;" vertex="1" parent="Eqw1G6QDZ1J7UmovNux2-1">
          <mxGeometry y="690" width="180" height="30" as="geometry" />
        </mxCell>
        <mxCell id="Eqw1G6QDZ1J7UmovNux2-69" value="" style="shape=partialRectangle;connectable=0;fillColor=#CFC86B;top=0;left=0;bottom=0;right=0;editable=1;overflow=hidden;strokeColor=#b85450;" vertex="1" parent="Eqw1G6QDZ1J7UmovNux2-68">
          <mxGeometry width="30" height="30" as="geometry">
            <mxRectangle width="30" height="30" as="alternateBounds" />
          </mxGeometry>
        </mxCell>
        <mxCell id="Eqw1G6QDZ1J7UmovNux2-70" value="问卷模板" style="shape=partialRectangle;connectable=0;fillColor=#CFC86B;top=0;left=0;bottom=0;right=0;align=left;spacingLeft=6;overflow=hidden;strokeColor=#b85450;" vertex="1" parent="Eqw1G6QDZ1J7UmovNux2-68">
          <mxGeometry x="30" width="150" height="30" as="geometry">
            <mxRectangle width="150" height="30" as="alternateBounds" />
          </mxGeometry>
        </mxCell>
        <mxCell id="Eqw1G6QDZ1J7UmovNux2-71" value="" style="shape=partialRectangle;collapsible=0;dropTarget=0;pointerEvents=0;fillColor=#CFC86B;top=0;left=0;bottom=0;right=0;points=[[0,0.5],[1,0.5]];portConstraint=eastwest;" vertex="1" parent="Eqw1G6QDZ1J7UmovNux2-1">
          <mxGeometry y="720" width="180" height="30" as="geometry" />
        </mxCell>
        <mxCell id="Eqw1G6QDZ1J7UmovNux2-72" value="" style="shape=partialRectangle;connectable=0;fillColor=#CFC86B;top=0;left=0;bottom=0;right=0;editable=1;overflow=hidden;strokeColor=#b85450;" vertex="1" parent="Eqw1G6QDZ1J7UmovNux2-71">
          <mxGeometry width="30" height="30" as="geometry">
            <mxRectangle width="30" height="30" as="alternateBounds" />
          </mxGeometry>
        </mxCell>
        <mxCell id="Eqw1G6QDZ1J7UmovNux2-73" value="其他附件" style="shape=partialRectangle;connectable=0;fillColor=#CFC86B;top=0;left=0;bottom=0;right=0;align=left;spacingLeft=6;overflow=hidden;strokeColor=#b85450;" vertex="1" parent="Eqw1G6QDZ1J7UmovNux2-71">
          <mxGeometry x="30" width="150" height="30" as="geometry">
            <mxRectangle width="150" height="30" as="alternateBounds" />
          </mxGeometry>
        </mxCell>
        <mxCell id="Eqw1G6QDZ1J7UmovNux2-74" value="" style="shape=partialRectangle;collapsible=0;dropTarget=0;pointerEvents=0;fillColor=#CFC86B;top=0;left=0;bottom=0;right=0;points=[[0,0.5],[1,0.5]];portConstraint=eastwest;" vertex="1" parent="Eqw1G6QDZ1J7UmovNux2-1">
          <mxGeometry y="750" width="180" height="30" as="geometry" />
        </mxCell>
        <mxCell id="Eqw1G6QDZ1J7UmovNux2-75" value="" style="shape=partialRectangle;connectable=0;fillColor=#CFC86B;top=0;left=0;bottom=0;right=0;editable=1;overflow=hidden;strokeColor=#b85450;" vertex="1" parent="Eqw1G6QDZ1J7UmovNux2-74">
          <mxGeometry width="30" height="30" as="geometry">
            <mxRectangle width="30" height="30" as="alternateBounds" />
          </mxGeometry>
        </mxCell>
        <mxCell id="Eqw1G6QDZ1J7UmovNux2-76" value="案件类型" style="shape=partialRectangle;connectable=0;fillColor=#CFC86B;top=0;left=0;bottom=0;right=0;align=left;spacingLeft=6;overflow=hidden;strokeColor=#b85450;" vertex="1" parent="Eqw1G6QDZ1J7UmovNux2-74">
          <mxGeometry x="30" width="150" height="30" as="geometry">
            <mxRectangle width="150" height="30" as="alternateBounds" />
          </mxGeometry>
        </mxCell>
        <mxCell id="Eqw1G6QDZ1J7UmovNux2-77" value="" style="shape=partialRectangle;collapsible=0;dropTarget=0;pointerEvents=0;fillColor=#CFC86B;top=0;left=0;bottom=0;right=0;points=[[0,0.5],[1,0.5]];portConstraint=eastwest;" vertex="1" parent="Eqw1G6QDZ1J7UmovNux2-1">
          <mxGeometry y="780" width="180" height="30" as="geometry" />
        </mxCell>
        <mxCell id="Eqw1G6QDZ1J7UmovNux2-78" value="" style="shape=partialRectangle;connectable=0;fillColor=#CFC86B;top=0;left=0;bottom=0;right=0;editable=1;overflow=hidden;strokeColor=#b85450;" vertex="1" parent="Eqw1G6QDZ1J7UmovNux2-77">
          <mxGeometry width="30" height="30" as="geometry">
            <mxRectangle width="30" height="30" as="alternateBounds" />
          </mxGeometry>
        </mxCell>
        <mxCell id="Eqw1G6QDZ1J7UmovNux2-79" value="申请时间 " style="shape=partialRectangle;connectable=0;fillColor=#CFC86B;top=0;left=0;bottom=0;right=0;align=left;spacingLeft=6;overflow=hidden;strokeColor=#b85450;" vertex="1" parent="Eqw1G6QDZ1J7UmovNux2-77">
          <mxGeometry x="30" width="150" height="30" as="geometry">
            <mxRectangle width="150" height="30" as="alternateBounds" />
          </mxGeometry>
        </mxCell>
        <mxCell id="Eqw1G6QDZ1J7UmovNux2-80" value="确认实施项目表" style="shape=table;startSize=30;container=1;collapsible=1;childLayout=tableLayout;fixedRows=1;rowLines=0;fontStyle=1;align=center;resizeLast=1;fillColor=#CFC86B;strokeColor=#6c8ebf;" vertex="1" parent="1">
          <mxGeometry x="900" y="190" width="180" height="150" as="geometry" />
        </mxCell>
        <mxCell id="Eqw1G6QDZ1J7UmovNux2-81" value="" style="shape=partialRectangle;collapsible=0;dropTarget=0;pointerEvents=0;fillColor=#CFC86B;top=0;left=0;bottom=1;right=0;points=[[0,0.5],[1,0.5]];portConstraint=eastwest;" vertex="1" parent="Eqw1G6QDZ1J7UmovNux2-80">
          <mxGeometry y="30" width="180" height="30" as="geometry" />
        </mxCell>
        <mxCell id="Eqw1G6QDZ1J7UmovNux2-82" value="PK" style="shape=partialRectangle;connectable=0;fillColor=#CFC86B;top=0;left=0;bottom=0;right=0;fontStyle=1;overflow=hidden;strokeColor=#6c8ebf;" vertex="1" parent="Eqw1G6QDZ1J7UmovNux2-81">
          <mxGeometry width="30" height="30" as="geometry">
            <mxRectangle width="30" height="30" as="alternateBounds" />
          </mxGeometry>
        </mxCell>
        <mxCell id="Eqw1G6QDZ1J7UmovNux2-83" value="ID" style="shape=partialRectangle;connectable=0;fillColor=#CFC86B;top=0;left=0;bottom=0;right=0;align=left;spacingLeft=6;fontStyle=5;overflow=hidden;strokeColor=#6c8ebf;" vertex="1" parent="Eqw1G6QDZ1J7UmovNux2-81">
          <mxGeometry x="30" width="150" height="30" as="geometry">
            <mxRectangle width="150" height="30" as="alternateBounds" />
          </mxGeometry>
        </mxCell>
        <mxCell id="Eqw1G6QDZ1J7UmovNux2-84" value="" style="shape=partialRectangle;collapsible=0;dropTarget=0;pointerEvents=0;fillColor=#CFC86B;top=0;left=0;bottom=0;right=0;points=[[0,0.5],[1,0.5]];portConstraint=eastwest;" vertex="1" parent="Eqw1G6QDZ1J7UmovNux2-80">
          <mxGeometry y="60" width="180" height="30" as="geometry" />
        </mxCell>
        <mxCell id="Eqw1G6QDZ1J7UmovNux2-85" value="" style="shape=partialRectangle;connectable=0;fillColor=#CFC86B;top=0;left=0;bottom=0;right=0;editable=1;overflow=hidden;strokeColor=#6c8ebf;" vertex="1" parent="Eqw1G6QDZ1J7UmovNux2-84">
          <mxGeometry width="30" height="30" as="geometry">
            <mxRectangle width="30" height="30" as="alternateBounds" />
          </mxGeometry>
        </mxCell>
        <mxCell id="Eqw1G6QDZ1J7UmovNux2-86" value="案件码" style="shape=partialRectangle;connectable=0;fillColor=#CFC86B;top=0;left=0;bottom=0;right=0;align=left;spacingLeft=6;overflow=hidden;strokeColor=#6c8ebf;" vertex="1" parent="Eqw1G6QDZ1J7UmovNux2-84">
          <mxGeometry x="30" width="150" height="30" as="geometry">
            <mxRectangle width="150" height="30" as="alternateBounds" />
          </mxGeometry>
        </mxCell>
        <mxCell id="Eqw1G6QDZ1J7UmovNux2-87" value="" style="shape=partialRectangle;collapsible=0;dropTarget=0;pointerEvents=0;fillColor=#CFC86B;top=0;left=0;bottom=0;right=0;points=[[0,0.5],[1,0.5]];portConstraint=eastwest;" vertex="1" parent="Eqw1G6QDZ1J7UmovNux2-80">
          <mxGeometry y="90" width="180" height="30" as="geometry" />
        </mxCell>
        <mxCell id="Eqw1G6QDZ1J7UmovNux2-88" value="" style="shape=partialRectangle;connectable=0;fillColor=#CFC86B;top=0;left=0;bottom=0;right=0;editable=1;overflow=hidden;strokeColor=#6c8ebf;" vertex="1" parent="Eqw1G6QDZ1J7UmovNux2-87">
          <mxGeometry width="30" height="30" as="geometry">
            <mxRectangle width="30" height="30" as="alternateBounds" />
          </mxGeometry>
        </mxCell>
        <mxCell id="Eqw1G6QDZ1J7UmovNux2-89" value="实车确认项目" style="shape=partialRectangle;connectable=0;fillColor=#CFC86B;top=0;left=0;bottom=0;right=0;align=left;spacingLeft=6;overflow=hidden;strokeColor=#6c8ebf;" vertex="1" parent="Eqw1G6QDZ1J7UmovNux2-87">
          <mxGeometry x="30" width="150" height="30" as="geometry">
            <mxRectangle width="150" height="30" as="alternateBounds" />
          </mxGeometry>
        </mxCell>
        <mxCell id="Eqw1G6QDZ1J7UmovNux2-90" value="" style="shape=partialRectangle;collapsible=0;dropTarget=0;pointerEvents=0;fillColor=#CFC86B;top=0;left=0;bottom=0;right=0;points=[[0,0.5],[1,0.5]];portConstraint=eastwest;strokeColor=#6c8ebf;" vertex="1" parent="Eqw1G6QDZ1J7UmovNux2-80">
          <mxGeometry y="120" width="180" height="30" as="geometry" />
        </mxCell>
        <mxCell id="Eqw1G6QDZ1J7UmovNux2-91" value="" style="shape=partialRectangle;connectable=0;fillColor=#CFC86B;top=0;left=0;bottom=0;right=0;editable=1;overflow=hidden;" vertex="1" parent="Eqw1G6QDZ1J7UmovNux2-90">
          <mxGeometry width="30" height="30" as="geometry">
            <mxRectangle width="30" height="30" as="alternateBounds" />
          </mxGeometry>
        </mxCell>
        <mxCell id="Eqw1G6QDZ1J7UmovNux2-92" value="所需工时" style="shape=partialRectangle;connectable=0;fillColor=#CFC86B;top=0;left=0;bottom=0;right=0;align=left;spacingLeft=6;overflow=hidden;" vertex="1" parent="Eqw1G6QDZ1J7UmovNux2-90">
          <mxGeometry x="30" width="150" height="30" as="geometry">
            <mxRectangle width="150" height="30" as="alternateBounds" />
          </mxGeometry>
        </mxCell>
        <mxCell id="Eqw1G6QDZ1J7UmovNux2-93" value="1" style="endArrow=open;html=1;endSize=12;startArrow=diamondThin;startSize=14;startFill=0;edgeStyle=orthogonalEdgeStyle;align=left;verticalAlign=bottom;rounded=0;" edge="1" parent="1">
          <mxGeometry x="-1" y="3" relative="1" as="geometry">
            <mxPoint x="730" y="260" as="sourcePoint" />
            <mxPoint x="890" y="260" as="targetPoint" />
          </mxGeometry>
        </mxCell>
        <mxCell id="Eqw1G6QDZ1J7UmovNux2-94" value="现任案件条件表" style="shape=table;startSize=30;container=1;collapsible=1;childLayout=tableLayout;fixedRows=1;rowLines=0;fontStyle=1;align=center;resizeLast=1;fillColor=#CFC86B;strokeColor=#6c8ebf;" vertex="1" parent="1">
          <mxGeometry x="210" y="190" width="180" height="120" as="geometry" />
        </mxCell>
        <mxCell id="Eqw1G6QDZ1J7UmovNux2-95" value="" style="shape=partialRectangle;collapsible=0;dropTarget=0;pointerEvents=0;fillColor=#CFC86B;top=0;left=0;bottom=1;right=0;points=[[0,0.5],[1,0.5]];portConstraint=eastwest;" vertex="1" parent="Eqw1G6QDZ1J7UmovNux2-94">
          <mxGeometry y="30" width="180" height="30" as="geometry" />
        </mxCell>
        <mxCell id="Eqw1G6QDZ1J7UmovNux2-96" value="PK" style="shape=partialRectangle;connectable=0;fillColor=#CFC86B;top=0;left=0;bottom=0;right=0;fontStyle=1;overflow=hidden;strokeColor=#6c8ebf;" vertex="1" parent="Eqw1G6QDZ1J7UmovNux2-95">
          <mxGeometry width="30" height="30" as="geometry">
            <mxRectangle width="30" height="30" as="alternateBounds" />
          </mxGeometry>
        </mxCell>
        <mxCell id="Eqw1G6QDZ1J7UmovNux2-97" value="ID" style="shape=partialRectangle;connectable=0;fillColor=#CFC86B;top=0;left=0;bottom=0;right=0;align=left;spacingLeft=6;fontStyle=5;overflow=hidden;strokeColor=#6c8ebf;" vertex="1" parent="Eqw1G6QDZ1J7UmovNux2-95">
          <mxGeometry x="30" width="150" height="30" as="geometry">
            <mxRectangle width="150" height="30" as="alternateBounds" />
          </mxGeometry>
        </mxCell>
        <mxCell id="Eqw1G6QDZ1J7UmovNux2-98" value="" style="shape=partialRectangle;collapsible=0;dropTarget=0;pointerEvents=0;fillColor=#CFC86B;top=0;left=0;bottom=0;right=0;points=[[0,0.5],[1,0.5]];portConstraint=eastwest;" vertex="1" parent="Eqw1G6QDZ1J7UmovNux2-94">
          <mxGeometry y="60" width="180" height="30" as="geometry" />
        </mxCell>
        <mxCell id="Eqw1G6QDZ1J7UmovNux2-99" value="" style="shape=partialRectangle;connectable=0;fillColor=#CFC86B;top=0;left=0;bottom=0;right=0;editable=1;overflow=hidden;strokeColor=#6c8ebf;" vertex="1" parent="Eqw1G6QDZ1J7UmovNux2-98">
          <mxGeometry width="30" height="30" as="geometry">
            <mxRectangle width="30" height="30" as="alternateBounds" />
          </mxGeometry>
        </mxCell>
        <mxCell id="Eqw1G6QDZ1J7UmovNux2-100" value="标题" style="shape=partialRectangle;connectable=0;fillColor=#CFC86B;top=0;left=0;bottom=0;right=0;align=left;spacingLeft=6;overflow=hidden;strokeColor=#6c8ebf;" vertex="1" parent="Eqw1G6QDZ1J7UmovNux2-98">
          <mxGeometry x="30" width="150" height="30" as="geometry">
            <mxRectangle width="150" height="30" as="alternateBounds" />
          </mxGeometry>
        </mxCell>
        <mxCell id="Eqw1G6QDZ1J7UmovNux2-101" value="" style="shape=partialRectangle;collapsible=0;dropTarget=0;pointerEvents=0;fillColor=#CFC86B;top=0;left=0;bottom=0;right=0;points=[[0,0.5],[1,0.5]];portConstraint=eastwest;" vertex="1" parent="Eqw1G6QDZ1J7UmovNux2-94">
          <mxGeometry y="90" width="180" height="30" as="geometry" />
        </mxCell>
        <mxCell id="Eqw1G6QDZ1J7UmovNux2-102" value="" style="shape=partialRectangle;connectable=0;fillColor=#CFC86B;top=0;left=0;bottom=0;right=0;editable=1;overflow=hidden;strokeColor=#6c8ebf;" vertex="1" parent="Eqw1G6QDZ1J7UmovNux2-101">
          <mxGeometry width="30" height="30" as="geometry">
            <mxRectangle width="30" height="30" as="alternateBounds" />
          </mxGeometry>
        </mxCell>
        <mxCell id="Eqw1G6QDZ1J7UmovNux2-103" value="副标题" style="shape=partialRectangle;connectable=0;fillColor=#CFC86B;top=0;left=0;bottom=0;right=0;align=left;spacingLeft=6;overflow=hidden;strokeColor=#6c8ebf;" vertex="1" parent="Eqw1G6QDZ1J7UmovNux2-101">
          <mxGeometry x="30" width="150" height="30" as="geometry">
            <mxRectangle width="150" height="30" as="alternateBounds" />
          </mxGeometry>
        </mxCell>
        <mxCell id="Eqw1G6QDZ1J7UmovNux2-104" value="现任案件条件内容表" style="shape=table;startSize=30;container=1;collapsible=1;childLayout=tableLayout;fixedRows=1;rowLines=0;fontStyle=1;align=center;resizeLast=1;fillColor=#CFC86B;strokeColor=#b85450;" vertex="1" parent="1">
          <mxGeometry x="210" y="430" width="180" height="210" as="geometry" />
        </mxCell>
        <mxCell id="Eqw1G6QDZ1J7UmovNux2-105" value="" style="shape=partialRectangle;collapsible=0;dropTarget=0;pointerEvents=0;fillColor=#CFC86B;top=0;left=0;bottom=1;right=0;points=[[0,0.5],[1,0.5]];portConstraint=eastwest;" vertex="1" parent="Eqw1G6QDZ1J7UmovNux2-104">
          <mxGeometry y="30" width="180" height="30" as="geometry" />
        </mxCell>
        <mxCell id="Eqw1G6QDZ1J7UmovNux2-106" value="PK" style="shape=partialRectangle;connectable=0;fillColor=#CFC86B;top=0;left=0;bottom=0;right=0;fontStyle=1;overflow=hidden;strokeColor=#b85450;" vertex="1" parent="Eqw1G6QDZ1J7UmovNux2-105">
          <mxGeometry width="30" height="30" as="geometry">
            <mxRectangle width="30" height="30" as="alternateBounds" />
          </mxGeometry>
        </mxCell>
        <mxCell id="Eqw1G6QDZ1J7UmovNux2-107" value="ID" style="shape=partialRectangle;connectable=0;fillColor=#CFC86B;top=0;left=0;bottom=0;right=0;align=left;spacingLeft=6;fontStyle=5;overflow=hidden;strokeColor=#b85450;" vertex="1" parent="Eqw1G6QDZ1J7UmovNux2-105">
          <mxGeometry x="30" width="150" height="30" as="geometry">
            <mxRectangle width="150" height="30" as="alternateBounds" />
          </mxGeometry>
        </mxCell>
        <mxCell id="Eqw1G6QDZ1J7UmovNux2-108" value="" style="shape=partialRectangle;collapsible=0;dropTarget=0;pointerEvents=0;fillColor=#CFC86B;top=0;left=0;bottom=0;right=0;points=[[0,0.5],[1,0.5]];portConstraint=eastwest;" vertex="1" parent="Eqw1G6QDZ1J7UmovNux2-104">
          <mxGeometry y="60" width="180" height="30" as="geometry" />
        </mxCell>
        <mxCell id="Eqw1G6QDZ1J7UmovNux2-109" value="" style="shape=partialRectangle;connectable=0;fillColor=#CFC86B;top=0;left=0;bottom=0;right=0;editable=1;overflow=hidden;strokeColor=#b85450;" vertex="1" parent="Eqw1G6QDZ1J7UmovNux2-108">
          <mxGeometry width="30" height="30" as="geometry">
            <mxRectangle width="30" height="30" as="alternateBounds" />
          </mxGeometry>
        </mxCell>
        <mxCell id="Eqw1G6QDZ1J7UmovNux2-110" value="条件编号" style="shape=partialRectangle;connectable=0;fillColor=#CFC86B;top=0;left=0;bottom=0;right=0;align=left;spacingLeft=6;overflow=hidden;strokeColor=#b85450;" vertex="1" parent="Eqw1G6QDZ1J7UmovNux2-108">
          <mxGeometry x="30" width="150" height="30" as="geometry">
            <mxRectangle width="150" height="30" as="alternateBounds" />
          </mxGeometry>
        </mxCell>
        <mxCell id="Eqw1G6QDZ1J7UmovNux2-111" value="" style="shape=partialRectangle;collapsible=0;dropTarget=0;pointerEvents=0;fillColor=#CFC86B;top=0;left=0;bottom=0;right=0;points=[[0,0.5],[1,0.5]];portConstraint=eastwest;" vertex="1" parent="Eqw1G6QDZ1J7UmovNux2-104">
          <mxGeometry y="90" width="180" height="30" as="geometry" />
        </mxCell>
        <mxCell id="Eqw1G6QDZ1J7UmovNux2-112" value="" style="shape=partialRectangle;connectable=0;fillColor=#CFC86B;top=0;left=0;bottom=0;right=0;editable=1;overflow=hidden;strokeColor=#b85450;" vertex="1" parent="Eqw1G6QDZ1J7UmovNux2-111">
          <mxGeometry width="30" height="30" as="geometry">
            <mxRectangle width="30" height="30" as="alternateBounds" />
          </mxGeometry>
        </mxCell>
        <mxCell id="Eqw1G6QDZ1J7UmovNux2-113" value="条件内容" style="shape=partialRectangle;connectable=0;fillColor=#CFC86B;top=0;left=0;bottom=0;right=0;align=left;spacingLeft=6;overflow=hidden;strokeColor=#b85450;" vertex="1" parent="Eqw1G6QDZ1J7UmovNux2-111">
          <mxGeometry x="30" width="150" height="30" as="geometry">
            <mxRectangle width="150" height="30" as="alternateBounds" />
          </mxGeometry>
        </mxCell>
        <mxCell id="Eqw1G6QDZ1J7UmovNux2-114" value="" style="shape=partialRectangle;collapsible=0;dropTarget=0;pointerEvents=0;fillColor=#CFC86B;top=0;left=0;bottom=0;right=0;points=[[0,0.5],[1,0.5]];portConstraint=eastwest;" vertex="1" parent="Eqw1G6QDZ1J7UmovNux2-104">
          <mxGeometry y="120" width="180" height="30" as="geometry" />
        </mxCell>
        <mxCell id="Eqw1G6QDZ1J7UmovNux2-115" value="" style="shape=partialRectangle;connectable=0;fillColor=#CFC86B;top=0;left=0;bottom=0;right=0;editable=1;overflow=hidden;strokeColor=#b85450;" vertex="1" parent="Eqw1G6QDZ1J7UmovNux2-114">
          <mxGeometry width="30" height="30" as="geometry">
            <mxRectangle width="30" height="30" as="alternateBounds" />
          </mxGeometry>
        </mxCell>
        <mxCell id="Eqw1G6QDZ1J7UmovNux2-116" value="类型" style="shape=partialRectangle;connectable=0;fillColor=#CFC86B;top=0;left=0;bottom=0;right=0;align=left;spacingLeft=6;overflow=hidden;strokeColor=#b85450;" vertex="1" parent="Eqw1G6QDZ1J7UmovNux2-114">
          <mxGeometry x="30" width="150" height="30" as="geometry">
            <mxRectangle width="150" height="30" as="alternateBounds" />
          </mxGeometry>
        </mxCell>
        <mxCell id="Eqw1G6QDZ1J7UmovNux2-117" value="" style="shape=partialRectangle;collapsible=0;dropTarget=0;pointerEvents=0;fillColor=#CFC86B;top=0;left=0;bottom=0;right=0;points=[[0,0.5],[1,0.5]];portConstraint=eastwest;" vertex="1" parent="Eqw1G6QDZ1J7UmovNux2-104">
          <mxGeometry y="150" width="180" height="30" as="geometry" />
        </mxCell>
        <mxCell id="Eqw1G6QDZ1J7UmovNux2-118" value="" style="shape=partialRectangle;connectable=0;fillColor=#CFC86B;top=0;left=0;bottom=0;right=0;editable=1;overflow=hidden;strokeColor=#b85450;" vertex="1" parent="Eqw1G6QDZ1J7UmovNux2-117">
          <mxGeometry width="30" height="30" as="geometry">
            <mxRectangle width="30" height="30" as="alternateBounds" />
          </mxGeometry>
        </mxCell>
        <mxCell id="Eqw1G6QDZ1J7UmovNux2-119" value="上传数量" style="shape=partialRectangle;connectable=0;fillColor=#CFC86B;top=0;left=0;bottom=0;right=0;align=left;spacingLeft=6;overflow=hidden;strokeColor=#b85450;" vertex="1" parent="Eqw1G6QDZ1J7UmovNux2-117">
          <mxGeometry x="30" width="150" height="30" as="geometry">
            <mxRectangle width="150" height="30" as="alternateBounds" />
          </mxGeometry>
        </mxCell>
        <mxCell id="Eqw1G6QDZ1J7UmovNux2-120" value="" style="shape=partialRectangle;collapsible=0;dropTarget=0;pointerEvents=0;fillColor=#CFC86B;top=0;left=0;bottom=0;right=0;points=[[0,0.5],[1,0.5]];portConstraint=eastwest;" vertex="1" parent="Eqw1G6QDZ1J7UmovNux2-104">
          <mxGeometry y="180" width="180" height="30" as="geometry" />
        </mxCell>
        <mxCell id="Eqw1G6QDZ1J7UmovNux2-121" value="" style="shape=partialRectangle;connectable=0;fillColor=#CFC86B;top=0;left=0;bottom=0;right=0;editable=1;overflow=hidden;strokeColor=#b85450;" vertex="1" parent="Eqw1G6QDZ1J7UmovNux2-120">
          <mxGeometry width="30" height="30" as="geometry">
            <mxRectangle width="30" height="30" as="alternateBounds" />
          </mxGeometry>
        </mxCell>
        <mxCell id="Eqw1G6QDZ1J7UmovNux2-122" value="文件类型" style="shape=partialRectangle;connectable=0;fillColor=#CFC86B;top=0;left=0;bottom=0;right=0;align=left;spacingLeft=6;overflow=hidden;strokeColor=#b85450;" vertex="1" parent="Eqw1G6QDZ1J7UmovNux2-120">
          <mxGeometry x="30" width="150" height="30" as="geometry">
            <mxRectangle width="150" height="30" as="alternateBounds" />
          </mxGeometry>
        </mxCell>
        <mxCell id="Eqw1G6QDZ1J7UmovNux2-123" style="edgeStyle=orthogonalEdgeStyle;rounded=0;orthogonalLoop=1;jettySize=auto;html=1;exitX=0;exitY=0;exitDx=100;exitDy=60;exitPerimeter=0;" edge="1" parent="1" source="Eqw1G6QDZ1J7UmovNux2-124">
          <mxGeometry relative="1" as="geometry">
            <mxPoint x="200" y="450" as="targetPoint" />
          </mxGeometry>
        </mxCell>
        <mxCell id="Eqw1G6QDZ1J7UmovNux2-124" value="1.类型限于文本框方式&lt;br&gt;2.数量、文件类型限于文件上传方式" style="shape=note;size=20;whiteSpace=wrap;html=1;fillColor=#e1d5e7;strokeColor=#9673a6;" vertex="1" parent="1">
          <mxGeometry x="30" y="440" width="100" height="100" as="geometry" />
        </mxCell>
        <mxCell id="Eqw1G6QDZ1J7UmovNux2-125" value="1" style="endArrow=open;html=1;endSize=12;startArrow=diamondThin;startSize=14;startFill=0;edgeStyle=orthogonalEdgeStyle;align=left;verticalAlign=bottom;rounded=0;entryX=1.007;entryY=0.589;entryDx=0;entryDy=0;entryPerimeter=0;" edge="1" parent="1" target="Eqw1G6QDZ1J7UmovNux2-108">
          <mxGeometry x="-1" y="3" relative="1" as="geometry">
            <mxPoint x="390" y="230" as="sourcePoint" />
            <mxPoint x="440" y="500" as="targetPoint" />
            <Array as="points">
              <mxPoint x="410" y="230" />
              <mxPoint x="410" y="508" />
            </Array>
          </mxGeometry>
        </mxCell>
        <mxCell id="Eqw1G6QDZ1J7UmovNux2-126" value="评分自检表" style="shape=table;startSize=30;container=1;collapsible=1;childLayout=tableLayout;fixedRows=1;rowLines=0;fontStyle=1;align=center;resizeLast=1;fillColor=#CFC86B;strokeColor=#b85450;" vertex="1" parent="1">
          <mxGeometry x="880" y="440" width="180" height="610" as="geometry" />
        </mxCell>
        <mxCell id="Eqw1G6QDZ1J7UmovNux2-127" value="" style="shape=partialRectangle;collapsible=0;dropTarget=0;pointerEvents=0;fillColor=#CFC86B;top=0;left=0;bottom=1;right=0;points=[[0,0.5],[1,0.5]];portConstraint=eastwest;" vertex="1" parent="Eqw1G6QDZ1J7UmovNux2-126">
          <mxGeometry y="30" width="180" height="30" as="geometry" />
        </mxCell>
        <mxCell id="Eqw1G6QDZ1J7UmovNux2-128" value="PK" style="shape=partialRectangle;connectable=0;fillColor=#CFC86B;top=0;left=0;bottom=0;right=0;fontStyle=1;overflow=hidden;strokeColor=#b85450;" vertex="1" parent="Eqw1G6QDZ1J7UmovNux2-127">
          <mxGeometry width="30" height="30" as="geometry">
            <mxRectangle width="30" height="30" as="alternateBounds" />
          </mxGeometry>
        </mxCell>
        <mxCell id="Eqw1G6QDZ1J7UmovNux2-129" value="ID" style="shape=partialRectangle;connectable=0;fillColor=#CFC86B;top=0;left=0;bottom=0;right=0;align=left;spacingLeft=6;fontStyle=5;overflow=hidden;strokeColor=#b85450;" vertex="1" parent="Eqw1G6QDZ1J7UmovNux2-127">
          <mxGeometry x="30" width="150" height="30" as="geometry">
            <mxRectangle width="150" height="30" as="alternateBounds" />
          </mxGeometry>
        </mxCell>
        <mxCell id="Eqw1G6QDZ1J7UmovNux2-130" value="" style="shape=partialRectangle;collapsible=0;dropTarget=0;pointerEvents=0;fillColor=#CFC86B;top=0;left=0;bottom=0;right=0;points=[[0,0.5],[1,0.5]];portConstraint=eastwest;" vertex="1" parent="Eqw1G6QDZ1J7UmovNux2-126">
          <mxGeometry y="60" width="180" height="30" as="geometry" />
        </mxCell>
        <mxCell id="Eqw1G6QDZ1J7UmovNux2-131" value="" style="shape=partialRectangle;connectable=0;fillColor=#CFC86B;top=0;left=0;bottom=0;right=0;editable=1;overflow=hidden;strokeColor=#b85450;" vertex="1" parent="Eqw1G6QDZ1J7UmovNux2-130">
          <mxGeometry width="30" height="30" as="geometry">
            <mxRectangle width="30" height="30" as="alternateBounds" />
          </mxGeometry>
        </mxCell>
        <mxCell id="Eqw1G6QDZ1J7UmovNux2-132" value="案件码" style="shape=partialRectangle;connectable=0;fillColor=#CFC86B;top=0;left=0;bottom=0;right=0;align=left;spacingLeft=6;overflow=hidden;strokeColor=#b85450;" vertex="1" parent="Eqw1G6QDZ1J7UmovNux2-130">
          <mxGeometry x="30" width="150" height="30" as="geometry">
            <mxRectangle width="150" height="30" as="alternateBounds" />
          </mxGeometry>
        </mxCell>
        <mxCell id="Eqw1G6QDZ1J7UmovNux2-133" value="" style="shape=partialRectangle;collapsible=0;dropTarget=0;pointerEvents=0;fillColor=#CFC86B;top=0;left=0;bottom=0;right=0;points=[[0,0.5],[1,0.5]];portConstraint=eastwest;" vertex="1" parent="Eqw1G6QDZ1J7UmovNux2-126">
          <mxGeometry y="90" width="180" height="30" as="geometry" />
        </mxCell>
        <mxCell id="Eqw1G6QDZ1J7UmovNux2-134" value="" style="shape=partialRectangle;connectable=0;fillColor=#CFC86B;top=0;left=0;bottom=0;right=0;editable=1;overflow=hidden;strokeColor=#b85450;" vertex="1" parent="Eqw1G6QDZ1J7UmovNux2-133">
          <mxGeometry width="30" height="30" as="geometry">
            <mxRectangle width="30" height="30" as="alternateBounds" />
          </mxGeometry>
        </mxCell>
        <mxCell id="Eqw1G6QDZ1J7UmovNux2-135" value="重要等级分" style="shape=partialRectangle;connectable=0;fillColor=#CFC86B;top=0;left=0;bottom=0;right=0;align=left;spacingLeft=6;overflow=hidden;strokeColor=#b85450;" vertex="1" parent="Eqw1G6QDZ1J7UmovNux2-133">
          <mxGeometry x="30" width="150" height="30" as="geometry">
            <mxRectangle width="150" height="30" as="alternateBounds" />
          </mxGeometry>
        </mxCell>
        <mxCell id="Eqw1G6QDZ1J7UmovNux2-136" value="" style="shape=partialRectangle;collapsible=0;dropTarget=0;pointerEvents=0;fillColor=#CFC86B;top=0;left=0;bottom=0;right=0;points=[[0,0.5],[1,0.5]];portConstraint=eastwest;" vertex="1" parent="Eqw1G6QDZ1J7UmovNux2-126">
          <mxGeometry y="120" width="180" height="30" as="geometry" />
        </mxCell>
        <mxCell id="Eqw1G6QDZ1J7UmovNux2-137" value="" style="shape=partialRectangle;connectable=0;fillColor=#CFC86B;top=0;left=0;bottom=0;right=0;editable=1;overflow=hidden;strokeColor=#b85450;" vertex="1" parent="Eqw1G6QDZ1J7UmovNux2-136">
          <mxGeometry width="30" height="30" as="geometry">
            <mxRectangle width="30" height="30" as="alternateBounds" />
          </mxGeometry>
        </mxCell>
        <mxCell id="Eqw1G6QDZ1J7UmovNux2-138" value="重要等级备注" style="shape=partialRectangle;connectable=0;fillColor=#CFC86B;top=0;left=0;bottom=0;right=0;align=left;spacingLeft=6;overflow=hidden;strokeColor=#b85450;" vertex="1" parent="Eqw1G6QDZ1J7UmovNux2-136">
          <mxGeometry x="30" width="150" height="30" as="geometry">
            <mxRectangle width="150" height="30" as="alternateBounds" />
          </mxGeometry>
        </mxCell>
        <mxCell id="Eqw1G6QDZ1J7UmovNux2-139" value="" style="shape=partialRectangle;collapsible=0;dropTarget=0;pointerEvents=0;fillColor=#CFC86B;top=0;left=0;bottom=0;right=0;points=[[0,0.5],[1,0.5]];portConstraint=eastwest;" vertex="1" parent="Eqw1G6QDZ1J7UmovNux2-126">
          <mxGeometry y="150" width="180" height="30" as="geometry" />
        </mxCell>
        <mxCell id="Eqw1G6QDZ1J7UmovNux2-140" value="" style="shape=partialRectangle;connectable=0;fillColor=#CFC86B;top=0;left=0;bottom=0;right=0;editable=1;overflow=hidden;strokeColor=#b85450;" vertex="1" parent="Eqw1G6QDZ1J7UmovNux2-139">
          <mxGeometry width="30" height="30" as="geometry">
            <mxRectangle width="30" height="30" as="alternateBounds" />
          </mxGeometry>
        </mxCell>
        <mxCell id="Eqw1G6QDZ1J7UmovNux2-141" value="FTR件数分" style="shape=partialRectangle;connectable=0;fillColor=#CFC86B;top=0;left=0;bottom=0;right=0;align=left;spacingLeft=6;overflow=hidden;strokeColor=#b85450;" vertex="1" parent="Eqw1G6QDZ1J7UmovNux2-139">
          <mxGeometry x="30" width="150" height="30" as="geometry">
            <mxRectangle width="150" height="30" as="alternateBounds" />
          </mxGeometry>
        </mxCell>
        <mxCell id="Eqw1G6QDZ1J7UmovNux2-142" value="" style="shape=partialRectangle;collapsible=0;dropTarget=0;pointerEvents=0;fillColor=#CFC86B;top=0;left=0;bottom=0;right=0;points=[[0,0.5],[1,0.5]];portConstraint=eastwest;" vertex="1" parent="Eqw1G6QDZ1J7UmovNux2-126">
          <mxGeometry y="180" width="180" height="30" as="geometry" />
        </mxCell>
        <mxCell id="Eqw1G6QDZ1J7UmovNux2-143" value="" style="shape=partialRectangle;connectable=0;fillColor=#CFC86B;top=0;left=0;bottom=0;right=0;editable=1;overflow=hidden;strokeColor=#b85450;" vertex="1" parent="Eqw1G6QDZ1J7UmovNux2-142">
          <mxGeometry width="30" height="30" as="geometry">
            <mxRectangle width="30" height="30" as="alternateBounds" />
          </mxGeometry>
        </mxCell>
        <mxCell id="Eqw1G6QDZ1J7UmovNux2-144" value="FTR件数备注" style="shape=partialRectangle;connectable=0;fillColor=#CFC86B;top=0;left=0;bottom=0;right=0;align=left;spacingLeft=6;overflow=hidden;strokeColor=#b85450;" vertex="1" parent="Eqw1G6QDZ1J7UmovNux2-142">
          <mxGeometry x="30" width="150" height="30" as="geometry">
            <mxRectangle width="150" height="30" as="alternateBounds" />
          </mxGeometry>
        </mxCell>
        <mxCell id="Eqw1G6QDZ1J7UmovNux2-145" value="" style="shape=partialRectangle;collapsible=0;dropTarget=0;pointerEvents=0;fillColor=#CFC86B;top=0;left=0;bottom=0;right=0;points=[[0,0.5],[1,0.5]];portConstraint=eastwest;" vertex="1" parent="Eqw1G6QDZ1J7UmovNux2-126">
          <mxGeometry y="210" width="180" height="30" as="geometry" />
        </mxCell>
        <mxCell id="Eqw1G6QDZ1J7UmovNux2-146" value="&#xa;&#xa;&lt;span style=&quot;color: rgb(0, 0, 0); font-family: helvetica; font-size: 12px; font-style: normal; font-weight: 400; letter-spacing: normal; text-align: left; text-indent: 0px; text-transform: none; word-spacing: 0px; background-color: rgb(248, 249, 250); display: inline; float: none;&quot;&gt;重要等&lt;/span&gt;&#xa;&#xa;" style="shape=partialRectangle;connectable=0;fillColor=#CFC86B;top=0;left=0;bottom=0;right=0;editable=1;overflow=hidden;strokeColor=#b85450;" vertex="1" parent="Eqw1G6QDZ1J7UmovNux2-145">
          <mxGeometry width="30" height="30" as="geometry">
            <mxRectangle width="30" height="30" as="alternateBounds" />
          </mxGeometry>
        </mxCell>
        <mxCell id="Eqw1G6QDZ1J7UmovNux2-147" value="不良发生总件数分" style="shape=partialRectangle;connectable=0;fillColor=#CFC86B;top=0;left=0;bottom=0;right=0;align=left;spacingLeft=6;overflow=hidden;strokeColor=#b85450;" vertex="1" parent="Eqw1G6QDZ1J7UmovNux2-145">
          <mxGeometry x="30" width="150" height="30" as="geometry">
            <mxRectangle width="150" height="30" as="alternateBounds" />
          </mxGeometry>
        </mxCell>
        <mxCell id="Eqw1G6QDZ1J7UmovNux2-148" value="" style="shape=partialRectangle;collapsible=0;dropTarget=0;pointerEvents=0;fillColor=#CFC86B;top=0;left=0;bottom=0;right=0;points=[[0,0.5],[1,0.5]];portConstraint=eastwest;" vertex="1" parent="Eqw1G6QDZ1J7UmovNux2-126">
          <mxGeometry y="240" width="180" height="30" as="geometry" />
        </mxCell>
        <mxCell id="Eqw1G6QDZ1J7UmovNux2-149" value="" style="shape=partialRectangle;connectable=0;fillColor=#CFC86B;top=0;left=0;bottom=0;right=0;editable=1;overflow=hidden;strokeColor=#b85450;" vertex="1" parent="Eqw1G6QDZ1J7UmovNux2-148">
          <mxGeometry width="30" height="30" as="geometry">
            <mxRectangle width="30" height="30" as="alternateBounds" />
          </mxGeometry>
        </mxCell>
        <mxCell id="Eqw1G6QDZ1J7UmovNux2-150" value="不良发生总件数备注" style="shape=partialRectangle;connectable=0;fillColor=#CFC86B;top=0;left=0;bottom=0;right=0;align=left;spacingLeft=6;overflow=hidden;strokeColor=#b85450;" vertex="1" parent="Eqw1G6QDZ1J7UmovNux2-148">
          <mxGeometry x="30" width="150" height="30" as="geometry">
            <mxRectangle width="150" height="30" as="alternateBounds" />
          </mxGeometry>
        </mxCell>
        <mxCell id="Eqw1G6QDZ1J7UmovNux2-151" value="" style="shape=partialRectangle;collapsible=0;dropTarget=0;pointerEvents=0;fillColor=#CFC86B;top=0;left=0;bottom=0;right=0;points=[[0,0.5],[1,0.5]];portConstraint=eastwest;" vertex="1" parent="Eqw1G6QDZ1J7UmovNux2-126">
          <mxGeometry y="270" width="180" height="30" as="geometry" />
        </mxCell>
        <mxCell id="Eqw1G6QDZ1J7UmovNux2-152" value="" style="shape=partialRectangle;connectable=0;fillColor=#CFC86B;top=0;left=0;bottom=0;right=0;editable=1;overflow=hidden;strokeColor=#b85450;" vertex="1" parent="Eqw1G6QDZ1J7UmovNux2-151">
          <mxGeometry width="30" height="30" as="geometry">
            <mxRectangle width="30" height="30" as="alternateBounds" />
          </mxGeometry>
        </mxCell>
        <mxCell id="Eqw1G6QDZ1J7UmovNux2-153" value="最近一年旧件解析数" style="shape=partialRectangle;connectable=0;fillColor=#CFC86B;top=0;left=0;bottom=0;right=0;align=left;spacingLeft=6;overflow=hidden;strokeColor=#b85450;" vertex="1" parent="Eqw1G6QDZ1J7UmovNux2-151">
          <mxGeometry x="30" width="150" height="30" as="geometry">
            <mxRectangle width="150" height="30" as="alternateBounds" />
          </mxGeometry>
        </mxCell>
        <mxCell id="Eqw1G6QDZ1J7UmovNux2-154" value="" style="shape=partialRectangle;collapsible=0;dropTarget=0;pointerEvents=0;fillColor=#CFC86B;top=0;left=0;bottom=0;right=0;points=[[0,0.5],[1,0.5]];portConstraint=eastwest;" vertex="1" parent="Eqw1G6QDZ1J7UmovNux2-126">
          <mxGeometry y="300" width="180" height="40" as="geometry" />
        </mxCell>
        <mxCell id="Eqw1G6QDZ1J7UmovNux2-155" value="" style="shape=partialRectangle;connectable=0;fillColor=#CFC86B;top=0;left=0;bottom=0;right=0;editable=1;overflow=hidden;strokeColor=#b85450;" vertex="1" parent="Eqw1G6QDZ1J7UmovNux2-154">
          <mxGeometry width="30" height="40" as="geometry">
            <mxRectangle width="30" height="40" as="alternateBounds" />
          </mxGeometry>
        </mxCell>
        <mxCell id="Eqw1G6QDZ1J7UmovNux2-156" value="NTF数量" style="shape=partialRectangle;connectable=0;fillColor=#CFC86B;top=0;left=0;bottom=0;right=0;align=left;spacingLeft=6;overflow=hidden;strokeColor=#b85450;" vertex="1" parent="Eqw1G6QDZ1J7UmovNux2-154">
          <mxGeometry x="30" width="150" height="40" as="geometry">
            <mxRectangle width="150" height="40" as="alternateBounds" />
          </mxGeometry>
        </mxCell>
        <mxCell id="Eqw1G6QDZ1J7UmovNux2-157" value="" style="shape=partialRectangle;collapsible=0;dropTarget=0;pointerEvents=0;fillColor=#CFC86B;top=0;left=0;bottom=0;right=0;points=[[0,0.5],[1,0.5]];portConstraint=eastwest;" vertex="1" parent="Eqw1G6QDZ1J7UmovNux2-126">
          <mxGeometry y="340" width="180" height="30" as="geometry" />
        </mxCell>
        <mxCell id="Eqw1G6QDZ1J7UmovNux2-158" value="" style="shape=partialRectangle;connectable=0;fillColor=#CFC86B;top=0;left=0;bottom=0;right=0;editable=1;overflow=hidden;strokeColor=#b85450;" vertex="1" parent="Eqw1G6QDZ1J7UmovNux2-157">
          <mxGeometry width="30" height="30" as="geometry">
            <mxRectangle width="30" height="30" as="alternateBounds" />
          </mxGeometry>
        </mxCell>
        <mxCell id="Eqw1G6QDZ1J7UmovNux2-159" value="发生贫率分" style="shape=partialRectangle;connectable=0;fillColor=#CFC86B;top=0;left=0;bottom=0;right=0;align=left;spacingLeft=6;overflow=hidden;strokeColor=#b85450;" vertex="1" parent="Eqw1G6QDZ1J7UmovNux2-157">
          <mxGeometry x="30" width="150" height="30" as="geometry">
            <mxRectangle width="150" height="30" as="alternateBounds" />
          </mxGeometry>
        </mxCell>
        <mxCell id="Eqw1G6QDZ1J7UmovNux2-160" value="" style="shape=partialRectangle;collapsible=0;dropTarget=0;pointerEvents=0;fillColor=#CFC86B;top=0;left=0;bottom=0;right=0;points=[[0,0.5],[1,0.5]];portConstraint=eastwest;" vertex="1" parent="Eqw1G6QDZ1J7UmovNux2-126">
          <mxGeometry y="370" width="180" height="30" as="geometry" />
        </mxCell>
        <mxCell id="Eqw1G6QDZ1J7UmovNux2-161" value="" style="shape=partialRectangle;connectable=0;fillColor=#CFC86B;top=0;left=0;bottom=0;right=0;editable=1;overflow=hidden;strokeColor=#b85450;" vertex="1" parent="Eqw1G6QDZ1J7UmovNux2-160">
          <mxGeometry width="30" height="30" as="geometry">
            <mxRectangle width="30" height="30" as="alternateBounds" />
          </mxGeometry>
        </mxCell>
        <mxCell id="Eqw1G6QDZ1J7UmovNux2-162" value="发生贫备注" style="shape=partialRectangle;connectable=0;fillColor=#CFC86B;top=0;left=0;bottom=0;right=0;align=left;spacingLeft=6;overflow=hidden;strokeColor=#b85450;" vertex="1" parent="Eqw1G6QDZ1J7UmovNux2-160">
          <mxGeometry x="30" width="150" height="30" as="geometry">
            <mxRectangle width="150" height="30" as="alternateBounds" />
          </mxGeometry>
        </mxCell>
        <mxCell id="Eqw1G6QDZ1J7UmovNux2-163" value="" style="shape=partialRectangle;collapsible=0;dropTarget=0;pointerEvents=0;fillColor=#CFC86B;top=0;left=0;bottom=0;right=0;points=[[0,0.5],[1,0.5]];portConstraint=eastwest;" vertex="1" parent="Eqw1G6QDZ1J7UmovNux2-126">
          <mxGeometry y="400" width="180" height="30" as="geometry" />
        </mxCell>
        <mxCell id="Eqw1G6QDZ1J7UmovNux2-164" value="" style="shape=partialRectangle;connectable=0;fillColor=#CFC86B;top=0;left=0;bottom=0;right=0;editable=1;overflow=hidden;strokeColor=#b85450;" vertex="1" parent="Eqw1G6QDZ1J7UmovNux2-163">
          <mxGeometry width="30" height="30" as="geometry">
            <mxRectangle width="30" height="30" as="alternateBounds" />
          </mxGeometry>
        </mxCell>
        <mxCell id="Eqw1G6QDZ1J7UmovNux2-165" value="改良后再发分" style="shape=partialRectangle;connectable=0;fillColor=#CFC86B;top=0;left=0;bottom=0;right=0;align=left;spacingLeft=6;overflow=hidden;strokeColor=#b85450;" vertex="1" parent="Eqw1G6QDZ1J7UmovNux2-163">
          <mxGeometry x="30" width="150" height="30" as="geometry">
            <mxRectangle width="150" height="30" as="alternateBounds" />
          </mxGeometry>
        </mxCell>
        <mxCell id="Eqw1G6QDZ1J7UmovNux2-166" value="" style="shape=partialRectangle;collapsible=0;dropTarget=0;pointerEvents=0;fillColor=#CFC86B;top=0;left=0;bottom=0;right=0;points=[[0,0.5],[1,0.5]];portConstraint=eastwest;" vertex="1" parent="Eqw1G6QDZ1J7UmovNux2-126">
          <mxGeometry y="430" width="180" height="30" as="geometry" />
        </mxCell>
        <mxCell id="Eqw1G6QDZ1J7UmovNux2-167" value="" style="shape=partialRectangle;connectable=0;fillColor=#CFC86B;top=0;left=0;bottom=0;right=0;editable=1;overflow=hidden;strokeColor=#b85450;" vertex="1" parent="Eqw1G6QDZ1J7UmovNux2-166">
          <mxGeometry width="30" height="30" as="geometry">
            <mxRectangle width="30" height="30" as="alternateBounds" />
          </mxGeometry>
        </mxCell>
        <mxCell id="Eqw1G6QDZ1J7UmovNux2-168" value="改良后再发备注" style="shape=partialRectangle;connectable=0;fillColor=#CFC86B;top=0;left=0;bottom=0;right=0;align=left;spacingLeft=6;overflow=hidden;strokeColor=#b85450;" vertex="1" parent="Eqw1G6QDZ1J7UmovNux2-166">
          <mxGeometry x="30" width="150" height="30" as="geometry">
            <mxRectangle width="150" height="30" as="alternateBounds" />
          </mxGeometry>
        </mxCell>
        <mxCell id="Eqw1G6QDZ1J7UmovNux2-169" value="" style="shape=partialRectangle;collapsible=0;dropTarget=0;pointerEvents=0;fillColor=#CFC86B;top=0;left=0;bottom=0;right=0;points=[[0,0.5],[1,0.5]];portConstraint=eastwest;" vertex="1" parent="Eqw1G6QDZ1J7UmovNux2-126">
          <mxGeometry y="460" width="180" height="30" as="geometry" />
        </mxCell>
        <mxCell id="Eqw1G6QDZ1J7UmovNux2-170" value="" style="shape=partialRectangle;connectable=0;fillColor=#CFC86B;top=0;left=0;bottom=0;right=0;editable=1;overflow=hidden;strokeColor=#b85450;" vertex="1" parent="Eqw1G6QDZ1J7UmovNux2-169">
          <mxGeometry width="30" height="30" as="geometry">
            <mxRectangle width="30" height="30" as="alternateBounds" />
          </mxGeometry>
        </mxCell>
        <mxCell id="Eqw1G6QDZ1J7UmovNux2-171" value="TOTAL" style="shape=partialRectangle;connectable=0;fillColor=#CFC86B;top=0;left=0;bottom=0;right=0;align=left;spacingLeft=6;overflow=hidden;strokeColor=#b85450;" vertex="1" parent="Eqw1G6QDZ1J7UmovNux2-169">
          <mxGeometry x="30" width="150" height="30" as="geometry">
            <mxRectangle width="150" height="30" as="alternateBounds" />
          </mxGeometry>
        </mxCell>
        <mxCell id="Eqw1G6QDZ1J7UmovNux2-172" value="" style="shape=partialRectangle;collapsible=0;dropTarget=0;pointerEvents=0;fillColor=#CFC86B;top=0;left=0;bottom=0;right=0;points=[[0,0.5],[1,0.5]];portConstraint=eastwest;" vertex="1" parent="Eqw1G6QDZ1J7UmovNux2-126">
          <mxGeometry y="490" width="180" height="30" as="geometry" />
        </mxCell>
        <mxCell id="Eqw1G6QDZ1J7UmovNux2-173" value="" style="shape=partialRectangle;connectable=0;fillColor=#CFC86B;top=0;left=0;bottom=0;right=0;editable=1;overflow=hidden;strokeColor=#b85450;" vertex="1" parent="Eqw1G6QDZ1J7UmovNux2-172">
          <mxGeometry width="30" height="30" as="geometry">
            <mxRectangle width="30" height="30" as="alternateBounds" />
          </mxGeometry>
        </mxCell>
        <mxCell id="Eqw1G6QDZ1J7UmovNux2-174" value="问卷模板" style="shape=partialRectangle;connectable=0;fillColor=#CFC86B;top=0;left=0;bottom=0;right=0;align=left;spacingLeft=6;overflow=hidden;strokeColor=#b85450;" vertex="1" parent="Eqw1G6QDZ1J7UmovNux2-172">
          <mxGeometry x="30" width="150" height="30" as="geometry">
            <mxRectangle width="150" height="30" as="alternateBounds" />
          </mxGeometry>
        </mxCell>
        <mxCell id="Eqw1G6QDZ1J7UmovNux2-175" value="" style="shape=partialRectangle;collapsible=0;dropTarget=0;pointerEvents=0;fillColor=#CFC86B;top=0;left=0;bottom=0;right=0;points=[[0,0.5],[1,0.5]];portConstraint=eastwest;" vertex="1" parent="Eqw1G6QDZ1J7UmovNux2-126">
          <mxGeometry y="520" width="180" height="30" as="geometry" />
        </mxCell>
        <mxCell id="Eqw1G6QDZ1J7UmovNux2-176" value="" style="shape=partialRectangle;connectable=0;fillColor=#CFC86B;top=0;left=0;bottom=0;right=0;editable=1;overflow=hidden;strokeColor=#b85450;" vertex="1" parent="Eqw1G6QDZ1J7UmovNux2-175">
          <mxGeometry width="30" height="30" as="geometry">
            <mxRectangle width="30" height="30" as="alternateBounds" />
          </mxGeometry>
        </mxCell>
        <mxCell id="Eqw1G6QDZ1J7UmovNux2-177" value="其他附件" style="shape=partialRectangle;connectable=0;fillColor=#CFC86B;top=0;left=0;bottom=0;right=0;align=left;spacingLeft=6;overflow=hidden;strokeColor=#b85450;" vertex="1" parent="Eqw1G6QDZ1J7UmovNux2-175">
          <mxGeometry x="30" width="150" height="30" as="geometry">
            <mxRectangle width="150" height="30" as="alternateBounds" />
          </mxGeometry>
        </mxCell>
        <mxCell id="Eqw1G6QDZ1J7UmovNux2-178" value="" style="shape=partialRectangle;collapsible=0;dropTarget=0;pointerEvents=0;fillColor=#CFC86B;top=0;left=0;bottom=0;right=0;points=[[0,0.5],[1,0.5]];portConstraint=eastwest;" vertex="1" parent="Eqw1G6QDZ1J7UmovNux2-126">
          <mxGeometry y="550" width="180" height="30" as="geometry" />
        </mxCell>
        <mxCell id="Eqw1G6QDZ1J7UmovNux2-179" value="" style="shape=partialRectangle;connectable=0;fillColor=#CFC86B;top=0;left=0;bottom=0;right=0;editable=1;overflow=hidden;strokeColor=#b85450;" vertex="1" parent="Eqw1G6QDZ1J7UmovNux2-178">
          <mxGeometry width="30" height="30" as="geometry">
            <mxRectangle width="30" height="30" as="alternateBounds" />
          </mxGeometry>
        </mxCell>
        <mxCell id="Eqw1G6QDZ1J7UmovNux2-180" value="解析报告" style="shape=partialRectangle;connectable=0;fillColor=#CFC86B;top=0;left=0;bottom=0;right=0;align=left;spacingLeft=6;overflow=hidden;strokeColor=#b85450;" vertex="1" parent="Eqw1G6QDZ1J7UmovNux2-178">
          <mxGeometry x="30" width="150" height="30" as="geometry">
            <mxRectangle width="150" height="30" as="alternateBounds" />
          </mxGeometry>
        </mxCell>
        <mxCell id="Eqw1G6QDZ1J7UmovNux2-181" value="" style="shape=partialRectangle;collapsible=0;dropTarget=0;pointerEvents=0;fillColor=#CFC86B;top=0;left=0;bottom=0;right=0;points=[[0,0.5],[1,0.5]];portConstraint=eastwest;" vertex="1" parent="Eqw1G6QDZ1J7UmovNux2-126">
          <mxGeometry y="580" width="180" height="30" as="geometry" />
        </mxCell>
        <mxCell id="Eqw1G6QDZ1J7UmovNux2-182" value="" style="shape=partialRectangle;connectable=0;fillColor=#CFC86B;top=0;left=0;bottom=0;right=0;editable=1;overflow=hidden;strokeColor=#b85450;" vertex="1" parent="Eqw1G6QDZ1J7UmovNux2-181">
          <mxGeometry width="30" height="30" as="geometry">
            <mxRectangle width="30" height="30" as="alternateBounds" />
          </mxGeometry>
        </mxCell>
        <mxCell id="Eqw1G6QDZ1J7UmovNux2-183" value="低分现任申请（含签名）" style="shape=partialRectangle;connectable=0;fillColor=#CFC86B;top=0;left=0;bottom=0;right=0;align=left;spacingLeft=6;overflow=hidden;strokeColor=#b85450;" vertex="1" parent="Eqw1G6QDZ1J7UmovNux2-181">
          <mxGeometry x="30" width="150" height="30" as="geometry">
            <mxRectangle width="150" height="30" as="alternateBounds" />
          </mxGeometry>
        </mxCell>
        <mxCell id="Eqw1G6QDZ1J7UmovNux2-184" value="FTE" style="shape=table;startSize=30;container=1;collapsible=1;childLayout=tableLayout;fixedRows=1;rowLines=0;fontStyle=1;align=center;resizeLast=1;fillColor=#FFFA9E;strokeColor=#6c8ebf;" vertex="1" parent="1">
          <mxGeometry x="850" y="-10" width="180" height="90" as="geometry" />
        </mxCell>
        <mxCell id="Eqw1G6QDZ1J7UmovNux2-185" value="" style="shape=partialRectangle;collapsible=0;dropTarget=0;pointerEvents=0;fillColor=#FFFA9E;top=0;left=0;bottom=1;right=0;points=[[0,0.5],[1,0.5]];portConstraint=eastwest;" vertex="1" parent="Eqw1G6QDZ1J7UmovNux2-184">
          <mxGeometry y="30" width="180" height="30" as="geometry" />
        </mxCell>
        <mxCell id="Eqw1G6QDZ1J7UmovNux2-186" value="PK" style="shape=partialRectangle;connectable=0;fillColor=#FFFA9E;top=0;left=0;bottom=0;right=0;fontStyle=1;overflow=hidden;strokeColor=#6c8ebf;" vertex="1" parent="Eqw1G6QDZ1J7UmovNux2-185">
          <mxGeometry width="30" height="30" as="geometry">
            <mxRectangle width="30" height="30" as="alternateBounds" />
          </mxGeometry>
        </mxCell>
        <mxCell id="Eqw1G6QDZ1J7UmovNux2-187" value="ID" style="shape=partialRectangle;connectable=0;fillColor=#FFFA9E;top=0;left=0;bottom=0;right=0;align=left;spacingLeft=6;fontStyle=5;overflow=hidden;strokeColor=#6c8ebf;" vertex="1" parent="Eqw1G6QDZ1J7UmovNux2-185">
          <mxGeometry x="30" width="150" height="30" as="geometry">
            <mxRectangle width="150" height="30" as="alternateBounds" />
          </mxGeometry>
        </mxCell>
        <mxCell id="Eqw1G6QDZ1J7UmovNux2-188" value="" style="shape=partialRectangle;collapsible=0;dropTarget=0;pointerEvents=0;fillColor=#FFFA9E;top=0;left=0;bottom=0;right=0;points=[[0,0.5],[1,0.5]];portConstraint=eastwest;" vertex="1" parent="Eqw1G6QDZ1J7UmovNux2-184">
          <mxGeometry y="60" width="180" height="30" as="geometry" />
        </mxCell>
        <mxCell id="Eqw1G6QDZ1J7UmovNux2-189" value="" style="shape=partialRectangle;connectable=0;fillColor=#FFFA9E;top=0;left=0;bottom=0;right=0;editable=1;overflow=hidden;strokeColor=#6c8ebf;" vertex="1" parent="Eqw1G6QDZ1J7UmovNux2-188">
          <mxGeometry width="30" height="30" as="geometry">
            <mxRectangle width="30" height="30" as="alternateBounds" />
          </mxGeometry>
        </mxCell>
        <mxCell id="Eqw1G6QDZ1J7UmovNux2-190" value="FTE编号" style="shape=partialRectangle;connectable=0;fillColor=#FFFA9E;top=0;left=0;bottom=0;right=0;align=left;spacingLeft=6;overflow=hidden;strokeColor=#6c8ebf;" vertex="1" parent="Eqw1G6QDZ1J7UmovNux2-188">
          <mxGeometry x="30" width="150" height="30" as="geometry">
            <mxRectangle width="150" height="30" as="alternateBounds" />
          </mxGeometry>
        </mxCell>
        <mxCell id="Eqw1G6QDZ1J7UmovNux2-191" value="" style="edgeStyle=entityRelationEdgeStyle;fontSize=12;html=1;endArrow=ERmandOne;startArrow=ERmandOne;rounded=0;exitX=1;exitY=0.5;exitDx=0;exitDy=0;" edge="1" parent="1" source="Eqw1G6QDZ1J7UmovNux2-26">
          <mxGeometry width="100" height="100" relative="1" as="geometry">
            <mxPoint x="750" y="170" as="sourcePoint" />
            <mxPoint x="850" y="70" as="targetPoint" />
          </mxGeometry>
        </mxCell>
        <mxCell id="Eqw1G6QDZ1J7UmovNux2-192" value="" style="edgeStyle=entityRelationEdgeStyle;fontSize=12;html=1;endArrow=ERmandOne;startArrow=ERmandOne;rounded=0;" edge="1" parent="1">
          <mxGeometry width="100" height="100" relative="1" as="geometry">
            <mxPoint x="740" y="270" as="sourcePoint" />
            <mxPoint x="870" y="510" as="targetPoint" />
          </mxGeometry>
        </mxCell>
        <mxCell id="Eqw1G6QDZ1J7UmovNux2-193" value="案件记录表" style="shape=table;startSize=30;container=1;collapsible=1;childLayout=tableLayout;fixedRows=1;rowLines=0;fontStyle=1;align=center;resizeLast=1;fillColor=#CFC86B;strokeColor=#6c8ebf;" vertex="1" parent="1">
          <mxGeometry x="270" y="720" width="180" height="210" as="geometry" />
        </mxCell>
        <mxCell id="Eqw1G6QDZ1J7UmovNux2-194" value="" style="shape=partialRectangle;collapsible=0;dropTarget=0;pointerEvents=0;fillColor=#CFC86B;top=0;left=0;bottom=1;right=0;points=[[0,0.5],[1,0.5]];portConstraint=eastwest;" vertex="1" parent="Eqw1G6QDZ1J7UmovNux2-193">
          <mxGeometry y="30" width="180" height="30" as="geometry" />
        </mxCell>
        <mxCell id="Eqw1G6QDZ1J7UmovNux2-195" value="PK" style="shape=partialRectangle;connectable=0;fillColor=#CFC86B;top=0;left=0;bottom=0;right=0;fontStyle=1;overflow=hidden;strokeColor=#6c8ebf;" vertex="1" parent="Eqw1G6QDZ1J7UmovNux2-194">
          <mxGeometry width="30" height="30" as="geometry">
            <mxRectangle width="30" height="30" as="alternateBounds" />
          </mxGeometry>
        </mxCell>
        <mxCell id="Eqw1G6QDZ1J7UmovNux2-196" value="ID" style="shape=partialRectangle;connectable=0;fillColor=#CFC86B;top=0;left=0;bottom=0;right=0;align=left;spacingLeft=6;fontStyle=5;overflow=hidden;strokeColor=#6c8ebf;" vertex="1" parent="Eqw1G6QDZ1J7UmovNux2-194">
          <mxGeometry x="30" width="150" height="30" as="geometry">
            <mxRectangle width="150" height="30" as="alternateBounds" />
          </mxGeometry>
        </mxCell>
        <mxCell id="Eqw1G6QDZ1J7UmovNux2-197" value="" style="shape=partialRectangle;collapsible=0;dropTarget=0;pointerEvents=0;fillColor=#CFC86B;top=0;left=0;bottom=0;right=0;points=[[0,0.5],[1,0.5]];portConstraint=eastwest;" vertex="1" parent="Eqw1G6QDZ1J7UmovNux2-193">
          <mxGeometry y="60" width="180" height="30" as="geometry" />
        </mxCell>
        <mxCell id="Eqw1G6QDZ1J7UmovNux2-198" value="" style="shape=partialRectangle;connectable=0;fillColor=#CFC86B;top=0;left=0;bottom=0;right=0;editable=1;overflow=hidden;strokeColor=#6c8ebf;" vertex="1" parent="Eqw1G6QDZ1J7UmovNux2-197">
          <mxGeometry width="30" height="30" as="geometry">
            <mxRectangle width="30" height="30" as="alternateBounds" />
          </mxGeometry>
        </mxCell>
        <mxCell id="Eqw1G6QDZ1J7UmovNux2-199" value="案件码" style="shape=partialRectangle;connectable=0;fillColor=#CFC86B;top=0;left=0;bottom=0;right=0;align=left;spacingLeft=6;overflow=hidden;strokeColor=#6c8ebf;" vertex="1" parent="Eqw1G6QDZ1J7UmovNux2-197">
          <mxGeometry x="30" width="150" height="30" as="geometry">
            <mxRectangle width="150" height="30" as="alternateBounds" />
          </mxGeometry>
        </mxCell>
        <mxCell id="Eqw1G6QDZ1J7UmovNux2-200" value="" style="shape=partialRectangle;collapsible=0;dropTarget=0;pointerEvents=0;fillColor=#CFC86B;top=0;left=0;bottom=0;right=0;points=[[0,0.5],[1,0.5]];portConstraint=eastwest;" vertex="1" parent="Eqw1G6QDZ1J7UmovNux2-193">
          <mxGeometry y="90" width="180" height="30" as="geometry" />
        </mxCell>
        <mxCell id="Eqw1G6QDZ1J7UmovNux2-201" value="" style="shape=partialRectangle;connectable=0;fillColor=#CFC86B;top=0;left=0;bottom=0;right=0;editable=1;overflow=hidden;strokeColor=#6c8ebf;" vertex="1" parent="Eqw1G6QDZ1J7UmovNux2-200">
          <mxGeometry width="30" height="30" as="geometry">
            <mxRectangle width="30" height="30" as="alternateBounds" />
          </mxGeometry>
        </mxCell>
        <mxCell id="Eqw1G6QDZ1J7UmovNux2-202" value="操作人" style="shape=partialRectangle;connectable=0;fillColor=#CFC86B;top=0;left=0;bottom=0;right=0;align=left;spacingLeft=6;overflow=hidden;strokeColor=#6c8ebf;" vertex="1" parent="Eqw1G6QDZ1J7UmovNux2-200">
          <mxGeometry x="30" width="150" height="30" as="geometry">
            <mxRectangle width="150" height="30" as="alternateBounds" />
          </mxGeometry>
        </mxCell>
        <mxCell id="Eqw1G6QDZ1J7UmovNux2-203" value="" style="shape=partialRectangle;collapsible=0;dropTarget=0;pointerEvents=0;fillColor=#CFC86B;top=0;left=0;bottom=0;right=0;points=[[0,0.5],[1,0.5]];portConstraint=eastwest;" vertex="1" parent="Eqw1G6QDZ1J7UmovNux2-193">
          <mxGeometry y="120" width="180" height="30" as="geometry" />
        </mxCell>
        <mxCell id="Eqw1G6QDZ1J7UmovNux2-204" value="" style="shape=partialRectangle;connectable=0;fillColor=#CFC86B;top=0;left=0;bottom=0;right=0;editable=1;overflow=hidden;strokeColor=#6c8ebf;" vertex="1" parent="Eqw1G6QDZ1J7UmovNux2-203">
          <mxGeometry width="30" height="30" as="geometry">
            <mxRectangle width="30" height="30" as="alternateBounds" />
          </mxGeometry>
        </mxCell>
        <mxCell id="Eqw1G6QDZ1J7UmovNux2-205" value="操作内容" style="shape=partialRectangle;connectable=0;fillColor=#CFC86B;top=0;left=0;bottom=0;right=0;align=left;spacingLeft=6;overflow=hidden;strokeColor=#6c8ebf;" vertex="1" parent="Eqw1G6QDZ1J7UmovNux2-203">
          <mxGeometry x="30" width="150" height="30" as="geometry">
            <mxRectangle width="150" height="30" as="alternateBounds" />
          </mxGeometry>
        </mxCell>
        <mxCell id="Eqw1G6QDZ1J7UmovNux2-206" value="" style="shape=partialRectangle;collapsible=0;dropTarget=0;pointerEvents=0;fillColor=#CFC86B;top=0;left=0;bottom=0;right=0;points=[[0,0.5],[1,0.5]];portConstraint=eastwest;" vertex="1" parent="Eqw1G6QDZ1J7UmovNux2-193">
          <mxGeometry y="150" width="180" height="30" as="geometry" />
        </mxCell>
        <mxCell id="Eqw1G6QDZ1J7UmovNux2-207" value="" style="shape=partialRectangle;connectable=0;fillColor=#CFC86B;top=0;left=0;bottom=0;right=0;editable=1;overflow=hidden;strokeColor=#6c8ebf;" vertex="1" parent="Eqw1G6QDZ1J7UmovNux2-206">
          <mxGeometry width="30" height="30" as="geometry">
            <mxRectangle width="30" height="30" as="alternateBounds" />
          </mxGeometry>
        </mxCell>
        <mxCell id="Eqw1G6QDZ1J7UmovNux2-208" value="操作原因" style="shape=partialRectangle;connectable=0;fillColor=#CFC86B;top=0;left=0;bottom=0;right=0;align=left;spacingLeft=6;overflow=hidden;strokeColor=#6c8ebf;" vertex="1" parent="Eqw1G6QDZ1J7UmovNux2-206">
          <mxGeometry x="30" width="150" height="30" as="geometry">
            <mxRectangle width="150" height="30" as="alternateBounds" />
          </mxGeometry>
        </mxCell>
        <mxCell id="Eqw1G6QDZ1J7UmovNux2-209" value="" style="shape=partialRectangle;collapsible=0;dropTarget=0;pointerEvents=0;fillColor=#CFC86B;top=0;left=0;bottom=0;right=0;points=[[0,0.5],[1,0.5]];portConstraint=eastwest;" vertex="1" parent="Eqw1G6QDZ1J7UmovNux2-193">
          <mxGeometry y="180" width="180" height="30" as="geometry" />
        </mxCell>
        <mxCell id="Eqw1G6QDZ1J7UmovNux2-210" value="" style="shape=partialRectangle;connectable=0;fillColor=#CFC86B;top=0;left=0;bottom=0;right=0;editable=1;overflow=hidden;strokeColor=#6c8ebf;" vertex="1" parent="Eqw1G6QDZ1J7UmovNux2-209">
          <mxGeometry width="30" height="30" as="geometry">
            <mxRectangle width="30" height="30" as="alternateBounds" />
          </mxGeometry>
        </mxCell>
        <mxCell id="Eqw1G6QDZ1J7UmovNux2-211" value="操作时间" style="shape=partialRectangle;connectable=0;fillColor=#CFC86B;top=0;left=0;bottom=0;right=0;align=left;spacingLeft=6;overflow=hidden;strokeColor=#6c8ebf;" vertex="1" parent="Eqw1G6QDZ1J7UmovNux2-209">
          <mxGeometry x="30" width="150" height="30" as="geometry">
            <mxRectangle width="150" height="30" as="alternateBounds" />
          </mxGeometry>
        </mxCell>
        <mxCell id="Eqw1G6QDZ1J7UmovNux2-212" value="" style="edgeStyle=entityRelationEdgeStyle;fontSize=12;html=1;endArrow=ERmandOne;startArrow=ERmandOne;rounded=0;entryX=0;entryY=0.5;entryDx=0;entryDy=0;" edge="1" parent="1" target="Eqw1G6QDZ1J7UmovNux2-5">
          <mxGeometry width="100" height="100" relative="1" as="geometry">
            <mxPoint x="450" y="790" as="sourcePoint" />
            <mxPoint x="550" y="690" as="targetPoint" />
          </mxGeometry>
        </mxCell>
        <mxCell id="Eqw1G6QDZ1J7UmovNux2-213" value="案件反馈申请表" style="shape=table;startSize=30;container=1;collapsible=1;childLayout=tableLayout;fixedRows=1;rowLines=0;fontStyle=1;align=center;resizeLast=1;fillColor=#CFC86B;strokeColor=#b85450;" vertex="1" parent="1">
          <mxGeometry x="220" y="-630" width="180" height="720" as="geometry" />
        </mxCell>
        <mxCell id="Eqw1G6QDZ1J7UmovNux2-214" value="" style="shape=partialRectangle;collapsible=0;dropTarget=0;pointerEvents=0;fillColor=#CFC86B;top=0;left=0;bottom=1;right=0;points=[[0,0.5],[1,0.5]];portConstraint=eastwest;" vertex="1" parent="Eqw1G6QDZ1J7UmovNux2-213">
          <mxGeometry y="30" width="180" height="30" as="geometry" />
        </mxCell>
        <mxCell id="Eqw1G6QDZ1J7UmovNux2-215" value="PK" style="shape=partialRectangle;connectable=0;fillColor=#CFC86B;top=0;left=0;bottom=0;right=0;fontStyle=1;overflow=hidden;strokeColor=#b85450;" vertex="1" parent="Eqw1G6QDZ1J7UmovNux2-214">
          <mxGeometry width="30" height="30" as="geometry">
            <mxRectangle width="30" height="30" as="alternateBounds" />
          </mxGeometry>
        </mxCell>
        <mxCell id="Eqw1G6QDZ1J7UmovNux2-216" value="ID" style="shape=partialRectangle;connectable=0;fillColor=#CFC86B;top=0;left=0;bottom=0;right=0;align=left;spacingLeft=6;fontStyle=5;overflow=hidden;strokeColor=#b85450;" vertex="1" parent="Eqw1G6QDZ1J7UmovNux2-214">
          <mxGeometry x="30" width="150" height="30" as="geometry">
            <mxRectangle width="150" height="30" as="alternateBounds" />
          </mxGeometry>
        </mxCell>
        <mxCell id="Eqw1G6QDZ1J7UmovNux2-217" value="" style="shape=partialRectangle;collapsible=0;dropTarget=0;pointerEvents=0;fillColor=#CFC86B;top=0;left=0;bottom=0;right=0;points=[[0,0.5],[1,0.5]];portConstraint=eastwest;" vertex="1" parent="Eqw1G6QDZ1J7UmovNux2-213">
          <mxGeometry y="60" width="180" height="30" as="geometry" />
        </mxCell>
        <mxCell id="Eqw1G6QDZ1J7UmovNux2-218" value="" style="shape=partialRectangle;connectable=0;fillColor=#CFC86B;top=0;left=0;bottom=0;right=0;editable=1;overflow=hidden;strokeColor=#b85450;" vertex="1" parent="Eqw1G6QDZ1J7UmovNux2-217">
          <mxGeometry width="30" height="30" as="geometry">
            <mxRectangle width="30" height="30" as="alternateBounds" />
          </mxGeometry>
        </mxCell>
        <mxCell id="Eqw1G6QDZ1J7UmovNux2-219" value="反馈申请编号" style="shape=partialRectangle;connectable=0;fillColor=#CFC86B;top=0;left=0;bottom=0;right=0;align=left;spacingLeft=6;overflow=hidden;strokeColor=#b85450;" vertex="1" parent="Eqw1G6QDZ1J7UmovNux2-217">
          <mxGeometry x="30" width="150" height="30" as="geometry">
            <mxRectangle width="150" height="30" as="alternateBounds" />
          </mxGeometry>
        </mxCell>
        <mxCell id="Eqw1G6QDZ1J7UmovNux2-220" value="" style="shape=partialRectangle;collapsible=0;dropTarget=0;pointerEvents=0;fillColor=#CFC86B;top=0;left=0;bottom=0;right=0;points=[[0,0.5],[1,0.5]];portConstraint=eastwest;" vertex="1" parent="Eqw1G6QDZ1J7UmovNux2-213">
          <mxGeometry y="90" width="180" height="30" as="geometry" />
        </mxCell>
        <mxCell id="Eqw1G6QDZ1J7UmovNux2-221" value="" style="shape=partialRectangle;connectable=0;fillColor=#CFC86B;top=0;left=0;bottom=0;right=0;editable=1;overflow=hidden;strokeColor=#b85450;" vertex="1" parent="Eqw1G6QDZ1J7UmovNux2-220">
          <mxGeometry width="30" height="30" as="geometry">
            <mxRectangle width="30" height="30" as="alternateBounds" />
          </mxGeometry>
        </mxCell>
        <mxCell id="Eqw1G6QDZ1J7UmovNux2-222" value="案件码" style="shape=partialRectangle;connectable=0;fillColor=#CFC86B;top=0;left=0;bottom=0;right=0;align=left;spacingLeft=6;overflow=hidden;strokeColor=#b85450;" vertex="1" parent="Eqw1G6QDZ1J7UmovNux2-220">
          <mxGeometry x="30" width="150" height="30" as="geometry">
            <mxRectangle width="150" height="30" as="alternateBounds" />
          </mxGeometry>
        </mxCell>
        <mxCell id="Eqw1G6QDZ1J7UmovNux2-223" value="" style="shape=partialRectangle;collapsible=0;dropTarget=0;pointerEvents=0;fillColor=#CFC86B;top=0;left=0;bottom=0;right=0;points=[[0,0.5],[1,0.5]];portConstraint=eastwest;" vertex="1" parent="Eqw1G6QDZ1J7UmovNux2-213">
          <mxGeometry y="120" width="180" height="30" as="geometry" />
        </mxCell>
        <mxCell id="Eqw1G6QDZ1J7UmovNux2-224" value="" style="shape=partialRectangle;connectable=0;fillColor=#CFC86B;top=0;left=0;bottom=0;right=0;editable=1;overflow=hidden;strokeColor=#b85450;" vertex="1" parent="Eqw1G6QDZ1J7UmovNux2-223">
          <mxGeometry width="30" height="30" as="geometry">
            <mxRectangle width="30" height="30" as="alternateBounds" />
          </mxGeometry>
        </mxCell>
        <mxCell id="Eqw1G6QDZ1J7UmovNux2-225" value="店代码" style="shape=partialRectangle;connectable=0;fillColor=#CFC86B;top=0;left=0;bottom=0;right=0;align=left;spacingLeft=6;overflow=hidden;strokeColor=#b85450;" vertex="1" parent="Eqw1G6QDZ1J7UmovNux2-223">
          <mxGeometry x="30" width="150" height="30" as="geometry">
            <mxRectangle width="150" height="30" as="alternateBounds" />
          </mxGeometry>
        </mxCell>
        <mxCell id="Eqw1G6QDZ1J7UmovNux2-226" value="" style="shape=partialRectangle;collapsible=0;dropTarget=0;pointerEvents=0;fillColor=#CFC86B;top=0;left=0;bottom=0;right=0;points=[[0,0.5],[1,0.5]];portConstraint=eastwest;" vertex="1" parent="Eqw1G6QDZ1J7UmovNux2-213">
          <mxGeometry y="150" width="180" height="30" as="geometry" />
        </mxCell>
        <mxCell id="Eqw1G6QDZ1J7UmovNux2-227" value="" style="shape=partialRectangle;connectable=0;fillColor=#CFC86B;top=0;left=0;bottom=0;right=0;editable=1;overflow=hidden;strokeColor=#b85450;" vertex="1" parent="Eqw1G6QDZ1J7UmovNux2-226">
          <mxGeometry width="30" height="30" as="geometry">
            <mxRectangle width="30" height="30" as="alternateBounds" />
          </mxGeometry>
        </mxCell>
        <mxCell id="Eqw1G6QDZ1J7UmovNux2-228" value="店名称" style="shape=partialRectangle;connectable=0;fillColor=#CFC86B;top=0;left=0;bottom=0;right=0;align=left;spacingLeft=6;overflow=hidden;strokeColor=#b85450;" vertex="1" parent="Eqw1G6QDZ1J7UmovNux2-226">
          <mxGeometry x="30" width="150" height="30" as="geometry">
            <mxRectangle width="150" height="30" as="alternateBounds" />
          </mxGeometry>
        </mxCell>
        <mxCell id="Eqw1G6QDZ1J7UmovNux2-229" value="" style="shape=partialRectangle;collapsible=0;dropTarget=0;pointerEvents=0;fillColor=#CFC86B;top=0;left=0;bottom=0;right=0;points=[[0,0.5],[1,0.5]];portConstraint=eastwest;" vertex="1" parent="Eqw1G6QDZ1J7UmovNux2-213">
          <mxGeometry y="180" width="180" height="30" as="geometry" />
        </mxCell>
        <mxCell id="Eqw1G6QDZ1J7UmovNux2-230" value="" style="shape=partialRectangle;connectable=0;fillColor=#CFC86B;top=0;left=0;bottom=0;right=0;editable=1;overflow=hidden;strokeColor=#b85450;" vertex="1" parent="Eqw1G6QDZ1J7UmovNux2-229">
          <mxGeometry width="30" height="30" as="geometry">
            <mxRectangle width="30" height="30" as="alternateBounds" />
          </mxGeometry>
        </mxCell>
        <mxCell id="Eqw1G6QDZ1J7UmovNux2-231" value="填表人" style="shape=partialRectangle;connectable=0;fillColor=#CFC86B;top=0;left=0;bottom=0;right=0;align=left;spacingLeft=6;overflow=hidden;strokeColor=#b85450;" vertex="1" parent="Eqw1G6QDZ1J7UmovNux2-229">
          <mxGeometry x="30" width="150" height="30" as="geometry">
            <mxRectangle width="150" height="30" as="alternateBounds" />
          </mxGeometry>
        </mxCell>
        <mxCell id="Eqw1G6QDZ1J7UmovNux2-232" value="" style="shape=partialRectangle;collapsible=0;dropTarget=0;pointerEvents=0;fillColor=#CFC86B;top=0;left=0;bottom=0;right=0;points=[[0,0.5],[1,0.5]];portConstraint=eastwest;" vertex="1" parent="Eqw1G6QDZ1J7UmovNux2-213">
          <mxGeometry y="210" width="180" height="30" as="geometry" />
        </mxCell>
        <mxCell id="Eqw1G6QDZ1J7UmovNux2-233" value="" style="shape=partialRectangle;connectable=0;fillColor=#CFC86B;top=0;left=0;bottom=0;right=0;editable=1;overflow=hidden;strokeColor=#b85450;" vertex="1" parent="Eqw1G6QDZ1J7UmovNux2-232">
          <mxGeometry width="30" height="30" as="geometry">
            <mxRectangle width="30" height="30" as="alternateBounds" />
          </mxGeometry>
        </mxCell>
        <mxCell id="Eqw1G6QDZ1J7UmovNux2-234" value="联系方式" style="shape=partialRectangle;connectable=0;fillColor=#CFC86B;top=0;left=0;bottom=0;right=0;align=left;spacingLeft=6;overflow=hidden;strokeColor=#b85450;" vertex="1" parent="Eqw1G6QDZ1J7UmovNux2-232">
          <mxGeometry x="30" width="150" height="30" as="geometry">
            <mxRectangle width="150" height="30" as="alternateBounds" />
          </mxGeometry>
        </mxCell>
        <mxCell id="Eqw1G6QDZ1J7UmovNux2-235" value="" style="shape=partialRectangle;collapsible=0;dropTarget=0;pointerEvents=0;fillColor=#CFC86B;top=0;left=0;bottom=0;right=0;points=[[0,0.5],[1,0.5]];portConstraint=eastwest;" vertex="1" parent="Eqw1G6QDZ1J7UmovNux2-213">
          <mxGeometry y="240" width="180" height="30" as="geometry" />
        </mxCell>
        <mxCell id="Eqw1G6QDZ1J7UmovNux2-236" value="" style="shape=partialRectangle;connectable=0;fillColor=#CFC86B;top=0;left=0;bottom=0;right=0;editable=1;overflow=hidden;strokeColor=#b85450;" vertex="1" parent="Eqw1G6QDZ1J7UmovNux2-235">
          <mxGeometry width="30" height="30" as="geometry">
            <mxRectangle width="30" height="30" as="alternateBounds" />
          </mxGeometry>
        </mxCell>
        <mxCell id="Eqw1G6QDZ1J7UmovNux2-237" value="填表人联系方式" style="shape=partialRectangle;connectable=0;fillColor=#CFC86B;top=0;left=0;bottom=0;right=0;align=left;spacingLeft=6;overflow=hidden;strokeColor=#b85450;" vertex="1" parent="Eqw1G6QDZ1J7UmovNux2-235">
          <mxGeometry x="30" width="150" height="30" as="geometry">
            <mxRectangle width="150" height="30" as="alternateBounds" />
          </mxGeometry>
        </mxCell>
        <mxCell id="Eqw1G6QDZ1J7UmovNux2-238" value="" style="shape=partialRectangle;collapsible=0;dropTarget=0;pointerEvents=0;fillColor=#CFC86B;top=0;left=0;bottom=0;right=0;points=[[0,0.5],[1,0.5]];portConstraint=eastwest;" vertex="1" parent="Eqw1G6QDZ1J7UmovNux2-213">
          <mxGeometry y="270" width="180" height="30" as="geometry" />
        </mxCell>
        <mxCell id="Eqw1G6QDZ1J7UmovNux2-239" value="" style="shape=partialRectangle;connectable=0;fillColor=#CFC86B;top=0;left=0;bottom=0;right=0;editable=1;overflow=hidden;strokeColor=#b85450;" vertex="1" parent="Eqw1G6QDZ1J7UmovNux2-238">
          <mxGeometry width="30" height="30" as="geometry">
            <mxRectangle width="30" height="30" as="alternateBounds" />
          </mxGeometry>
        </mxCell>
        <mxCell id="Eqw1G6QDZ1J7UmovNux2-240" value="所在地" style="shape=partialRectangle;connectable=0;fillColor=#CFC86B;top=0;left=0;bottom=0;right=0;align=left;spacingLeft=6;overflow=hidden;strokeColor=#b85450;" vertex="1" parent="Eqw1G6QDZ1J7UmovNux2-238">
          <mxGeometry x="30" width="150" height="30" as="geometry">
            <mxRectangle width="150" height="30" as="alternateBounds" />
          </mxGeometry>
        </mxCell>
        <mxCell id="Eqw1G6QDZ1J7UmovNux2-241" value="" style="shape=partialRectangle;collapsible=0;dropTarget=0;pointerEvents=0;fillColor=#CFC86B;top=0;left=0;bottom=0;right=0;points=[[0,0.5],[1,0.5]];portConstraint=eastwest;" vertex="1" parent="Eqw1G6QDZ1J7UmovNux2-213">
          <mxGeometry y="300" width="180" height="30" as="geometry" />
        </mxCell>
        <mxCell id="Eqw1G6QDZ1J7UmovNux2-242" value="" style="shape=partialRectangle;connectable=0;fillColor=#CFC86B;top=0;left=0;bottom=0;right=0;editable=1;overflow=hidden;strokeColor=#b85450;" vertex="1" parent="Eqw1G6QDZ1J7UmovNux2-241">
          <mxGeometry width="30" height="30" as="geometry">
            <mxRectangle width="30" height="30" as="alternateBounds" />
          </mxGeometry>
        </mxCell>
        <mxCell id="Eqw1G6QDZ1J7UmovNux2-243" value="VINNO" style="shape=partialRectangle;connectable=0;fillColor=#CFC86B;top=0;left=0;bottom=0;right=0;align=left;spacingLeft=6;overflow=hidden;strokeColor=#b85450;" vertex="1" parent="Eqw1G6QDZ1J7UmovNux2-241">
          <mxGeometry x="30" width="150" height="30" as="geometry">
            <mxRectangle width="150" height="30" as="alternateBounds" />
          </mxGeometry>
        </mxCell>
        <mxCell id="Eqw1G6QDZ1J7UmovNux2-244" value="" style="shape=partialRectangle;collapsible=0;dropTarget=0;pointerEvents=0;fillColor=#CFC86B;top=0;left=0;bottom=0;right=0;points=[[0,0.5],[1,0.5]];portConstraint=eastwest;" vertex="1" parent="Eqw1G6QDZ1J7UmovNux2-213">
          <mxGeometry y="330" width="180" height="30" as="geometry" />
        </mxCell>
        <mxCell id="Eqw1G6QDZ1J7UmovNux2-245" value="" style="shape=partialRectangle;connectable=0;fillColor=#CFC86B;top=0;left=0;bottom=0;right=0;editable=1;overflow=hidden;strokeColor=#b85450;" vertex="1" parent="Eqw1G6QDZ1J7UmovNux2-244">
          <mxGeometry width="30" height="30" as="geometry">
            <mxRectangle width="30" height="30" as="alternateBounds" />
          </mxGeometry>
        </mxCell>
        <mxCell id="Eqw1G6QDZ1J7UmovNux2-246" value="车型" style="shape=partialRectangle;connectable=0;fillColor=#CFC86B;top=0;left=0;bottom=0;right=0;align=left;spacingLeft=6;overflow=hidden;strokeColor=#b85450;" vertex="1" parent="Eqw1G6QDZ1J7UmovNux2-244">
          <mxGeometry x="30" width="150" height="30" as="geometry">
            <mxRectangle width="150" height="30" as="alternateBounds" />
          </mxGeometry>
        </mxCell>
        <mxCell id="Eqw1G6QDZ1J7UmovNux2-247" value="" style="shape=partialRectangle;collapsible=0;dropTarget=0;pointerEvents=0;fillColor=#CFC86B;top=0;left=0;bottom=0;right=0;points=[[0,0.5],[1,0.5]];portConstraint=eastwest;" vertex="1" parent="Eqw1G6QDZ1J7UmovNux2-213">
          <mxGeometry y="360" width="180" height="30" as="geometry" />
        </mxCell>
        <mxCell id="Eqw1G6QDZ1J7UmovNux2-248" value="" style="shape=partialRectangle;connectable=0;fillColor=#CFC86B;top=0;left=0;bottom=0;right=0;editable=1;overflow=hidden;strokeColor=#b85450;" vertex="1" parent="Eqw1G6QDZ1J7UmovNux2-247">
          <mxGeometry width="30" height="30" as="geometry">
            <mxRectangle width="30" height="30" as="alternateBounds" />
          </mxGeometry>
        </mxCell>
        <mxCell id="Eqw1G6QDZ1J7UmovNux2-249" value="里程" style="shape=partialRectangle;connectable=0;fillColor=#CFC86B;top=0;left=0;bottom=0;right=0;align=left;spacingLeft=6;overflow=hidden;strokeColor=#b85450;" vertex="1" parent="Eqw1G6QDZ1J7UmovNux2-247">
          <mxGeometry x="30" width="150" height="30" as="geometry">
            <mxRectangle width="150" height="30" as="alternateBounds" />
          </mxGeometry>
        </mxCell>
        <mxCell id="Eqw1G6QDZ1J7UmovNux2-250" value="" style="shape=partialRectangle;collapsible=0;dropTarget=0;pointerEvents=0;fillColor=#CFC86B;top=0;left=0;bottom=0;right=0;points=[[0,0.5],[1,0.5]];portConstraint=eastwest;" vertex="1" parent="Eqw1G6QDZ1J7UmovNux2-213">
          <mxGeometry y="390" width="180" height="30" as="geometry" />
        </mxCell>
        <mxCell id="Eqw1G6QDZ1J7UmovNux2-251" value="" style="shape=partialRectangle;connectable=0;fillColor=#CFC86B;top=0;left=0;bottom=0;right=0;editable=1;overflow=hidden;strokeColor=#b85450;" vertex="1" parent="Eqw1G6QDZ1J7UmovNux2-250">
          <mxGeometry width="30" height="30" as="geometry">
            <mxRectangle width="30" height="30" as="alternateBounds" />
          </mxGeometry>
        </mxCell>
        <mxCell id="Eqw1G6QDZ1J7UmovNux2-252" value="发动机型号" style="shape=partialRectangle;connectable=0;fillColor=#CFC86B;top=0;left=0;bottom=0;right=0;align=left;spacingLeft=6;overflow=hidden;strokeColor=#b85450;" vertex="1" parent="Eqw1G6QDZ1J7UmovNux2-250">
          <mxGeometry x="30" width="150" height="30" as="geometry">
            <mxRectangle width="150" height="30" as="alternateBounds" />
          </mxGeometry>
        </mxCell>
        <mxCell id="Eqw1G6QDZ1J7UmovNux2-253" value="" style="shape=partialRectangle;collapsible=0;dropTarget=0;pointerEvents=0;fillColor=#CFC86B;top=0;left=0;bottom=0;right=0;points=[[0,0.5],[1,0.5]];portConstraint=eastwest;" vertex="1" parent="Eqw1G6QDZ1J7UmovNux2-213">
          <mxGeometry y="420" width="180" height="30" as="geometry" />
        </mxCell>
        <mxCell id="Eqw1G6QDZ1J7UmovNux2-254" value="" style="shape=partialRectangle;connectable=0;fillColor=#CFC86B;top=0;left=0;bottom=0;right=0;editable=1;overflow=hidden;strokeColor=#b85450;" vertex="1" parent="Eqw1G6QDZ1J7UmovNux2-253">
          <mxGeometry width="30" height="30" as="geometry">
            <mxRectangle width="30" height="30" as="alternateBounds" />
          </mxGeometry>
        </mxCell>
        <mxCell id="Eqw1G6QDZ1J7UmovNux2-255" value="制造日期" style="shape=partialRectangle;connectable=0;fillColor=#CFC86B;top=0;left=0;bottom=0;right=0;align=left;spacingLeft=6;overflow=hidden;strokeColor=#b85450;" vertex="1" parent="Eqw1G6QDZ1J7UmovNux2-253">
          <mxGeometry x="30" width="150" height="30" as="geometry">
            <mxRectangle width="150" height="30" as="alternateBounds" />
          </mxGeometry>
        </mxCell>
        <mxCell id="Eqw1G6QDZ1J7UmovNux2-256" value="" style="shape=partialRectangle;collapsible=0;dropTarget=0;pointerEvents=0;fillColor=#CFC86B;top=0;left=0;bottom=0;right=0;points=[[0,0.5],[1,0.5]];portConstraint=eastwest;" vertex="1" parent="Eqw1G6QDZ1J7UmovNux2-213">
          <mxGeometry y="450" width="180" height="30" as="geometry" />
        </mxCell>
        <mxCell id="Eqw1G6QDZ1J7UmovNux2-257" value="" style="shape=partialRectangle;connectable=0;fillColor=#CFC86B;top=0;left=0;bottom=0;right=0;editable=1;overflow=hidden;strokeColor=#b85450;" vertex="1" parent="Eqw1G6QDZ1J7UmovNux2-256">
          <mxGeometry width="30" height="30" as="geometry">
            <mxRectangle width="30" height="30" as="alternateBounds" />
          </mxGeometry>
        </mxCell>
        <mxCell id="Eqw1G6QDZ1J7UmovNux2-258" value="车门是否维修记录" style="shape=partialRectangle;connectable=0;fillColor=#CFC86B;top=0;left=0;bottom=0;right=0;align=left;spacingLeft=6;overflow=hidden;strokeColor=#b85450;" vertex="1" parent="Eqw1G6QDZ1J7UmovNux2-256">
          <mxGeometry x="30" width="150" height="30" as="geometry">
            <mxRectangle width="150" height="30" as="alternateBounds" />
          </mxGeometry>
        </mxCell>
        <mxCell id="Eqw1G6QDZ1J7UmovNux2-259" value="" style="shape=partialRectangle;collapsible=0;dropTarget=0;pointerEvents=0;fillColor=#CFC86B;top=0;left=0;bottom=0;right=0;points=[[0,0.5],[1,0.5]];portConstraint=eastwest;" vertex="1" parent="Eqw1G6QDZ1J7UmovNux2-213">
          <mxGeometry y="480" width="180" height="30" as="geometry" />
        </mxCell>
        <mxCell id="Eqw1G6QDZ1J7UmovNux2-260" value="" style="shape=partialRectangle;connectable=0;fillColor=#CFC86B;top=0;left=0;bottom=0;right=0;editable=1;overflow=hidden;strokeColor=#b85450;" vertex="1" parent="Eqw1G6QDZ1J7UmovNux2-259">
          <mxGeometry width="30" height="30" as="geometry">
            <mxRectangle width="30" height="30" as="alternateBounds" />
          </mxGeometry>
        </mxCell>
        <mxCell id="Eqw1G6QDZ1J7UmovNux2-261" value="车门照片" style="shape=partialRectangle;connectable=0;fillColor=#CFC86B;top=0;left=0;bottom=0;right=0;align=left;spacingLeft=6;overflow=hidden;strokeColor=#b85450;" vertex="1" parent="Eqw1G6QDZ1J7UmovNux2-259">
          <mxGeometry x="30" width="150" height="30" as="geometry">
            <mxRectangle width="150" height="30" as="alternateBounds" />
          </mxGeometry>
        </mxCell>
        <mxCell id="Eqw1G6QDZ1J7UmovNux2-262" value="" style="shape=partialRectangle;collapsible=0;dropTarget=0;pointerEvents=0;fillColor=#CFC86B;top=0;left=0;bottom=0;right=0;points=[[0,0.5],[1,0.5]];portConstraint=eastwest;" vertex="1" parent="Eqw1G6QDZ1J7UmovNux2-213">
          <mxGeometry y="510" width="180" height="30" as="geometry" />
        </mxCell>
        <mxCell id="Eqw1G6QDZ1J7UmovNux2-263" value="" style="shape=partialRectangle;connectable=0;fillColor=#CFC86B;top=0;left=0;bottom=0;right=0;editable=1;overflow=hidden;strokeColor=#b85450;" vertex="1" parent="Eqw1G6QDZ1J7UmovNux2-262">
          <mxGeometry width="30" height="30" as="geometry">
            <mxRectangle width="30" height="30" as="alternateBounds" />
          </mxGeometry>
        </mxCell>
        <mxCell id="Eqw1G6QDZ1J7UmovNux2-264" value="车辆铭牌照片" style="shape=partialRectangle;connectable=0;fillColor=#CFC86B;top=0;left=0;bottom=0;right=0;align=left;spacingLeft=6;overflow=hidden;strokeColor=#b85450;" vertex="1" parent="Eqw1G6QDZ1J7UmovNux2-262">
          <mxGeometry x="30" width="150" height="30" as="geometry">
            <mxRectangle width="150" height="30" as="alternateBounds" />
          </mxGeometry>
        </mxCell>
        <mxCell id="Eqw1G6QDZ1J7UmovNux2-265" value="" style="shape=partialRectangle;collapsible=0;dropTarget=0;pointerEvents=0;fillColor=#CFC86B;top=0;left=0;bottom=0;right=0;points=[[0,0.5],[1,0.5]];portConstraint=eastwest;" vertex="1" parent="Eqw1G6QDZ1J7UmovNux2-213">
          <mxGeometry y="540" width="180" height="30" as="geometry" />
        </mxCell>
        <mxCell id="Eqw1G6QDZ1J7UmovNux2-266" value="" style="shape=partialRectangle;connectable=0;fillColor=#CFC86B;top=0;left=0;bottom=0;right=0;editable=1;overflow=hidden;strokeColor=#b85450;" vertex="1" parent="Eqw1G6QDZ1J7UmovNux2-265">
          <mxGeometry width="30" height="30" as="geometry">
            <mxRectangle width="30" height="30" as="alternateBounds" />
          </mxGeometry>
        </mxCell>
        <mxCell id="Eqw1G6QDZ1J7UmovNux2-267" value="车辆正面照片" style="shape=partialRectangle;connectable=0;fillColor=#CFC86B;top=0;left=0;bottom=0;right=0;align=left;spacingLeft=6;overflow=hidden;strokeColor=#b85450;" vertex="1" parent="Eqw1G6QDZ1J7UmovNux2-265">
          <mxGeometry x="30" width="150" height="30" as="geometry">
            <mxRectangle width="150" height="30" as="alternateBounds" />
          </mxGeometry>
        </mxCell>
        <mxCell id="Eqw1G6QDZ1J7UmovNux2-268" value="" style="shape=partialRectangle;collapsible=0;dropTarget=0;pointerEvents=0;fillColor=#CFC86B;top=0;left=0;bottom=0;right=0;points=[[0,0.5],[1,0.5]];portConstraint=eastwest;" vertex="1" parent="Eqw1G6QDZ1J7UmovNux2-213">
          <mxGeometry y="570" width="180" height="30" as="geometry" />
        </mxCell>
        <mxCell id="Eqw1G6QDZ1J7UmovNux2-269" value="" style="shape=partialRectangle;connectable=0;fillColor=#CFC86B;top=0;left=0;bottom=0;right=0;editable=1;overflow=hidden;strokeColor=#b85450;" vertex="1" parent="Eqw1G6QDZ1J7UmovNux2-268">
          <mxGeometry width="30" height="30" as="geometry">
            <mxRectangle width="30" height="30" as="alternateBounds" />
          </mxGeometry>
        </mxCell>
        <mxCell id="Eqw1G6QDZ1J7UmovNux2-270" value="故障部位照片" style="shape=partialRectangle;connectable=0;fillColor=#CFC86B;top=0;left=0;bottom=0;right=0;align=left;spacingLeft=6;overflow=hidden;strokeColor=#b85450;" vertex="1" parent="Eqw1G6QDZ1J7UmovNux2-268">
          <mxGeometry x="30" width="150" height="30" as="geometry">
            <mxRectangle width="150" height="30" as="alternateBounds" />
          </mxGeometry>
        </mxCell>
        <mxCell id="Eqw1G6QDZ1J7UmovNux2-271" value="" style="shape=partialRectangle;collapsible=0;dropTarget=0;pointerEvents=0;fillColor=#CFC86B;top=0;left=0;bottom=0;right=0;points=[[0,0.5],[1,0.5]];portConstraint=eastwest;" vertex="1" parent="Eqw1G6QDZ1J7UmovNux2-213">
          <mxGeometry y="600" width="180" height="30" as="geometry" />
        </mxCell>
        <mxCell id="Eqw1G6QDZ1J7UmovNux2-272" value="" style="shape=partialRectangle;connectable=0;fillColor=#CFC86B;top=0;left=0;bottom=0;right=0;editable=1;overflow=hidden;strokeColor=#b85450;" vertex="1" parent="Eqw1G6QDZ1J7UmovNux2-271">
          <mxGeometry width="30" height="30" as="geometry">
            <mxRectangle width="30" height="30" as="alternateBounds" />
          </mxGeometry>
        </mxCell>
        <mxCell id="Eqw1G6QDZ1J7UmovNux2-273" value="故障视频" style="shape=partialRectangle;connectable=0;fillColor=#CFC86B;top=0;left=0;bottom=0;right=0;align=left;spacingLeft=6;overflow=hidden;strokeColor=#b85450;" vertex="1" parent="Eqw1G6QDZ1J7UmovNux2-271">
          <mxGeometry x="30" width="150" height="30" as="geometry">
            <mxRectangle width="150" height="30" as="alternateBounds" />
          </mxGeometry>
        </mxCell>
        <mxCell id="Eqw1G6QDZ1J7UmovNux2-274" value="" style="shape=partialRectangle;collapsible=0;dropTarget=0;pointerEvents=0;fillColor=#CFC86B;top=0;left=0;bottom=0;right=0;points=[[0,0.5],[1,0.5]];portConstraint=eastwest;" vertex="1" parent="Eqw1G6QDZ1J7UmovNux2-213">
          <mxGeometry y="630" width="180" height="30" as="geometry" />
        </mxCell>
        <mxCell id="Eqw1G6QDZ1J7UmovNux2-275" value="" style="shape=partialRectangle;connectable=0;fillColor=#CFC86B;top=0;left=0;bottom=0;right=0;editable=1;overflow=hidden;strokeColor=#b85450;" vertex="1" parent="Eqw1G6QDZ1J7UmovNux2-274">
          <mxGeometry width="30" height="30" as="geometry">
            <mxRectangle width="30" height="30" as="alternateBounds" />
          </mxGeometry>
        </mxCell>
        <mxCell id="Eqw1G6QDZ1J7UmovNux2-276" value="其他（视频、照片）" style="shape=partialRectangle;connectable=0;fillColor=#CFC86B;top=0;left=0;bottom=0;right=0;align=left;spacingLeft=6;overflow=hidden;strokeColor=#b85450;" vertex="1" parent="Eqw1G6QDZ1J7UmovNux2-274">
          <mxGeometry x="30" width="150" height="30" as="geometry">
            <mxRectangle width="150" height="30" as="alternateBounds" />
          </mxGeometry>
        </mxCell>
        <mxCell id="Eqw1G6QDZ1J7UmovNux2-277" value="" style="shape=partialRectangle;collapsible=0;dropTarget=0;pointerEvents=0;fillColor=#CFC86B;top=0;left=0;bottom=0;right=0;points=[[0,0.5],[1,0.5]];portConstraint=eastwest;" vertex="1" parent="Eqw1G6QDZ1J7UmovNux2-213">
          <mxGeometry y="660" width="180" height="30" as="geometry" />
        </mxCell>
        <mxCell id="Eqw1G6QDZ1J7UmovNux2-278" value="" style="shape=partialRectangle;connectable=0;fillColor=#CFC86B;top=0;left=0;bottom=0;right=0;editable=1;overflow=hidden;strokeColor=#b85450;" vertex="1" parent="Eqw1G6QDZ1J7UmovNux2-277">
          <mxGeometry width="30" height="30" as="geometry">
            <mxRectangle width="30" height="30" as="alternateBounds" />
          </mxGeometry>
        </mxCell>
        <mxCell id="Eqw1G6QDZ1J7UmovNux2-279" value="现认可否EDER" style="shape=partialRectangle;connectable=0;fillColor=#CFC86B;top=0;left=0;bottom=0;right=0;align=left;spacingLeft=6;overflow=hidden;strokeColor=#b85450;" vertex="1" parent="Eqw1G6QDZ1J7UmovNux2-277">
          <mxGeometry x="30" width="150" height="30" as="geometry">
            <mxRectangle width="150" height="30" as="alternateBounds" />
          </mxGeometry>
        </mxCell>
        <mxCell id="Eqw1G6QDZ1J7UmovNux2-280" value="" style="shape=partialRectangle;collapsible=0;dropTarget=0;pointerEvents=0;fillColor=#CFC86B;top=0;left=0;bottom=0;right=0;points=[[0,0.5],[1,0.5]];portConstraint=eastwest;" vertex="1" parent="Eqw1G6QDZ1J7UmovNux2-213">
          <mxGeometry y="690" width="180" height="30" as="geometry" />
        </mxCell>
        <mxCell id="Eqw1G6QDZ1J7UmovNux2-281" value="" style="shape=partialRectangle;connectable=0;fillColor=#CFC86B;top=0;left=0;bottom=0;right=0;editable=1;overflow=hidden;strokeColor=#b85450;" vertex="1" parent="Eqw1G6QDZ1J7UmovNux2-280">
          <mxGeometry width="30" height="30" as="geometry">
            <mxRectangle width="30" height="30" as="alternateBounds" />
          </mxGeometry>
        </mxCell>
        <mxCell id="Eqw1G6QDZ1J7UmovNux2-282" value="现认可否QA" style="shape=partialRectangle;connectable=0;fillColor=#CFC86B;top=0;left=0;bottom=0;right=0;align=left;spacingLeft=6;overflow=hidden;strokeColor=#b85450;" vertex="1" parent="Eqw1G6QDZ1J7UmovNux2-280">
          <mxGeometry x="30" width="150" height="30" as="geometry">
            <mxRectangle width="150" height="30" as="alternateBounds" />
          </mxGeometry>
        </mxCell>
        <mxCell id="Eqw1G6QDZ1J7UmovNux2-283" value="车俩表" style="shape=table;startSize=30;container=1;collapsible=1;childLayout=tableLayout;fixedRows=1;rowLines=0;fontStyle=1;align=center;resizeLast=1;fillColor=#FFFA9E;strokeColor=#6c8ebf;" vertex="1" parent="1">
          <mxGeometry x="580" y="-430" width="180" height="150" as="geometry" />
        </mxCell>
        <mxCell id="Eqw1G6QDZ1J7UmovNux2-284" value="" style="shape=partialRectangle;collapsible=0;dropTarget=0;pointerEvents=0;fillColor=#FFFA9E;top=0;left=0;bottom=1;right=0;points=[[0,0.5],[1,0.5]];portConstraint=eastwest;" vertex="1" parent="Eqw1G6QDZ1J7UmovNux2-283">
          <mxGeometry y="30" width="180" height="30" as="geometry" />
        </mxCell>
        <mxCell id="Eqw1G6QDZ1J7UmovNux2-285" value="PK" style="shape=partialRectangle;connectable=0;fillColor=#FFFA9E;top=0;left=0;bottom=0;right=0;fontStyle=1;overflow=hidden;strokeColor=#6c8ebf;" vertex="1" parent="Eqw1G6QDZ1J7UmovNux2-284">
          <mxGeometry width="30" height="30" as="geometry">
            <mxRectangle width="30" height="30" as="alternateBounds" />
          </mxGeometry>
        </mxCell>
        <mxCell id="Eqw1G6QDZ1J7UmovNux2-286" value="ID" style="shape=partialRectangle;connectable=0;fillColor=#FFFA9E;top=0;left=0;bottom=0;right=0;align=left;spacingLeft=6;fontStyle=5;overflow=hidden;strokeColor=#6c8ebf;" vertex="1" parent="Eqw1G6QDZ1J7UmovNux2-284">
          <mxGeometry x="30" width="150" height="30" as="geometry">
            <mxRectangle width="150" height="30" as="alternateBounds" />
          </mxGeometry>
        </mxCell>
        <mxCell id="Eqw1G6QDZ1J7UmovNux2-287" value="" style="shape=partialRectangle;collapsible=0;dropTarget=0;pointerEvents=0;fillColor=#FFFA9E;top=0;left=0;bottom=0;right=0;points=[[0,0.5],[1,0.5]];portConstraint=eastwest;" vertex="1" parent="Eqw1G6QDZ1J7UmovNux2-283">
          <mxGeometry y="60" width="180" height="30" as="geometry" />
        </mxCell>
        <mxCell id="Eqw1G6QDZ1J7UmovNux2-288" value="" style="shape=partialRectangle;connectable=0;fillColor=#FFFA9E;top=0;left=0;bottom=0;right=0;editable=1;overflow=hidden;strokeColor=#6c8ebf;" vertex="1" parent="Eqw1G6QDZ1J7UmovNux2-287">
          <mxGeometry width="30" height="30" as="geometry">
            <mxRectangle width="30" height="30" as="alternateBounds" />
          </mxGeometry>
        </mxCell>
        <mxCell id="Eqw1G6QDZ1J7UmovNux2-289" value="Vin码" style="shape=partialRectangle;connectable=0;fillColor=#FFFA9E;top=0;left=0;bottom=0;right=0;align=left;spacingLeft=6;overflow=hidden;strokeColor=#6c8ebf;" vertex="1" parent="Eqw1G6QDZ1J7UmovNux2-287">
          <mxGeometry x="30" width="150" height="30" as="geometry">
            <mxRectangle width="150" height="30" as="alternateBounds" />
          </mxGeometry>
        </mxCell>
        <mxCell id="Eqw1G6QDZ1J7UmovNux2-290" value="" style="shape=partialRectangle;collapsible=0;dropTarget=0;pointerEvents=0;fillColor=#FFFA9E;top=0;left=0;bottom=0;right=0;points=[[0,0.5],[1,0.5]];portConstraint=eastwest;" vertex="1" parent="Eqw1G6QDZ1J7UmovNux2-283">
          <mxGeometry y="90" width="180" height="30" as="geometry" />
        </mxCell>
        <mxCell id="Eqw1G6QDZ1J7UmovNux2-291" value="" style="shape=partialRectangle;connectable=0;fillColor=#FFFA9E;top=0;left=0;bottom=0;right=0;editable=1;overflow=hidden;strokeColor=#6c8ebf;" vertex="1" parent="Eqw1G6QDZ1J7UmovNux2-290">
          <mxGeometry width="30" height="30" as="geometry">
            <mxRectangle width="30" height="30" as="alternateBounds" />
          </mxGeometry>
        </mxCell>
        <mxCell id="Eqw1G6QDZ1J7UmovNux2-292" value="车联名称" style="shape=partialRectangle;connectable=0;fillColor=#FFFA9E;top=0;left=0;bottom=0;right=0;align=left;spacingLeft=6;overflow=hidden;strokeColor=#6c8ebf;" vertex="1" parent="Eqw1G6QDZ1J7UmovNux2-290">
          <mxGeometry x="30" width="150" height="30" as="geometry">
            <mxRectangle width="150" height="30" as="alternateBounds" />
          </mxGeometry>
        </mxCell>
        <mxCell id="Eqw1G6QDZ1J7UmovNux2-293" value="" style="shape=partialRectangle;collapsible=0;dropTarget=0;pointerEvents=0;fillColor=#FFFA9E;top=0;left=0;bottom=0;right=0;points=[[0,0.5],[1,0.5]];portConstraint=eastwest;" vertex="1" parent="Eqw1G6QDZ1J7UmovNux2-283">
          <mxGeometry y="120" width="180" height="30" as="geometry" />
        </mxCell>
        <mxCell id="Eqw1G6QDZ1J7UmovNux2-294" value="" style="shape=partialRectangle;connectable=0;fillColor=#FFFA9E;top=0;left=0;bottom=0;right=0;editable=1;overflow=hidden;strokeColor=#6c8ebf;" vertex="1" parent="Eqw1G6QDZ1J7UmovNux2-293">
          <mxGeometry width="30" height="30" as="geometry">
            <mxRectangle width="30" height="30" as="alternateBounds" />
          </mxGeometry>
        </mxCell>
        <mxCell id="Eqw1G6QDZ1J7UmovNux2-295" value="车型代码" style="shape=partialRectangle;connectable=0;fillColor=#FFFA9E;top=0;left=0;bottom=0;right=0;align=left;spacingLeft=6;overflow=hidden;strokeColor=#6c8ebf;" vertex="1" parent="Eqw1G6QDZ1J7UmovNux2-293">
          <mxGeometry x="30" width="150" height="30" as="geometry">
            <mxRectangle width="150" height="30" as="alternateBounds" />
          </mxGeometry>
        </mxCell>
        <mxCell id="Eqw1G6QDZ1J7UmovNux2-296" value="" style="edgeStyle=entityRelationEdgeStyle;fontSize=12;html=1;endArrow=ERmandOne;startArrow=ERmandOne;rounded=0;entryX=0;entryY=0.5;entryDx=0;entryDy=0;exitX=1.013;exitY=0.804;exitDx=0;exitDy=0;exitPerimeter=0;" edge="1" parent="1" source="Eqw1G6QDZ1J7UmovNux2-244" target="Eqw1G6QDZ1J7UmovNux2-287">
          <mxGeometry width="100" height="100" relative="1" as="geometry">
            <mxPoint x="560" y="-200" as="sourcePoint" />
            <mxPoint x="760" y="-320" as="targetPoint" />
          </mxGeometry>
        </mxCell>
        <mxCell id="Eqw1G6QDZ1J7UmovNux2-297" value="" style="edgeStyle=entityRelationEdgeStyle;fontSize=12;html=1;endArrow=ERmandOne;startArrow=ERmandOne;rounded=0;entryX=0;entryY=0.5;entryDx=0;entryDy=0;" edge="1" parent="1" target="Eqw1G6QDZ1J7UmovNux2-5">
          <mxGeometry width="100" height="100" relative="1" as="geometry">
            <mxPoint x="399.99999999999955" y="-550" as="sourcePoint" />
            <mxPoint x="610" y="50" as="targetPoint" />
          </mxGeometry>
        </mxCell>
      </root>
    </mxGraphModel>
  </diagram>
  <diagram name="Page-2" id="zVkDsZPbXiVFc2_fM5fj">
    <mxGraphModel dx="3151" dy="1053" grid="1" gridSize="10" guides="1" tooltips="1" connect="1" arrows="1" fold="1" page="1" pageScale="1" pageWidth="827" pageHeight="1169" math="0" shadow="0">
      <root>
        <mxCell id="RJx9GX0pr-n8kw8aM9lX-0" />
        <mxCell id="RJx9GX0pr-n8kw8aM9lX-1" parent="RJx9GX0pr-n8kw8aM9lX-0" />
        <mxCell id="RJx9GX0pr-n8kw8aM9lX-2" value="&lt;font style=&quot;vertical-align: inherit&quot;&gt;&lt;font style=&quot;vertical-align: inherit&quot;&gt;现任案件前端&lt;/font&gt;&lt;/font&gt;" style="shape=umlLifeline;perimeter=lifelinePerimeter;whiteSpace=wrap;html=1;container=1;collapsible=0;recursiveResize=0;outlineConnect=0;" parent="RJx9GX0pr-n8kw8aM9lX-1" vertex="1">
          <mxGeometry x="150" y="140" width="100" height="370" as="geometry" />
        </mxCell>
        <mxCell id="RJx9GX0pr-n8kw8aM9lX-5" value="" style="html=1;points=[];perimeter=orthogonalPerimeter;" parent="RJx9GX0pr-n8kw8aM9lX-2" vertex="1">
          <mxGeometry x="45" y="80" width="10" height="120" as="geometry" />
        </mxCell>
        <mxCell id="RJx9GX0pr-n8kw8aM9lX-3" value="现任案件服务" style="shape=umlLifeline;perimeter=lifelinePerimeter;whiteSpace=wrap;html=1;container=1;collapsible=0;recursiveResize=0;outlineConnect=0;" parent="RJx9GX0pr-n8kw8aM9lX-1" vertex="1">
          <mxGeometry x="349" y="140" width="130" height="380" as="geometry" />
        </mxCell>
        <mxCell id="RJx9GX0pr-n8kw8aM9lX-6" value="" style="html=1;points=[];perimeter=orthogonalPerimeter;" parent="RJx9GX0pr-n8kw8aM9lX-3" vertex="1">
          <mxGeometry x="60" y="80" width="10" height="120" as="geometry" />
        </mxCell>
        <mxCell id="tgx3HBcEQ4r8Xcu7-Alv-10" value="" style="html=1;points=[];perimeter=orthogonalPerimeter;" parent="RJx9GX0pr-n8kw8aM9lX-3" vertex="1">
          <mxGeometry x="70" y="160" width="10" height="40" as="geometry" />
        </mxCell>
        <mxCell id="tgx3HBcEQ4r8Xcu7-Alv-11" value="&lt;span style=&quot;font-size: 12px ; text-align: center ; background-color: rgb(248 , 249 , 250)&quot;&gt;1.1案件提交&amp;nbsp; 案件状态改为待审核&lt;/span&gt;" style="edgeStyle=orthogonalEdgeStyle;html=1;align=left;spacingLeft=2;endArrow=block;rounded=0;entryX=1;entryY=0;exitX=0.977;exitY=0.5;exitDx=0;exitDy=0;exitPerimeter=0;" parent="RJx9GX0pr-n8kw8aM9lX-3" source="RJx9GX0pr-n8kw8aM9lX-6" target="tgx3HBcEQ4r8Xcu7-Alv-10" edge="1">
          <mxGeometry relative="1" as="geometry">
            <mxPoint x="75" y="140" as="sourcePoint" />
            <Array as="points">
              <mxPoint x="105" y="140" />
              <mxPoint x="105" y="160" />
            </Array>
          </mxGeometry>
        </mxCell>
        <mxCell id="RJx9GX0pr-n8kw8aM9lX-7" value="" style="html=1;verticalAlign=bottom;endArrow=block;rounded=0;entryX=0.5;entryY=0;entryDx=0;entryDy=0;entryPerimeter=0;" parent="RJx9GX0pr-n8kw8aM9lX-1" target="RJx9GX0pr-n8kw8aM9lX-6" edge="1">
          <mxGeometry width="80" relative="1" as="geometry">
            <mxPoint x="200" y="220" as="sourcePoint" />
            <mxPoint x="380" y="220" as="targetPoint" />
          </mxGeometry>
        </mxCell>
        <mxCell id="RJx9GX0pr-n8kw8aM9lX-9" value="&lt;font style=&quot;vertical-align: inherit&quot;&gt;&lt;font style=&quot;vertical-align: inherit&quot;&gt;1.创建现任案件&lt;/font&gt;&lt;/font&gt;" style="text;html=1;align=center;verticalAlign=middle;resizable=0;points=[];autosize=1;strokeColor=none;fillColor=none;" parent="RJx9GX0pr-n8kw8aM9lX-1" vertex="1">
          <mxGeometry x="250" y="200" width="100" height="20" as="geometry" />
        </mxCell>
        <mxCell id="FcXuRpHlxLw0r6WC0E7l-5" value="" style="html=1;verticalAlign=bottom;endArrow=open;dashed=1;endSize=8;" parent="RJx9GX0pr-n8kw8aM9lX-1" source="RJx9GX0pr-n8kw8aM9lX-3" edge="1">
          <mxGeometry relative="1" as="geometry">
            <mxPoint x="280" y="340" as="sourcePoint" />
            <mxPoint x="200" y="340" as="targetPoint" />
          </mxGeometry>
        </mxCell>
        <mxCell id="tgx3HBcEQ4r8Xcu7-Alv-4" value="&lt;font style=&quot;vertical-align: inherit&quot;&gt;&lt;font style=&quot;vertical-align: inherit&quot;&gt;现任案件前端&lt;/font&gt;&lt;/font&gt;" style="shape=umlLifeline;perimeter=lifelinePerimeter;whiteSpace=wrap;html=1;container=1;collapsible=0;recursiveResize=0;outlineConnect=0;" parent="RJx9GX0pr-n8kw8aM9lX-1" vertex="1">
          <mxGeometry x="40" y="750" width="100" height="370" as="geometry" />
        </mxCell>
        <mxCell id="tgx3HBcEQ4r8Xcu7-Alv-5" value="" style="html=1;points=[];perimeter=orthogonalPerimeter;" parent="tgx3HBcEQ4r8Xcu7-Alv-4" vertex="1">
          <mxGeometry x="45" y="80" width="10" height="120" as="geometry" />
        </mxCell>
        <mxCell id="tgx3HBcEQ4r8Xcu7-Alv-6" value="现任案件服务" style="shape=umlLifeline;perimeter=lifelinePerimeter;whiteSpace=wrap;html=1;container=1;collapsible=0;recursiveResize=0;outlineConnect=0;" parent="RJx9GX0pr-n8kw8aM9lX-1" vertex="1">
          <mxGeometry x="240" y="750" width="130" height="370" as="geometry" />
        </mxCell>
        <mxCell id="tgx3HBcEQ4r8Xcu7-Alv-7" value="" style="html=1;points=[];perimeter=orthogonalPerimeter;" parent="tgx3HBcEQ4r8Xcu7-Alv-6" vertex="1">
          <mxGeometry x="60" y="80" width="10" height="120" as="geometry" />
        </mxCell>
        <mxCell id="tgx3HBcEQ4r8Xcu7-Alv-13" value="" style="html=1;points=[];perimeter=orthogonalPerimeter;" parent="tgx3HBcEQ4r8Xcu7-Alv-6" vertex="1">
          <mxGeometry x="70" y="160" width="10" height="40" as="geometry" />
        </mxCell>
        <mxCell id="tgx3HBcEQ4r8Xcu7-Alv-14" value="" style="edgeStyle=orthogonalEdgeStyle;html=1;align=left;spacingLeft=2;endArrow=block;rounded=0;entryX=1;entryY=0;exitX=1;exitY=0.497;exitDx=0;exitDy=0;exitPerimeter=0;" parent="tgx3HBcEQ4r8Xcu7-Alv-6" source="tgx3HBcEQ4r8Xcu7-Alv-7" target="tgx3HBcEQ4r8Xcu7-Alv-13" edge="1">
          <mxGeometry relative="1" as="geometry">
            <mxPoint x="75" y="140" as="sourcePoint" />
            <Array as="points">
              <mxPoint x="105" y="140" />
              <mxPoint x="105" y="160" />
            </Array>
          </mxGeometry>
        </mxCell>
        <mxCell id="tgx3HBcEQ4r8Xcu7-Alv-12" value="1.案件审核" style="html=1;verticalAlign=bottom;endArrow=block;rounded=0;" parent="RJx9GX0pr-n8kw8aM9lX-1" target="tgx3HBcEQ4r8Xcu7-Alv-6" edge="1">
          <mxGeometry width="80" relative="1" as="geometry">
            <mxPoint x="90" y="830" as="sourcePoint" />
            <mxPoint x="170" y="830" as="targetPoint" />
          </mxGeometry>
        </mxCell>
        <mxCell id="tgx3HBcEQ4r8Xcu7-Alv-15" value="" style="html=1;verticalAlign=bottom;endArrow=open;dashed=1;endSize=8;rounded=0;" parent="RJx9GX0pr-n8kw8aM9lX-1" edge="1">
          <mxGeometry relative="1" as="geometry">
            <mxPoint x="300" y="950" as="sourcePoint" />
            <mxPoint x="90" y="950" as="targetPoint" />
          </mxGeometry>
        </mxCell>
        <mxCell id="tgx3HBcEQ4r8Xcu7-Alv-16" value="1.1审核通过 案件状态改为已完结" style="text;html=1;align=center;verticalAlign=middle;resizable=0;points=[];autosize=1;strokeColor=none;fillColor=none;" parent="RJx9GX0pr-n8kw8aM9lX-1" vertex="1">
          <mxGeometry x="350" y="890" width="190" height="20" as="geometry" />
        </mxCell>
        <mxCell id="G_6wBEW2XoETe_rV5Fr3-1" value="现任案件创建时序图" style="shape=umlFrame;whiteSpace=wrap;html=1;" parent="RJx9GX0pr-n8kw8aM9lX-1" vertex="1">
          <mxGeometry x="-40" y="100" width="720" height="450" as="geometry" />
        </mxCell>
        <mxCell id="G_6wBEW2XoETe_rV5Fr3-2" value="现任案件审核时序图" style="shape=umlFrame;whiteSpace=wrap;html=1;" parent="RJx9GX0pr-n8kw8aM9lX-1" vertex="1">
          <mxGeometry x="-55" y="675" width="720" height="450" as="geometry" />
        </mxCell>
      </root>
    </mxGraphModel>
  </diagram>
  <diagram name="Page-3" id="R_8uA3mgczI9F3K3uWMT">
    <mxGraphModel dx="1826" dy="1996" grid="1" gridSize="10" guides="1" tooltips="1" connect="1" arrows="1" fold="1" page="1" pageScale="1" pageWidth="827" pageHeight="1169" math="0" shadow="0">
      <root>
        <mxCell id="q19kQmwosjWfE1o3z2rh-0" />
        <mxCell id="q19kQmwosjWfE1o3z2rh-1" parent="q19kQmwosjWfE1o3z2rh-0" />
        <mxCell id="q19kQmwosjWfE1o3z2rh-2" value="EDER" style="shape=umlLifeline;perimeter=lifelinePerimeter;whiteSpace=wrap;html=1;container=1;collapsible=0;recursiveResize=0;outlineConnect=0;" parent="q19kQmwosjWfE1o3z2rh-1" vertex="1">
          <mxGeometry x="100" y="130" width="100" height="1160" as="geometry" />
        </mxCell>
        <mxCell id="O4jykv7NWjR9x2Ka1mOF-0" value="" style="html=1;points=[];perimeter=orthogonalPerimeter;" parent="q19kQmwosjWfE1o3z2rh-2" vertex="1">
          <mxGeometry x="45" y="70" width="10" height="80" as="geometry" />
        </mxCell>
        <mxCell id="O4jykv7NWjR9x2Ka1mOF-12" value="" style="html=1;points=[];perimeter=orthogonalPerimeter;" parent="q19kQmwosjWfE1o3z2rh-2" vertex="1">
          <mxGeometry x="45" y="340" width="10" height="80" as="geometry" />
        </mxCell>
        <mxCell id="O4jykv7NWjR9x2Ka1mOF-15" value="" style="html=1;verticalAlign=bottom;endArrow=block;rounded=0;entryX=0.25;entryY=-0.006;entryDx=0;entryDy=0;entryPerimeter=0;" parent="q19kQmwosjWfE1o3z2rh-2" target="O4jykv7NWjR9x2Ka1mOF-13" edge="1">
          <mxGeometry width="80" relative="1" as="geometry">
            <mxPoint x="55" y="340" as="sourcePoint" />
            <mxPoint x="428" y="340" as="targetPoint" />
            <Array as="points" />
          </mxGeometry>
        </mxCell>
        <mxCell id="O4jykv7NWjR9x2Ka1mOF-32" value="" style="html=1;points=[];perimeter=orthogonalPerimeter;" parent="q19kQmwosjWfE1o3z2rh-2" vertex="1">
          <mxGeometry x="45" y="470" width="10" height="80" as="geometry" />
        </mxCell>
        <mxCell id="O4jykv7NWjR9x2Ka1mOF-49" value="" style="html=1;points=[];perimeter=orthogonalPerimeter;" parent="q19kQmwosjWfE1o3z2rh-2" vertex="1">
          <mxGeometry x="45" y="720" width="10" height="80" as="geometry" />
        </mxCell>
        <mxCell id="O4jykv7NWjR9x2Ka1mOF-71" value="" style="html=1;points=[];perimeter=orthogonalPerimeter;" parent="q19kQmwosjWfE1o3z2rh-2" vertex="1">
          <mxGeometry x="45" y="1010" width="10" height="80" as="geometry" />
        </mxCell>
        <mxCell id="q19kQmwosjWfE1o3z2rh-3" value="QA" style="shape=umlLifeline;perimeter=lifelinePerimeter;whiteSpace=wrap;html=1;container=1;collapsible=0;recursiveResize=0;outlineConnect=0;" parent="q19kQmwosjWfE1o3z2rh-1" vertex="1">
          <mxGeometry x="314" y="130" width="100" height="1160" as="geometry" />
        </mxCell>
        <mxCell id="O4jykv7NWjR9x2Ka1mOF-1" value="" style="html=1;points=[];perimeter=orthogonalPerimeter;" parent="q19kQmwosjWfE1o3z2rh-3" vertex="1">
          <mxGeometry x="45" y="170" width="10" height="140" as="geometry" />
        </mxCell>
        <mxCell id="O4jykv7NWjR9x2Ka1mOF-55" value="" style="html=1;points=[];perimeter=orthogonalPerimeter;" parent="q19kQmwosjWfE1o3z2rh-3" vertex="1">
          <mxGeometry x="45" y="850" width="10" height="80" as="geometry" />
        </mxCell>
        <mxCell id="q19kQmwosjWfE1o3z2rh-4" value="现任案件模块" style="shape=umlLifeline;perimeter=lifelinePerimeter;whiteSpace=wrap;html=1;container=1;collapsible=0;recursiveResize=0;outlineConnect=0;" parent="q19kQmwosjWfE1o3z2rh-1" vertex="1">
          <mxGeometry x="650" y="130" width="170" height="1160" as="geometry" />
        </mxCell>
        <mxCell id="O4jykv7NWjR9x2Ka1mOF-2" value="" style="html=1;points=[];perimeter=orthogonalPerimeter;" parent="q19kQmwosjWfE1o3z2rh-4" vertex="1">
          <mxGeometry x="80" y="70" width="10" height="80" as="geometry" />
        </mxCell>
        <mxCell id="O4jykv7NWjR9x2Ka1mOF-6" value="" style="html=1;points=[];perimeter=orthogonalPerimeter;" parent="q19kQmwosjWfE1o3z2rh-4" vertex="1">
          <mxGeometry x="80" y="170" width="10" height="140" as="geometry" />
        </mxCell>
        <mxCell id="O4jykv7NWjR9x2Ka1mOF-33" value="" style="html=1;points=[];perimeter=orthogonalPerimeter;" parent="q19kQmwosjWfE1o3z2rh-4" vertex="1">
          <mxGeometry x="80" y="470" width="10" height="80" as="geometry" />
        </mxCell>
        <mxCell id="O4jykv7NWjR9x2Ka1mOF-41" value="" style="html=1;points=[];perimeter=orthogonalPerimeter;" parent="q19kQmwosjWfE1o3z2rh-4" vertex="1">
          <mxGeometry x="80" y="590" width="10" height="80" as="geometry" />
        </mxCell>
        <mxCell id="O4jykv7NWjR9x2Ka1mOF-52" value="" style="html=1;points=[];perimeter=orthogonalPerimeter;" parent="q19kQmwosjWfE1o3z2rh-4" vertex="1">
          <mxGeometry x="80" y="720" width="10" height="80" as="geometry" />
        </mxCell>
        <mxCell id="O4jykv7NWjR9x2Ka1mOF-56" value="" style="html=1;points=[];perimeter=orthogonalPerimeter;" parent="q19kQmwosjWfE1o3z2rh-4" vertex="1">
          <mxGeometry x="80" y="850" width="10" height="80" as="geometry" />
        </mxCell>
        <mxCell id="Hw0tdQEkplnBngI8c9Y9-2" value="" style="html=1;points=[];perimeter=orthogonalPerimeter;rounded=0;" parent="q19kQmwosjWfE1o3z2rh-4" vertex="1">
          <mxGeometry x="90" y="110" width="10" height="40" as="geometry" />
        </mxCell>
        <mxCell id="Hw0tdQEkplnBngI8c9Y9-3" value="" style="edgeStyle=orthogonalEdgeStyle;html=1;align=left;spacingLeft=2;endArrow=block;rounded=0;entryX=1;entryY=0;exitX=0.993;exitY=0.251;exitDx=0;exitDy=0;exitPerimeter=0;" parent="q19kQmwosjWfE1o3z2rh-4" source="O4jykv7NWjR9x2Ka1mOF-2" target="Hw0tdQEkplnBngI8c9Y9-2" edge="1">
          <mxGeometry relative="1" as="geometry">
            <mxPoint x="95" y="90" as="sourcePoint" />
            <Array as="points">
              <mxPoint x="125" y="90" />
              <mxPoint x="125" y="110" />
            </Array>
          </mxGeometry>
        </mxCell>
        <mxCell id="Hw0tdQEkplnBngI8c9Y9-4" value="" style="html=1;points=[];perimeter=orthogonalPerimeter;rounded=0;" parent="q19kQmwosjWfE1o3z2rh-4" vertex="1">
          <mxGeometry x="90" y="270" width="10" height="40" as="geometry" />
        </mxCell>
        <mxCell id="Hw0tdQEkplnBngI8c9Y9-5" value="" style="edgeStyle=orthogonalEdgeStyle;html=1;align=left;spacingLeft=2;endArrow=block;rounded=0;entryX=1;entryY=0;exitX=0.967;exitY=0.567;exitDx=0;exitDy=0;exitPerimeter=0;" parent="q19kQmwosjWfE1o3z2rh-4" source="O4jykv7NWjR9x2Ka1mOF-6" target="Hw0tdQEkplnBngI8c9Y9-4" edge="1">
          <mxGeometry relative="1" as="geometry">
            <mxPoint x="95" y="250" as="sourcePoint" />
            <Array as="points">
              <mxPoint x="125" y="249" />
              <mxPoint x="125" y="270" />
            </Array>
          </mxGeometry>
        </mxCell>
        <mxCell id="Hw0tdQEkplnBngI8c9Y9-6" value="" style="html=1;points=[];perimeter=orthogonalPerimeter;rounded=0;" parent="q19kQmwosjWfE1o3z2rh-4" vertex="1">
          <mxGeometry x="90" y="200" width="10" height="40" as="geometry" />
        </mxCell>
        <mxCell id="Hw0tdQEkplnBngI8c9Y9-7" value="" style="edgeStyle=orthogonalEdgeStyle;html=1;align=left;spacingLeft=2;endArrow=block;rounded=0;entryX=1;entryY=0;exitX=1;exitY=0.071;exitDx=0;exitDy=0;exitPerimeter=0;" parent="q19kQmwosjWfE1o3z2rh-4" source="O4jykv7NWjR9x2Ka1mOF-6" target="Hw0tdQEkplnBngI8c9Y9-6" edge="1">
          <mxGeometry x="0.0667" y="35" relative="1" as="geometry">
            <mxPoint x="95" y="180" as="sourcePoint" />
            <Array as="points">
              <mxPoint x="125" y="180" />
              <mxPoint x="125" y="200" />
            </Array>
            <mxPoint as="offset" />
          </mxGeometry>
        </mxCell>
        <mxCell id="O4jykv7NWjR9x2Ka1mOF-13" value="" style="html=1;points=[];perimeter=orthogonalPerimeter;" parent="q19kQmwosjWfE1o3z2rh-4" vertex="1">
          <mxGeometry x="80" y="340" width="10" height="80" as="geometry" />
        </mxCell>
        <mxCell id="lCJ_ZCVLX1684HxnLx2j-0" value="" style="html=1;points=[];perimeter=orthogonalPerimeter;rounded=0;" parent="q19kQmwosjWfE1o3z2rh-4" vertex="1">
          <mxGeometry x="90" y="380" width="10" height="40" as="geometry" />
        </mxCell>
        <mxCell id="lCJ_ZCVLX1684HxnLx2j-1" value="" style="edgeStyle=orthogonalEdgeStyle;html=1;align=left;spacingLeft=2;endArrow=block;rounded=0;entryX=1;entryY=0;exitX=1.06;exitY=0.245;exitDx=0;exitDy=0;exitPerimeter=0;" parent="q19kQmwosjWfE1o3z2rh-4" source="O4jykv7NWjR9x2Ka1mOF-13" target="lCJ_ZCVLX1684HxnLx2j-0" edge="1">
          <mxGeometry relative="1" as="geometry">
            <mxPoint x="95" y="360" as="sourcePoint" />
            <Array as="points">
              <mxPoint x="125" y="360" />
              <mxPoint x="125" y="380" />
            </Array>
          </mxGeometry>
        </mxCell>
        <mxCell id="lCJ_ZCVLX1684HxnLx2j-2" value="" style="html=1;points=[];perimeter=orthogonalPerimeter;rounded=0;" parent="q19kQmwosjWfE1o3z2rh-4" vertex="1">
          <mxGeometry x="90" y="510" width="10" height="40" as="geometry" />
        </mxCell>
        <mxCell id="lCJ_ZCVLX1684HxnLx2j-3" value="" style="edgeStyle=orthogonalEdgeStyle;html=1;align=left;spacingLeft=2;endArrow=block;rounded=0;entryX=1;entryY=0;exitX=0.972;exitY=0.251;exitDx=0;exitDy=0;exitPerimeter=0;" parent="q19kQmwosjWfE1o3z2rh-4" source="O4jykv7NWjR9x2Ka1mOF-33" target="lCJ_ZCVLX1684HxnLx2j-2" edge="1">
          <mxGeometry relative="1" as="geometry">
            <mxPoint x="95" y="490" as="sourcePoint" />
            <Array as="points">
              <mxPoint x="125" y="490" />
              <mxPoint x="125" y="510" />
            </Array>
          </mxGeometry>
        </mxCell>
        <mxCell id="lCJ_ZCVLX1684HxnLx2j-10" value="" style="html=1;points=[];perimeter=orthogonalPerimeter;rounded=0;" parent="q19kQmwosjWfE1o3z2rh-4" vertex="1">
          <mxGeometry x="90" y="630" width="10" height="40" as="geometry" />
        </mxCell>
        <mxCell id="lCJ_ZCVLX1684HxnLx2j-11" value="" style="edgeStyle=orthogonalEdgeStyle;html=1;align=left;spacingLeft=2;endArrow=block;rounded=0;entryX=1;entryY=0;exitX=1.014;exitY=0.237;exitDx=0;exitDy=0;exitPerimeter=0;" parent="q19kQmwosjWfE1o3z2rh-4" source="O4jykv7NWjR9x2Ka1mOF-41" target="lCJ_ZCVLX1684HxnLx2j-10" edge="1">
          <mxGeometry relative="1" as="geometry">
            <mxPoint x="95" y="610" as="sourcePoint" />
            <Array as="points">
              <mxPoint x="90" y="610" />
              <mxPoint x="125" y="610" />
              <mxPoint x="125" y="630" />
            </Array>
          </mxGeometry>
        </mxCell>
        <mxCell id="lCJ_ZCVLX1684HxnLx2j-12" value="" style="html=1;points=[];perimeter=orthogonalPerimeter;rounded=0;" parent="q19kQmwosjWfE1o3z2rh-4" vertex="1">
          <mxGeometry x="90" y="760" width="10" height="40" as="geometry" />
        </mxCell>
        <mxCell id="lCJ_ZCVLX1684HxnLx2j-13" value="" style="edgeStyle=orthogonalEdgeStyle;html=1;align=left;spacingLeft=2;endArrow=block;rounded=0;entryX=1;entryY=0;" parent="q19kQmwosjWfE1o3z2rh-4" source="O4jykv7NWjR9x2Ka1mOF-52" target="lCJ_ZCVLX1684HxnLx2j-12" edge="1">
          <mxGeometry relative="1" as="geometry">
            <mxPoint x="95" y="740" as="sourcePoint" />
            <Array as="points">
              <mxPoint x="125" y="740" />
              <mxPoint x="125" y="760" />
            </Array>
          </mxGeometry>
        </mxCell>
        <mxCell id="lCJ_ZCVLX1684HxnLx2j-14" value="" style="html=1;points=[];perimeter=orthogonalPerimeter;rounded=0;" parent="q19kQmwosjWfE1o3z2rh-4" vertex="1">
          <mxGeometry x="90" y="890" width="10" height="40" as="geometry" />
        </mxCell>
        <mxCell id="lCJ_ZCVLX1684HxnLx2j-15" value="" style="edgeStyle=orthogonalEdgeStyle;html=1;align=left;spacingLeft=2;endArrow=block;rounded=0;entryX=1;entryY=0;" parent="q19kQmwosjWfE1o3z2rh-4" source="O4jykv7NWjR9x2Ka1mOF-56" target="lCJ_ZCVLX1684HxnLx2j-14" edge="1">
          <mxGeometry relative="1" as="geometry">
            <mxPoint x="95" y="870" as="sourcePoint" />
            <Array as="points">
              <mxPoint x="125" y="870" />
              <mxPoint x="125" y="890" />
            </Array>
          </mxGeometry>
        </mxCell>
        <mxCell id="O4jykv7NWjR9x2Ka1mOF-3" value="" style="html=1;verticalAlign=bottom;endArrow=block;rounded=0;" parent="q19kQmwosjWfE1o3z2rh-1" target="q19kQmwosjWfE1o3z2rh-4" edge="1">
          <mxGeometry x="0.1241" y="10" width="80" relative="1" as="geometry">
            <mxPoint x="150" y="200" as="sourcePoint" />
            <mxPoint x="230" y="200" as="targetPoint" />
            <mxPoint as="offset" />
          </mxGeometry>
        </mxCell>
        <mxCell id="O4jykv7NWjR9x2Ka1mOF-4" value="1.EDER创建案件&amp;nbsp;" style="text;html=1;align=center;verticalAlign=middle;resizable=0;points=[];autosize=1;strokeColor=none;fillColor=none;" parent="q19kQmwosjWfE1o3z2rh-1" vertex="1">
          <mxGeometry x="230" y="180" width="110" height="20" as="geometry" />
        </mxCell>
        <mxCell id="O4jykv7NWjR9x2Ka1mOF-5" value="" style="html=1;verticalAlign=bottom;endArrow=open;dashed=1;endSize=8;rounded=0;exitX=-0.165;exitY=1.001;exitDx=0;exitDy=0;exitPerimeter=0;" parent="q19kQmwosjWfE1o3z2rh-1" source="O4jykv7NWjR9x2Ka1mOF-2" edge="1">
          <mxGeometry relative="1" as="geometry">
            <mxPoint x="570" y="280" as="sourcePoint" />
            <mxPoint x="150" y="279.8" as="targetPoint" />
          </mxGeometry>
        </mxCell>
        <mxCell id="O4jykv7NWjR9x2Ka1mOF-108" style="edgeStyle=none;rounded=0;orthogonalLoop=1;jettySize=auto;html=1;dashed=1;endArrow=none;endFill=0;entryX=0.421;entryY=-0.019;entryDx=0;entryDy=0;entryPerimeter=0;" parent="q19kQmwosjWfE1o3z2rh-1" source="O4jykv7NWjR9x2Ka1mOF-10" target="O4jykv7NWjR9x2Ka1mOF-107" edge="1">
          <mxGeometry relative="1" as="geometry">
            <mxPoint x="430" y="170" as="targetPoint" />
          </mxGeometry>
        </mxCell>
        <mxCell id="O4jykv7NWjR9x2Ka1mOF-10" value="俩个角色都可创建" style="shape=note;size=20;whiteSpace=wrap;html=1;fillColor=#e1d5e7;strokeColor=#9673a6;" parent="q19kQmwosjWfE1o3z2rh-1" vertex="1">
          <mxGeometry x="475" y="-70" width="100" height="100" as="geometry" />
        </mxCell>
        <mxCell id="O4jykv7NWjR9x2Ka1mOF-16" value="" style="html=1;verticalAlign=bottom;endArrow=open;dashed=1;endSize=8;rounded=0;" parent="q19kQmwosjWfE1o3z2rh-1" source="q19kQmwosjWfE1o3z2rh-4" edge="1">
          <mxGeometry relative="1" as="geometry">
            <mxPoint x="230" y="550" as="sourcePoint" />
            <mxPoint x="150" y="550" as="targetPoint" />
          </mxGeometry>
        </mxCell>
        <mxCell id="O4jykv7NWjR9x2Ka1mOF-29" value="提交案件 状态更改为待审评" style="text;html=1;align=center;verticalAlign=middle;resizable=0;points=[];autosize=1;strokeColor=none;fillColor=none;" parent="q19kQmwosjWfE1o3z2rh-1" vertex="1">
          <mxGeometry x="780" y="220" width="160" height="20" as="geometry" />
        </mxCell>
        <mxCell id="O4jykv7NWjR9x2Ka1mOF-31" value="更新完成 状态更改为待发布" style="text;html=1;align=center;verticalAlign=middle;resizable=0;points=[];autosize=1;strokeColor=none;fillColor=none;" parent="q19kQmwosjWfE1o3z2rh-1" vertex="1">
          <mxGeometry x="770" y="490" width="160" height="20" as="geometry" />
        </mxCell>
        <mxCell id="O4jykv7NWjR9x2Ka1mOF-34" value="" style="html=1;verticalAlign=bottom;endArrow=block;rounded=0;" parent="q19kQmwosjWfE1o3z2rh-1" target="q19kQmwosjWfE1o3z2rh-4" edge="1">
          <mxGeometry width="80" relative="1" as="geometry">
            <mxPoint x="150" y="600" as="sourcePoint" />
            <mxPoint x="230" y="600" as="targetPoint" />
          </mxGeometry>
        </mxCell>
        <mxCell id="O4jykv7NWjR9x2Ka1mOF-35" value="3.EDER案件发布" style="text;html=1;align=center;verticalAlign=middle;resizable=0;points=[];autosize=1;strokeColor=none;fillColor=none;" parent="q19kQmwosjWfE1o3z2rh-1" vertex="1">
          <mxGeometry x="375" y="575" width="110" height="20" as="geometry" />
        </mxCell>
        <mxCell id="O4jykv7NWjR9x2Ka1mOF-38" value="" style="html=1;verticalAlign=bottom;endArrow=open;dashed=1;endSize=8;rounded=0;" parent="q19kQmwosjWfE1o3z2rh-1" source="q19kQmwosjWfE1o3z2rh-4" edge="1">
          <mxGeometry relative="1" as="geometry">
            <mxPoint x="230" y="680" as="sourcePoint" />
            <mxPoint x="150" y="680" as="targetPoint" />
          </mxGeometry>
        </mxCell>
        <mxCell id="O4jykv7NWjR9x2Ka1mOF-46" value="4.DLR反馈申请" style="text;html=1;align=center;verticalAlign=middle;resizable=0;points=[];autosize=1;strokeColor=none;fillColor=none;" parent="q19kQmwosjWfE1o3z2rh-1" vertex="1">
          <mxGeometry x="575" y="700" width="100" height="20" as="geometry" />
        </mxCell>
        <mxCell id="O4jykv7NWjR9x2Ka1mOF-50" value="更新完成 状态更改待案件确定" style="text;html=1;align=center;verticalAlign=middle;resizable=0;points=[];autosize=1;strokeColor=none;fillColor=none;" parent="q19kQmwosjWfE1o3z2rh-1" vertex="1">
          <mxGeometry x="775" y="740" width="170" height="20" as="geometry" />
        </mxCell>
        <mxCell id="O4jykv7NWjR9x2Ka1mOF-51" value="" style="html=1;verticalAlign=bottom;endArrow=block;rounded=0;" parent="q19kQmwosjWfE1o3z2rh-1" target="O4jykv7NWjR9x2Ka1mOF-52" edge="1">
          <mxGeometry width="80" relative="1" as="geometry">
            <mxPoint x="150" y="850" as="sourcePoint" />
            <mxPoint x="530" y="850" as="targetPoint" />
            <Array as="points">
              <mxPoint x="580" y="850" />
            </Array>
          </mxGeometry>
        </mxCell>
        <mxCell id="O4jykv7NWjR9x2Ka1mOF-53" value="" style="html=1;verticalAlign=bottom;endArrow=open;dashed=1;endSize=8;rounded=0;" parent="q19kQmwosjWfE1o3z2rh-1" source="q19kQmwosjWfE1o3z2rh-4" edge="1">
          <mxGeometry relative="1" as="geometry">
            <mxPoint x="230" y="930" as="sourcePoint" />
            <mxPoint x="150" y="930" as="targetPoint" />
          </mxGeometry>
        </mxCell>
        <mxCell id="O4jykv7NWjR9x2Ka1mOF-54" value="5.案件现地补录" style="text;html=1;align=center;verticalAlign=middle;resizable=0;points=[];autosize=1;strokeColor=none;fillColor=none;" parent="q19kQmwosjWfE1o3z2rh-1" vertex="1">
          <mxGeometry x="250" y="830" width="100" height="20" as="geometry" />
        </mxCell>
        <mxCell id="O4jykv7NWjR9x2Ka1mOF-59" value="5.1案件现地实施" style="html=1;verticalAlign=bottom;endArrow=block;rounded=0;" parent="q19kQmwosjWfE1o3z2rh-1" target="q19kQmwosjWfE1o3z2rh-4" edge="1">
          <mxGeometry x="-0.1221" y="10" width="80" relative="1" as="geometry">
            <mxPoint x="370" y="980" as="sourcePoint" />
            <mxPoint x="450" y="980" as="targetPoint" />
            <mxPoint as="offset" />
          </mxGeometry>
        </mxCell>
        <mxCell id="O4jykv7NWjR9x2Ka1mOF-60" value="" style="html=1;verticalAlign=bottom;endArrow=open;dashed=1;endSize=8;rounded=0;exitX=-0.2;exitY=1;exitDx=0;exitDy=0;exitPerimeter=0;" parent="q19kQmwosjWfE1o3z2rh-1" source="O4jykv7NWjR9x2Ka1mOF-56" target="q19kQmwosjWfE1o3z2rh-3" edge="1">
          <mxGeometry relative="1" as="geometry">
            <mxPoint x="560" y="1060" as="sourcePoint" />
            <mxPoint x="480" y="1060" as="targetPoint" />
          </mxGeometry>
        </mxCell>
        <mxCell id="O4jykv7NWjR9x2Ka1mOF-65" value="更新完成&amp;nbsp; 状态更改为待完结" style="text;html=1;align=center;verticalAlign=middle;resizable=0;points=[];autosize=1;strokeColor=none;fillColor=none;" parent="q19kQmwosjWfE1o3z2rh-1" vertex="1">
          <mxGeometry x="785" y="870" width="170" height="20" as="geometry" />
        </mxCell>
        <mxCell id="O4jykv7NWjR9x2Ka1mOF-66" value="更新完成 状态更改为待完结" style="text;html=1;align=center;verticalAlign=middle;resizable=0;points=[];autosize=1;strokeColor=none;fillColor=none;" parent="q19kQmwosjWfE1o3z2rh-1" vertex="1">
          <mxGeometry x="785" y="1000" width="160" height="20" as="geometry" />
        </mxCell>
        <mxCell id="O4jykv7NWjR9x2Ka1mOF-68" style="edgeStyle=none;rounded=0;orthogonalLoop=1;jettySize=auto;html=1;exitX=0;exitY=0;exitDx=0;exitDy=0;exitPerimeter=0;endArrow=none;endFill=0;entryX=0.983;entryY=0.5;entryDx=0;entryDy=0;entryPerimeter=0;dashed=1;" parent="q19kQmwosjWfE1o3z2rh-1" source="O4jykv7NWjR9x2Ka1mOF-67" target="O4jykv7NWjR9x2Ka1mOF-65" edge="1">
          <mxGeometry relative="1" as="geometry">
            <mxPoint x="680" y="880" as="targetPoint" />
          </mxGeometry>
        </mxCell>
        <mxCell id="O4jykv7NWjR9x2Ka1mOF-70" style="edgeStyle=none;rounded=0;orthogonalLoop=1;jettySize=auto;html=1;dashed=1;endArrow=none;endFill=0;" parent="q19kQmwosjWfE1o3z2rh-1" source="O4jykv7NWjR9x2Ka1mOF-67" target="O4jykv7NWjR9x2Ka1mOF-66" edge="1">
          <mxGeometry relative="1" as="geometry">
            <mxPoint x="690" y="1010" as="targetPoint" />
          </mxGeometry>
        </mxCell>
        <mxCell id="O4jykv7NWjR9x2Ka1mOF-67" value="1.判断是是否现地确认进入现地补录&lt;br&gt;2.判断是否现地实施进入现地实施" style="shape=note;size=20;whiteSpace=wrap;html=1;fillColor=#e1d5e7;strokeColor=#9673a6;" parent="q19kQmwosjWfE1o3z2rh-1" vertex="1">
          <mxGeometry x="1060" y="910" width="100" height="100" as="geometry" />
        </mxCell>
        <mxCell id="O4jykv7NWjR9x2Ka1mOF-81" value="&lt;span style=&quot;font-size: 11px ; background-color: rgb(255 , 255 , 255)&quot;&gt;1.1QA创建案件&lt;/span&gt;" style="text;html=1;align=center;verticalAlign=middle;resizable=0;points=[];autosize=1;strokeColor=none;fillColor=none;" parent="q19kQmwosjWfE1o3z2rh-1" vertex="1">
          <mxGeometry x="420" y="280" width="100" height="20" as="geometry" />
        </mxCell>
        <mxCell id="O4jykv7NWjR9x2Ka1mOF-82" value="" style="html=1;verticalAlign=bottom;endArrow=open;dashed=1;endSize=8;rounded=0;exitX=0.055;exitY=1.002;exitDx=0;exitDy=0;exitPerimeter=0;" parent="q19kQmwosjWfE1o3z2rh-1" source="O4jykv7NWjR9x2Ka1mOF-6" target="q19kQmwosjWfE1o3z2rh-3" edge="1">
          <mxGeometry relative="1" as="geometry">
            <mxPoint x="570" y="420" as="sourcePoint" />
            <mxPoint x="490" y="420" as="targetPoint" />
          </mxGeometry>
        </mxCell>
        <mxCell id="O4jykv7NWjR9x2Ka1mOF-87" value="" style="html=1;verticalAlign=bottom;endArrow=block;rounded=0;" parent="q19kQmwosjWfE1o3z2rh-1" target="q19kQmwosjWfE1o3z2rh-4" edge="1">
          <mxGeometry x="0.0501" y="20" width="80" relative="1" as="geometry">
            <mxPoint x="370" y="300" as="sourcePoint" />
            <mxPoint x="450" y="300" as="targetPoint" />
            <mxPoint as="offset" />
          </mxGeometry>
        </mxCell>
        <mxCell id="O4jykv7NWjR9x2Ka1mOF-95" value="1.1.2 保存案件" style="text;html=1;align=center;verticalAlign=middle;resizable=0;points=[];autosize=1;strokeColor=none;fillColor=none;" parent="q19kQmwosjWfE1o3z2rh-1" vertex="1">
          <mxGeometry x="785" y="310" width="90" height="20" as="geometry" />
        </mxCell>
        <mxCell id="O4jykv7NWjR9x2Ka1mOF-96" value="1.1.3 提交案件&amp;nbsp;&amp;nbsp;状态更改为待审评" style="text;html=1;align=center;verticalAlign=middle;resizable=0;points=[];autosize=1;strokeColor=none;fillColor=none;" parent="q19kQmwosjWfE1o3z2rh-1" vertex="1">
          <mxGeometry x="780" y="380" width="200" height="20" as="geometry" />
        </mxCell>
        <mxCell id="O4jykv7NWjR9x2Ka1mOF-98" style="edgeStyle=none;rounded=0;orthogonalLoop=1;jettySize=auto;html=1;entryX=1.044;entryY=0.65;entryDx=0;entryDy=0;entryPerimeter=0;endArrow=none;endFill=0;dashed=1;" parent="q19kQmwosjWfE1o3z2rh-1" source="O4jykv7NWjR9x2Ka1mOF-97" target="O4jykv7NWjR9x2Ka1mOF-95" edge="1">
          <mxGeometry relative="1" as="geometry" />
        </mxCell>
        <mxCell id="O4jykv7NWjR9x2Ka1mOF-99" style="edgeStyle=none;rounded=0;orthogonalLoop=1;jettySize=auto;html=1;endArrow=none;endFill=0;dashed=1;" parent="q19kQmwosjWfE1o3z2rh-1" source="O4jykv7NWjR9x2Ka1mOF-97" edge="1">
          <mxGeometry relative="1" as="geometry">
            <mxPoint x="970" y="390" as="targetPoint" />
          </mxGeometry>
        </mxCell>
        <mxCell id="O4jykv7NWjR9x2Ka1mOF-97" value="&lt;span&gt;1.保存案件：将填写的案件信息变为保存状态，下次创建时判断是否有保存，则回显案件信息&lt;br&gt;2.提交案件：生成案件信息&lt;br&gt;&lt;/span&gt;" style="shape=note;size=20;whiteSpace=wrap;html=1;fillColor=#e1d5e7;strokeColor=#9673a6;" parent="q19kQmwosjWfE1o3z2rh-1" vertex="1">
          <mxGeometry x="1000" y="220" width="140" height="110" as="geometry" />
        </mxCell>
        <mxCell id="O4jykv7NWjR9x2Ka1mOF-101" style="edgeStyle=none;rounded=0;orthogonalLoop=1;jettySize=auto;html=1;dashed=1;endArrow=none;endFill=0;entryX=0.995;entryY=0.508;entryDx=0;entryDy=0;entryPerimeter=0;" parent="q19kQmwosjWfE1o3z2rh-1" source="O4jykv7NWjR9x2Ka1mOF-100" target="O4jykv7NWjR9x2Ka1mOF-31" edge="1">
          <mxGeometry relative="1" as="geometry">
            <mxPoint x="790" y="500" as="targetPoint" />
          </mxGeometry>
        </mxCell>
        <mxCell id="O4jykv7NWjR9x2Ka1mOF-100" value="1.可拒绝评审但拒绝评审时该案件打回创建流程&lt;br&gt;2.如果已经有反馈要带到新的案件中" style="shape=note;size=20;whiteSpace=wrap;html=1;fillColor=#e1d5e7;strokeColor=#9673a6;" parent="q19kQmwosjWfE1o3z2rh-1" vertex="1">
          <mxGeometry x="990" y="420" width="100" height="100" as="geometry" />
        </mxCell>
        <mxCell id="O4jykv7NWjR9x2Ka1mOF-102" value="发布完后可修改案件1.生成一个新的案件2.如果是修改生成的需要将旧的状态改为已撤下" style="shape=note;size=20;whiteSpace=wrap;html=1;fillColor=#e1d5e7;strokeColor=#9673a6;" parent="q19kQmwosjWfE1o3z2rh-1" vertex="1">
          <mxGeometry x="860" y="560" width="100" height="100" as="geometry" />
        </mxCell>
        <mxCell id="O4jykv7NWjR9x2Ka1mOF-105" style="edgeStyle=none;rounded=0;orthogonalLoop=1;jettySize=auto;html=1;dashed=1;endArrow=none;endFill=0;" parent="q19kQmwosjWfE1o3z2rh-1" source="O4jykv7NWjR9x2Ka1mOF-104" edge="1">
          <mxGeometry relative="1" as="geometry">
            <mxPoint x="950" y="750" as="targetPoint" />
          </mxGeometry>
        </mxCell>
        <mxCell id="O4jykv7NWjR9x2Ka1mOF-104" value="反馈完自动生成反馈记录" style="shape=note;size=20;whiteSpace=wrap;html=1;fillColor=#e1d5e7;strokeColor=#9673a6;" parent="q19kQmwosjWfE1o3z2rh-1" vertex="1">
          <mxGeometry x="1020" y="680" width="100" height="100" as="geometry" />
        </mxCell>
        <mxCell id="O4jykv7NWjR9x2Ka1mOF-107" value="备注" style="shape=umlFrame;whiteSpace=wrap;html=1;" parent="q19kQmwosjWfE1o3z2rh-1" vertex="1">
          <mxGeometry x="80" y="180" width="890" height="270" as="geometry" />
        </mxCell>
        <mxCell id="Hw0tdQEkplnBngI8c9Y9-0" value="DLR" style="shape=umlLifeline;perimeter=lifelinePerimeter;whiteSpace=wrap;html=1;container=1;collapsible=0;recursiveResize=0;outlineConnect=0;rounded=0;" parent="q19kQmwosjWfE1o3z2rh-1" vertex="1">
          <mxGeometry x="485" y="130" width="100" height="1160" as="geometry" />
        </mxCell>
        <mxCell id="O4jykv7NWjR9x2Ka1mOF-40" value="" style="html=1;points=[];perimeter=orthogonalPerimeter;" parent="Hw0tdQEkplnBngI8c9Y9-0" vertex="1">
          <mxGeometry x="45" y="590" width="10" height="80" as="geometry" />
        </mxCell>
        <mxCell id="8pAIVAV9H7cxAGj1b9BV-5" value="caseFeedbackApply&amp;nbsp;()" style="shape=note;size=20;whiteSpace=wrap;html=1;fillColor=#fff2cc;strokeColor=#d6b656;" parent="Hw0tdQEkplnBngI8c9Y9-0" vertex="1">
          <mxGeometry x="-80" y="570" width="170" height="20" as="geometry" />
        </mxCell>
        <mxCell id="O4jykv7NWjR9x2Ka1mOF-17" value="2.DLR案件评审" style="text;html=1;align=center;verticalAlign=middle;resizable=0;points=[];autosize=1;strokeColor=none;fillColor=none;" parent="q19kQmwosjWfE1o3z2rh-1" vertex="1">
          <mxGeometry x="390" y="450" width="100" height="20" as="geometry" />
        </mxCell>
        <mxCell id="lCJ_ZCVLX1684HxnLx2j-5" style="edgeStyle=none;rounded=0;orthogonalLoop=1;jettySize=auto;html=1;dashed=1;endArrow=none;endFill=0;entryX=0.995;entryY=0.508;entryDx=0;entryDy=0;entryPerimeter=0;" parent="q19kQmwosjWfE1o3z2rh-1" edge="1">
          <mxGeometry relative="1" as="geometry">
            <mxPoint x="799.6000000000003" y="626.5499999999998" as="targetPoint" />
            <mxPoint x="860.4" y="610.000108303249" as="sourcePoint" />
          </mxGeometry>
        </mxCell>
        <mxCell id="lCJ_ZCVLX1684HxnLx2j-8" value="" style="html=1;verticalAlign=bottom;endArrow=block;rounded=0;" parent="q19kQmwosjWfE1o3z2rh-1" edge="1">
          <mxGeometry width="80" relative="1" as="geometry">
            <mxPoint x="540" y="720" as="sourcePoint" />
            <mxPoint x="735" y="720" as="targetPoint" />
          </mxGeometry>
        </mxCell>
        <mxCell id="lCJ_ZCVLX1684HxnLx2j-9" value="" style="html=1;verticalAlign=bottom;endArrow=open;dashed=1;endSize=8;rounded=0;" parent="q19kQmwosjWfE1o3z2rh-1" source="q19kQmwosjWfE1o3z2rh-4" edge="1">
          <mxGeometry relative="1" as="geometry">
            <mxPoint x="615" y="800" as="sourcePoint" />
            <mxPoint x="535" y="800" as="targetPoint" />
          </mxGeometry>
        </mxCell>
        <mxCell id="8pAIVAV9H7cxAGj1b9BV-0" value="addCaseiInfo()" style="shape=note;size=20;whiteSpace=wrap;html=1;fillColor=#fff2cc;strokeColor=#d6b656;" parent="q19kQmwosjWfE1o3z2rh-1" vertex="1">
          <mxGeometry x="390" y="180" width="140" height="20" as="geometry" />
        </mxCell>
        <mxCell id="8pAIVAV9H7cxAGj1b9BV-1" value="addCaseiInfo()" style="shape=note;size=20;whiteSpace=wrap;html=1;fillColor=#fff2cc;strokeColor=#d6b656;" parent="q19kQmwosjWfE1o3z2rh-1" vertex="1">
          <mxGeometry x="560" y="280" width="140" height="20" as="geometry" />
        </mxCell>
        <mxCell id="8pAIVAV9H7cxAGj1b9BV-3" value="caseImplementation()" style="shape=note;size=20;whiteSpace=wrap;html=1;fillColor=#e1d5e7;strokeColor=#9673a6;" parent="q19kQmwosjWfE1o3z2rh-1" vertex="1">
          <mxGeometry x="540" y="980" width="160" height="20" as="geometry" />
        </mxCell>
        <mxCell id="8pAIVAV9H7cxAGj1b9BV-6" value="caseRelease()" style="shape=note;size=20;whiteSpace=wrap;html=1;fillColor=#fff2cc;strokeColor=#d6b656;" parent="q19kQmwosjWfE1o3z2rh-1" vertex="1">
          <mxGeometry x="540" y="575" width="140" height="20" as="geometry" />
        </mxCell>
        <mxCell id="8pAIVAV9H7cxAGj1b9BV-7" value="caseReview()" style="shape=note;size=20;whiteSpace=wrap;html=1;fillColor=#fff2cc;strokeColor=#d6b656;" parent="q19kQmwosjWfE1o3z2rh-1" vertex="1">
          <mxGeometry x="550" y="450" width="140" height="20" as="geometry" />
        </mxCell>
        <mxCell id="Y25m2rWTwfxSGcuQlF-e-0" value="caseFieldSurvey()" style="shape=note;size=20;whiteSpace=wrap;html=1;fillColor=#fff2cc;strokeColor=#d6b656;" parent="q19kQmwosjWfE1o3z2rh-1" vertex="1">
          <mxGeometry x="390" y="830" width="140" height="20" as="geometry" />
        </mxCell>
      </root>
    </mxGraphModel>
  </diagram>
  <diagram name="Page-4" id="ku8pemy0PfeNybJqOcu7">
    <mxGraphModel dx="2105" dy="579" grid="1" gridSize="10" guides="1" tooltips="1" connect="1" arrows="1" fold="1" page="1" pageScale="1" pageWidth="827" pageHeight="1169" math="0" shadow="0">
      <root>
        <mxCell id="sFWC_ZGZAxWHbm_E73ft-0" />
        <mxCell id="sFWC_ZGZAxWHbm_E73ft-1" parent="sFWC_ZGZAxWHbm_E73ft-0" />
        <mxCell id="ZKJsQCSqWeG-n03xMEXC-0" value="" style="rounded=1;whiteSpace=wrap;html=1;dashed=1;fillColor=#d5e8d4;strokeColor=#82b366;" parent="sFWC_ZGZAxWHbm_E73ft-1" vertex="1">
          <mxGeometry x="-620" y="160" width="990" height="440" as="geometry" />
        </mxCell>
        <mxCell id="zhxlGpXSoZ1X9MbQopwY-2" style="edgeStyle=orthogonalEdgeStyle;rounded=0;orthogonalLoop=1;jettySize=auto;html=1;" parent="sFWC_ZGZAxWHbm_E73ft-1" source="ZKJsQCSqWeG-n03xMEXC-1" target="zhxlGpXSoZ1X9MbQopwY-1" edge="1">
          <mxGeometry relative="1" as="geometry" />
        </mxCell>
        <mxCell id="zhxlGpXSoZ1X9MbQopwY-5" value="EDER审核" style="edgeLabel;html=1;align=center;verticalAlign=middle;resizable=0;points=[];" parent="zhxlGpXSoZ1X9MbQopwY-2" vertex="1" connectable="0">
          <mxGeometry x="-0.08" y="1" relative="1" as="geometry">
            <mxPoint as="offset" />
          </mxGeometry>
        </mxCell>
        <mxCell id="ZKJsQCSqWeG-n03xMEXC-1" value="已发布" style="rounded=0;whiteSpace=wrap;html=1;" parent="sFWC_ZGZAxWHbm_E73ft-1" vertex="1">
          <mxGeometry x="-300" y="350" width="120" height="60" as="geometry" />
        </mxCell>
        <mxCell id="ZKJsQCSqWeG-n03xMEXC-5" value="已完结" style="rounded=0;whiteSpace=wrap;html=1;" parent="sFWC_ZGZAxWHbm_E73ft-1" vertex="1">
          <mxGeometry x="150" y="350" width="120" height="60" as="geometry" />
        </mxCell>
        <mxCell id="ZKJsQCSqWeG-n03xMEXC-6" value="用户" style="rounded=0;whiteSpace=wrap;html=1;" parent="sFWC_ZGZAxWHbm_E73ft-1" vertex="1">
          <mxGeometry x="-810" y="350" width="120" height="60" as="geometry" />
        </mxCell>
        <mxCell id="ZKJsQCSqWeG-n03xMEXC-11" value="已录入" style="rounded=0;whiteSpace=wrap;html=1;" parent="sFWC_ZGZAxWHbm_E73ft-1" vertex="1">
          <mxGeometry x="-570" y="350" width="120" height="60" as="geometry" />
        </mxCell>
        <mxCell id="ZKJsQCSqWeG-n03xMEXC-12" value="" style="html=1;verticalAlign=bottom;endArrow=block;rounded=0;entryX=0;entryY=0.5;entryDx=0;entryDy=0;" parent="sFWC_ZGZAxWHbm_E73ft-1" target="ZKJsQCSqWeG-n03xMEXC-11" edge="1">
          <mxGeometry width="80" relative="1" as="geometry">
            <mxPoint x="-690" y="379.5" as="sourcePoint" />
            <mxPoint x="-610" y="379.5" as="targetPoint" />
          </mxGeometry>
        </mxCell>
        <mxCell id="ZKJsQCSqWeG-n03xMEXC-14" value="EDER案件发布" style="html=1;verticalAlign=bottom;endArrow=block;rounded=0;entryX=0;entryY=0.5;entryDx=0;entryDy=0;exitX=1;exitY=0.5;exitDx=0;exitDy=0;" parent="sFWC_ZGZAxWHbm_E73ft-1" source="ZKJsQCSqWeG-n03xMEXC-11" target="ZKJsQCSqWeG-n03xMEXC-1" edge="1">
          <mxGeometry width="80" relative="1" as="geometry">
            <mxPoint x="-230" y="379.5" as="sourcePoint" />
            <mxPoint x="-150" y="379.5" as="targetPoint" />
          </mxGeometry>
        </mxCell>
        <mxCell id="ZKJsQCSqWeG-n03xMEXC-18" style="edgeStyle=none;rounded=0;orthogonalLoop=1;jettySize=auto;html=1;entryX=0;entryY=0.5;entryDx=0;entryDy=0;endArrow=none;endFill=0;" parent="sFWC_ZGZAxWHbm_E73ft-1" edge="1">
          <mxGeometry relative="1" as="geometry">
            <mxPoint x="500" y="380" as="sourcePoint" />
            <mxPoint x="500" y="380" as="targetPoint" />
          </mxGeometry>
        </mxCell>
        <mxCell id="ZKJsQCSqWeG-n03xMEXC-22" value="EDER创建" style="text;html=1;align=center;verticalAlign=middle;resizable=0;points=[];autosize=1;strokeColor=none;fillColor=none;" parent="sFWC_ZGZAxWHbm_E73ft-1" vertex="1">
          <mxGeometry x="-675" y="360" width="70" height="20" as="geometry" />
        </mxCell>
        <mxCell id="RB-smwtrd3BhhZTNML_I-0" value="现任案件状态迁移" style="text;html=1;align=center;verticalAlign=middle;resizable=0;points=[];autosize=1;strokeColor=none;fillColor=none;" parent="sFWC_ZGZAxWHbm_E73ft-1" vertex="1">
          <mxGeometry x="-595" y="180" width="110" height="20" as="geometry" />
        </mxCell>
        <mxCell id="zhxlGpXSoZ1X9MbQopwY-3" style="edgeStyle=orthogonalEdgeStyle;rounded=0;orthogonalLoop=1;jettySize=auto;html=1;" parent="sFWC_ZGZAxWHbm_E73ft-1" source="zhxlGpXSoZ1X9MbQopwY-1" target="ZKJsQCSqWeG-n03xMEXC-5" edge="1">
          <mxGeometry relative="1" as="geometry" />
        </mxCell>
        <mxCell id="zhxlGpXSoZ1X9MbQopwY-6" value="EDER审核通过" style="edgeLabel;html=1;align=center;verticalAlign=middle;resizable=0;points=[];" parent="zhxlGpXSoZ1X9MbQopwY-3" vertex="1" connectable="0">
          <mxGeometry x="-0.1576" y="-1" relative="1" as="geometry">
            <mxPoint as="offset" />
          </mxGeometry>
        </mxCell>
        <mxCell id="zhxlGpXSoZ1X9MbQopwY-1" value="已审核" style="rounded=0;whiteSpace=wrap;html=1;" parent="sFWC_ZGZAxWHbm_E73ft-1" vertex="1">
          <mxGeometry x="-80" y="350" width="120" height="60" as="geometry" />
        </mxCell>
        <mxCell id="zhxlGpXSoZ1X9MbQopwY-11" style="edgeStyle=orthogonalEdgeStyle;rounded=0;orthogonalLoop=1;jettySize=auto;html=1;entryX=0.567;entryY=1.033;entryDx=0;entryDy=0;entryPerimeter=0;" parent="sFWC_ZGZAxWHbm_E73ft-1" source="zhxlGpXSoZ1X9MbQopwY-8" target="zhxlGpXSoZ1X9MbQopwY-1" edge="1">
          <mxGeometry relative="1" as="geometry" />
        </mxCell>
        <mxCell id="zhxlGpXSoZ1X9MbQopwY-12" style="edgeStyle=orthogonalEdgeStyle;rounded=0;orthogonalLoop=1;jettySize=auto;html=1;entryX=0.442;entryY=0.983;entryDx=0;entryDy=0;entryPerimeter=0;curved=1;dashed=1;" parent="sFWC_ZGZAxWHbm_E73ft-1" source="zhxlGpXSoZ1X9MbQopwY-8" target="ZKJsQCSqWeG-n03xMEXC-5" edge="1">
          <mxGeometry relative="1" as="geometry" />
        </mxCell>
        <mxCell id="zhxlGpXSoZ1X9MbQopwY-8" value="同意" style="rhombus;whiteSpace=wrap;html=1;" parent="sFWC_ZGZAxWHbm_E73ft-1" vertex="1">
          <mxGeometry y="470" width="80" height="80" as="geometry" />
        </mxCell>
        <mxCell id="zhxlGpXSoZ1X9MbQopwY-10" style="edgeStyle=orthogonalEdgeStyle;rounded=0;orthogonalLoop=1;jettySize=auto;html=1;entryX=0.558;entryY=1.017;entryDx=0;entryDy=0;entryPerimeter=0;" parent="sFWC_ZGZAxWHbm_E73ft-1" source="zhxlGpXSoZ1X9MbQopwY-9" target="zhxlGpXSoZ1X9MbQopwY-1" edge="1">
          <mxGeometry relative="1" as="geometry" />
        </mxCell>
        <mxCell id="zhxlGpXSoZ1X9MbQopwY-14" value="判断选择" style="edgeLabel;html=1;align=center;verticalAlign=middle;resizable=0;points=[];" parent="zhxlGpXSoZ1X9MbQopwY-10" vertex="1" connectable="0">
          <mxGeometry x="0.4885" y="1" relative="1" as="geometry">
            <mxPoint as="offset" />
          </mxGeometry>
        </mxCell>
        <mxCell id="zhxlGpXSoZ1X9MbQopwY-13" style="edgeStyle=orthogonalEdgeStyle;curved=1;rounded=0;orthogonalLoop=1;jettySize=auto;html=1;entryX=0.5;entryY=1;entryDx=0;entryDy=0;dashed=1;" parent="sFWC_ZGZAxWHbm_E73ft-1" source="zhxlGpXSoZ1X9MbQopwY-9" target="ZKJsQCSqWeG-n03xMEXC-1" edge="1">
          <mxGeometry relative="1" as="geometry" />
        </mxCell>
        <mxCell id="zhxlGpXSoZ1X9MbQopwY-9" value="驳回" style="rhombus;whiteSpace=wrap;html=1;" parent="sFWC_ZGZAxWHbm_E73ft-1" vertex="1">
          <mxGeometry x="-100" y="470" width="80" height="80" as="geometry" />
        </mxCell>
      </root>
    </mxGraphModel>
  </diagram>
  <diagram name="Page-5" id="AY-OSRn3aNTQ0-YoL_lr">
    <mxGraphModel dx="1504" dy="681" grid="1" gridSize="10" guides="1" tooltips="1" connect="1" arrows="1" fold="1" page="1" pageScale="1" pageWidth="827" pageHeight="1169" math="0" shadow="0">
      <root>
        <mxCell id="UYtifntdZZfWKfdKlsUH-0" />
        <mxCell id="UYtifntdZZfWKfdKlsUH-1" parent="UYtifntdZZfWKfdKlsUH-0" />
        <mxCell id="UYtifntdZZfWKfdKlsUH-2" value="DMS-PC BEFF服务" style="shape=umlLifeline;perimeter=lifelinePerimeter;whiteSpace=wrap;html=1;container=1;collapsible=0;recursiveResize=0;outlineConnect=0;" parent="UYtifntdZZfWKfdKlsUH-1" vertex="1">
          <mxGeometry x="270" y="110" width="100" height="450" as="geometry" />
        </mxCell>
        <mxCell id="UYtifntdZZfWKfdKlsUH-7" value="" style="html=1;points=[];perimeter=orthogonalPerimeter;" parent="UYtifntdZZfWKfdKlsUH-2" vertex="1">
          <mxGeometry x="45" y="100" width="10" height="290" as="geometry" />
        </mxCell>
        <mxCell id="UYtifntdZZfWKfdKlsUH-10" value="1.发送现任案件创建请求（）" style="html=1;verticalAlign=bottom;endArrow=block;rounded=0;" parent="UYtifntdZZfWKfdKlsUH-2" source="UYtifntdZZfWKfdKlsUH-6" edge="1">
          <mxGeometry width="80" relative="1" as="geometry">
            <mxPoint x="-35" y="100" as="sourcePoint" />
            <mxPoint x="45" y="100" as="targetPoint" />
          </mxGeometry>
        </mxCell>
        <mxCell id="4f2t__4gUSH8aAKL0DCI-0" value="" style="html=1;verticalAlign=bottom;endArrow=open;dashed=1;endSize=8;rounded=0;curved=1;entryX=1.067;entryY=0.844;entryDx=0;entryDy=0;entryPerimeter=0;" parent="UYtifntdZZfWKfdKlsUH-2" target="UYtifntdZZfWKfdKlsUH-6" edge="1">
          <mxGeometry relative="1" as="geometry">
            <mxPoint x="45" y="350" as="sourcePoint" />
            <mxPoint x="-150" y="350" as="targetPoint" />
          </mxGeometry>
        </mxCell>
        <mxCell id="UYtifntdZZfWKfdKlsUH-3" value="现任案件领域" style="shape=umlLifeline;perimeter=lifelinePerimeter;whiteSpace=wrap;html=1;container=1;collapsible=0;recursiveResize=0;outlineConnect=0;" parent="UYtifntdZZfWKfdKlsUH-1" vertex="1">
          <mxGeometry x="640" y="110" width="100" height="450" as="geometry" />
        </mxCell>
        <mxCell id="UYtifntdZZfWKfdKlsUH-9" value="" style="html=1;points=[];perimeter=orthogonalPerimeter;" parent="UYtifntdZZfWKfdKlsUH-3" vertex="1">
          <mxGeometry x="45" y="200" width="10" height="180" as="geometry" />
        </mxCell>
        <mxCell id="UYtifntdZZfWKfdKlsUH-12" value="3.创建现任案件（）" style="html=1;verticalAlign=bottom;endArrow=block;rounded=0;" parent="UYtifntdZZfWKfdKlsUH-3" source="UYtifntdZZfWKfdKlsUH-5" edge="1">
          <mxGeometry width="80" relative="1" as="geometry">
            <mxPoint x="-35" y="200" as="sourcePoint" />
            <mxPoint x="45" y="200" as="targetPoint" />
          </mxGeometry>
        </mxCell>
        <mxCell id="ycpbWLEgJ9y47tiUJFu6-2" value="" style="html=1;points=[];perimeter=orthogonalPerimeter;" parent="UYtifntdZZfWKfdKlsUH-3" vertex="1">
          <mxGeometry x="55" y="250" width="10" height="40" as="geometry" />
        </mxCell>
        <mxCell id="ycpbWLEgJ9y47tiUJFu6-3" value="3.1.1案件保存 案件信息保存 案件状态改为暂存" style="edgeStyle=orthogonalEdgeStyle;html=1;align=left;spacingLeft=2;endArrow=block;rounded=0;entryX=1;entryY=0;exitX=1.03;exitY=0.167;exitDx=0;exitDy=0;exitPerimeter=0;" parent="UYtifntdZZfWKfdKlsUH-3" source="UYtifntdZZfWKfdKlsUH-9" target="ycpbWLEgJ9y47tiUJFu6-2" edge="1">
          <mxGeometry relative="1" as="geometry">
            <mxPoint x="60" y="230" as="sourcePoint" />
            <Array as="points">
              <mxPoint x="90" y="230" />
              <mxPoint x="90" y="250" />
            </Array>
          </mxGeometry>
        </mxCell>
        <mxCell id="ycpbWLEgJ9y47tiUJFu6-4" value="" style="html=1;points=[];perimeter=orthogonalPerimeter;" parent="UYtifntdZZfWKfdKlsUH-3" vertex="1">
          <mxGeometry x="55" y="330" width="10" height="40" as="geometry" />
        </mxCell>
        <mxCell id="ycpbWLEgJ9y47tiUJFu6-5" value="" style="edgeStyle=orthogonalEdgeStyle;html=1;align=left;spacingLeft=2;endArrow=block;rounded=0;entryX=1;entryY=0;exitX=1;exitY=0.615;exitDx=0;exitDy=0;exitPerimeter=0;" parent="UYtifntdZZfWKfdKlsUH-3" source="UYtifntdZZfWKfdKlsUH-9" target="ycpbWLEgJ9y47tiUJFu6-4" edge="1">
          <mxGeometry relative="1" as="geometry">
            <mxPoint x="60" y="310" as="sourcePoint" />
            <Array as="points">
              <mxPoint x="90" y="311" />
              <mxPoint x="90" y="330" />
            </Array>
          </mxGeometry>
        </mxCell>
        <mxCell id="Y41OxVsRTjosM0sOyGU5-4" value="" style="html=1;verticalAlign=bottom;endArrow=open;dashed=1;endSize=8;rounded=0;curved=1;entryX=0.967;entryY=0.955;entryDx=0;entryDy=0;entryPerimeter=0;" parent="UYtifntdZZfWKfdKlsUH-3" target="UYtifntdZZfWKfdKlsUH-8" edge="1">
          <mxGeometry relative="1" as="geometry">
            <mxPoint x="46" y="370" as="sourcePoint" />
            <mxPoint x="-129.05555555555566" y="370" as="targetPoint" />
          </mxGeometry>
        </mxCell>
        <mxCell id="UYtifntdZZfWKfdKlsUH-4" value="技术支持前端" style="shape=umlLifeline;perimeter=lifelinePerimeter;whiteSpace=wrap;html=1;container=1;collapsible=0;recursiveResize=0;outlineConnect=0;" parent="UYtifntdZZfWKfdKlsUH-1" vertex="1">
          <mxGeometry x="70" y="110" width="100" height="450" as="geometry" />
        </mxCell>
        <mxCell id="UYtifntdZZfWKfdKlsUH-6" value="" style="html=1;points=[];perimeter=orthogonalPerimeter;" parent="UYtifntdZZfWKfdKlsUH-4" vertex="1">
          <mxGeometry x="45" y="80" width="10" height="320" as="geometry" />
        </mxCell>
        <mxCell id="UYtifntdZZfWKfdKlsUH-5" value="现任案件聚合" style="shape=umlLifeline;perimeter=lifelinePerimeter;whiteSpace=wrap;html=1;container=1;collapsible=0;recursiveResize=0;outlineConnect=0;" parent="UYtifntdZZfWKfdKlsUH-1" vertex="1">
          <mxGeometry x="460" y="110" width="100" height="450" as="geometry" />
        </mxCell>
        <mxCell id="UYtifntdZZfWKfdKlsUH-8" value="" style="html=1;points=[];perimeter=orthogonalPerimeter;" parent="UYtifntdZZfWKfdKlsUH-5" vertex="1">
          <mxGeometry x="45" y="140" width="10" height="240" as="geometry" />
        </mxCell>
        <mxCell id="UYtifntdZZfWKfdKlsUH-11" value="2.接收现任案件创建请求（）" style="html=1;verticalAlign=bottom;endArrow=block;rounded=0;" parent="UYtifntdZZfWKfdKlsUH-5" source="UYtifntdZZfWKfdKlsUH-7" edge="1">
          <mxGeometry width="80" relative="1" as="geometry">
            <mxPoint x="-130" y="140" as="sourcePoint" />
            <mxPoint x="45" y="140" as="targetPoint" />
          </mxGeometry>
        </mxCell>
        <mxCell id="Y41OxVsRTjosM0sOyGU5-5" value="" style="html=1;verticalAlign=bottom;endArrow=open;dashed=1;endSize=8;rounded=0;curved=1;" parent="UYtifntdZZfWKfdKlsUH-5" edge="1">
          <mxGeometry relative="1" as="geometry">
            <mxPoint x="45" y="360" as="sourcePoint" />
            <mxPoint x="-140" y="360" as="targetPoint" />
          </mxGeometry>
        </mxCell>
        <mxCell id="UYtifntdZZfWKfdKlsUH-16" value="案件提交&amp;nbsp; 案件状态改为待审核" style="text;html=1;align=center;verticalAlign=middle;resizable=0;points=[];autosize=1;strokeColor=none;fillColor=none;" parent="UYtifntdZZfWKfdKlsUH-1" vertex="1">
          <mxGeometry x="730" y="420" width="180" height="20" as="geometry" />
        </mxCell>
        <mxCell id="FVq77bd8pG-vbMbwd8tE-0" value="DMS-PC BEFF服务" style="shape=umlLifeline;perimeter=lifelinePerimeter;whiteSpace=wrap;html=1;container=1;collapsible=0;recursiveResize=0;outlineConnect=0;" parent="UYtifntdZZfWKfdKlsUH-1" vertex="1">
          <mxGeometry x="220" y="880" width="100" height="360" as="geometry" />
        </mxCell>
        <mxCell id="FVq77bd8pG-vbMbwd8tE-1" value="" style="html=1;points=[];perimeter=orthogonalPerimeter;" parent="FVq77bd8pG-vbMbwd8tE-0" vertex="1">
          <mxGeometry x="45" y="100" width="10" height="150" as="geometry" />
        </mxCell>
        <mxCell id="FVq77bd8pG-vbMbwd8tE-2" value="1.发送现任案件审核请求" style="html=1;verticalAlign=bottom;endArrow=block;rounded=0;" parent="FVq77bd8pG-vbMbwd8tE-0" source="FVq77bd8pG-vbMbwd8tE-10" edge="1">
          <mxGeometry width="80" relative="1" as="geometry">
            <mxPoint x="-35" y="100" as="sourcePoint" />
            <mxPoint x="45" y="100" as="targetPoint" />
          </mxGeometry>
        </mxCell>
        <mxCell id="4f2t__4gUSH8aAKL0DCI-6" value="" style="html=1;verticalAlign=bottom;endArrow=open;dashed=1;endSize=8;rounded=0;curved=1;" parent="FVq77bd8pG-vbMbwd8tE-0" target="FVq77bd8pG-vbMbwd8tE-9" edge="1">
          <mxGeometry relative="1" as="geometry">
            <mxPoint x="45" y="240" as="sourcePoint" />
            <mxPoint x="-35" y="240" as="targetPoint" />
          </mxGeometry>
        </mxCell>
        <mxCell id="FVq77bd8pG-vbMbwd8tE-3" value="现任案件领域" style="shape=umlLifeline;perimeter=lifelinePerimeter;whiteSpace=wrap;html=1;container=1;collapsible=0;recursiveResize=0;outlineConnect=0;" parent="UYtifntdZZfWKfdKlsUH-1" vertex="1">
          <mxGeometry x="590" y="880" width="100" height="360" as="geometry" />
        </mxCell>
        <mxCell id="FVq77bd8pG-vbMbwd8tE-4" value="" style="html=1;points=[];perimeter=orthogonalPerimeter;" parent="FVq77bd8pG-vbMbwd8tE-3" vertex="1">
          <mxGeometry x="45" y="150" width="10" height="180" as="geometry" />
        </mxCell>
        <mxCell id="FVq77bd8pG-vbMbwd8tE-5" value="3.现任案件审核" style="html=1;verticalAlign=bottom;endArrow=block;rounded=0;" parent="FVq77bd8pG-vbMbwd8tE-3" source="FVq77bd8pG-vbMbwd8tE-11" edge="1">
          <mxGeometry width="80" relative="1" as="geometry">
            <mxPoint x="-35" y="200" as="sourcePoint" />
            <mxPoint x="45" y="200" as="targetPoint" />
          </mxGeometry>
        </mxCell>
        <mxCell id="abb7bGbqJ6jjYDXrOOQk-2" value="" style="html=1;points=[];perimeter=orthogonalPerimeter;" parent="FVq77bd8pG-vbMbwd8tE-3" vertex="1">
          <mxGeometry x="55" y="180" width="10" height="40" as="geometry" />
        </mxCell>
        <mxCell id="abb7bGbqJ6jjYDXrOOQk-3" value="" style="edgeStyle=orthogonalEdgeStyle;html=1;align=left;spacingLeft=2;endArrow=block;rounded=0;entryX=1;entryY=0;exitX=1.038;exitY=0.068;exitDx=0;exitDy=0;exitPerimeter=0;" parent="FVq77bd8pG-vbMbwd8tE-3" source="FVq77bd8pG-vbMbwd8tE-4" target="abb7bGbqJ6jjYDXrOOQk-2" edge="1">
          <mxGeometry relative="1" as="geometry">
            <mxPoint x="60" y="160" as="sourcePoint" />
            <Array as="points">
              <mxPoint x="55" y="160" />
              <mxPoint x="90" y="160" />
              <mxPoint x="90" y="180" />
            </Array>
          </mxGeometry>
        </mxCell>
        <mxCell id="abb7bGbqJ6jjYDXrOOQk-5" value="" style="edgeStyle=orthogonalEdgeStyle;html=1;align=left;spacingLeft=2;endArrow=block;rounded=0;exitX=1.038;exitY=0.068;exitDx=0;exitDy=0;exitPerimeter=0;dashed=1;entryX=1;entryY=0.561;entryDx=0;entryDy=0;entryPerimeter=0;" parent="FVq77bd8pG-vbMbwd8tE-3" target="FVq77bd8pG-vbMbwd8tE-4" edge="1">
          <mxGeometry relative="1" as="geometry">
            <mxPoint x="55.000000000000114" y="230" as="sourcePoint" />
            <Array as="points">
              <mxPoint x="55" y="231" />
              <mxPoint x="90" y="231" />
              <mxPoint x="90" y="251" />
            </Array>
            <mxPoint x="65" y="251" as="targetPoint" />
          </mxGeometry>
        </mxCell>
        <mxCell id="abb7bGbqJ6jjYDXrOOQk-6" value="" style="html=1;points=[];perimeter=orthogonalPerimeter;" parent="FVq77bd8pG-vbMbwd8tE-3" vertex="1">
          <mxGeometry x="55" y="289" width="10" height="40" as="geometry" />
        </mxCell>
        <mxCell id="abb7bGbqJ6jjYDXrOOQk-7" value="" style="edgeStyle=orthogonalEdgeStyle;html=1;align=left;spacingLeft=2;endArrow=block;rounded=0;entryX=1;entryY=0;" parent="FVq77bd8pG-vbMbwd8tE-3" source="FVq77bd8pG-vbMbwd8tE-4" target="abb7bGbqJ6jjYDXrOOQk-6" edge="1">
          <mxGeometry relative="1" as="geometry">
            <mxPoint x="60" y="260" as="sourcePoint" />
            <Array as="points">
              <mxPoint x="90" y="270" />
              <mxPoint x="90" y="289" />
            </Array>
          </mxGeometry>
        </mxCell>
        <mxCell id="4f2t__4gUSH8aAKL0DCI-4" value="" style="html=1;verticalAlign=bottom;endArrow=open;dashed=1;endSize=8;rounded=0;curved=1;entryX=0.873;entryY=0.987;entryDx=0;entryDy=0;entryPerimeter=0;" parent="FVq77bd8pG-vbMbwd8tE-3" target="FVq77bd8pG-vbMbwd8tE-12" edge="1">
          <mxGeometry relative="1" as="geometry">
            <mxPoint x="45" y="288" as="sourcePoint" />
            <mxPoint x="-130" y="288" as="targetPoint" />
          </mxGeometry>
        </mxCell>
        <mxCell id="FVq77bd8pG-vbMbwd8tE-9" value="技术支持前端" style="shape=umlLifeline;perimeter=lifelinePerimeter;whiteSpace=wrap;html=1;container=1;collapsible=0;recursiveResize=0;outlineConnect=0;" parent="UYtifntdZZfWKfdKlsUH-1" vertex="1">
          <mxGeometry x="20" y="880" width="100" height="360" as="geometry" />
        </mxCell>
        <mxCell id="FVq77bd8pG-vbMbwd8tE-10" value="" style="html=1;points=[];perimeter=orthogonalPerimeter;" parent="FVq77bd8pG-vbMbwd8tE-9" vertex="1">
          <mxGeometry x="45" y="80" width="10" height="160" as="geometry" />
        </mxCell>
        <mxCell id="FVq77bd8pG-vbMbwd8tE-11" value="现任案件聚合" style="shape=umlLifeline;perimeter=lifelinePerimeter;whiteSpace=wrap;html=1;container=1;collapsible=0;recursiveResize=0;outlineConnect=0;" parent="UYtifntdZZfWKfdKlsUH-1" vertex="1">
          <mxGeometry x="410" y="880" width="100" height="360" as="geometry" />
        </mxCell>
        <mxCell id="FVq77bd8pG-vbMbwd8tE-12" value="" style="html=1;points=[];perimeter=orthogonalPerimeter;" parent="FVq77bd8pG-vbMbwd8tE-11" vertex="1">
          <mxGeometry x="45" y="140" width="10" height="150" as="geometry" />
        </mxCell>
        <mxCell id="FVq77bd8pG-vbMbwd8tE-13" value="2.接收现任案件审核请求" style="html=1;verticalAlign=bottom;endArrow=block;rounded=0;exitX=0.964;exitY=0.265;exitDx=0;exitDy=0;exitPerimeter=0;" parent="FVq77bd8pG-vbMbwd8tE-11" source="FVq77bd8pG-vbMbwd8tE-1" edge="1">
          <mxGeometry width="80" relative="1" as="geometry">
            <mxPoint x="-130" y="140" as="sourcePoint" />
            <mxPoint x="45" y="140" as="targetPoint" />
          </mxGeometry>
        </mxCell>
        <mxCell id="4f2t__4gUSH8aAKL0DCI-5" value="" style="html=1;verticalAlign=bottom;endArrow=open;dashed=1;endSize=8;rounded=0;curved=1;" parent="FVq77bd8pG-vbMbwd8tE-11" target="FVq77bd8pG-vbMbwd8tE-0" edge="1">
          <mxGeometry relative="1" as="geometry">
            <mxPoint x="44" y="250" as="sourcePoint" />
            <mxPoint x="-36" y="250" as="targetPoint" />
          </mxGeometry>
        </mxCell>
        <mxCell id="FVq77bd8pG-vbMbwd8tE-14" value="3.1审核通过 案件状态改为已完结" style="text;html=1;align=center;verticalAlign=middle;resizable=0;points=[];autosize=1;strokeColor=none;fillColor=none;" parent="UYtifntdZZfWKfdKlsUH-1" vertex="1">
          <mxGeometry x="690" y="1149" width="190" height="20" as="geometry" />
        </mxCell>
        <mxCell id="ycpbWLEgJ9y47tiUJFu6-6" value="1.是否案件信息保存" style="shape=note;size=20;whiteSpace=wrap;html=1;fillColor=#ffff88;strokeColor=#36393d;" parent="UYtifntdZZfWKfdKlsUH-1" vertex="1">
          <mxGeometry x="740" y="250" width="160" height="20" as="geometry" />
        </mxCell>
        <mxCell id="qrNuL_mDb8c96E_C3Fmu-0" style="edgeStyle=none;rounded=0;orthogonalLoop=1;jettySize=auto;html=1;dashed=1;endArrow=none;endFill=0;" parent="UYtifntdZZfWKfdKlsUH-1" edge="1">
          <mxGeometry relative="1" as="geometry">
            <mxPoint x="790" y="330" as="targetPoint" />
            <mxPoint x="810" y="270" as="sourcePoint" />
          </mxGeometry>
        </mxCell>
        <mxCell id="PiT7Ze1ScCphHKWzAmui-0" value="alt" style="shape=umlFrame;whiteSpace=wrap;html=1;" parent="UYtifntdZZfWKfdKlsUH-1" vertex="1">
          <mxGeometry x="650" y="220" width="420" height="280" as="geometry" />
        </mxCell>
        <mxCell id="abb7bGbqJ6jjYDXrOOQk-0" value="现任案件创建行为" style="shape=umlFrame;whiteSpace=wrap;html=1;" parent="UYtifntdZZfWKfdKlsUH-1" vertex="1">
          <mxGeometry x="20" y="30" width="1080" height="570" as="geometry" />
        </mxCell>
        <mxCell id="abb7bGbqJ6jjYDXrOOQk-1" value="现任案件审核行为" style="shape=umlFrame;whiteSpace=wrap;html=1;" parent="UYtifntdZZfWKfdKlsUH-1" vertex="1">
          <mxGeometry x="10" y="740" width="1080" height="570" as="geometry" />
        </mxCell>
        <mxCell id="abb7bGbqJ6jjYDXrOOQk-4" value="3.1 是否待审核状态" style="text;html=1;align=center;verticalAlign=middle;resizable=0;points=[];autosize=1;strokeColor=none;fillColor=none;" parent="UYtifntdZZfWKfdKlsUH-1" vertex="1">
          <mxGeometry x="680" y="1040" width="120" height="20" as="geometry" />
        </mxCell>
        <mxCell id="abb7bGbqJ6jjYDXrOOQk-10" value="1.案件状态" style="shape=note;size=20;whiteSpace=wrap;html=1;fillColor=#ffff88;strokeColor=#36393d;" parent="UYtifntdZZfWKfdKlsUH-1" vertex="1">
          <mxGeometry x="750" y="990" width="130" height="30" as="geometry" />
        </mxCell>
        <mxCell id="wBBe9R0Oam9XeWflDIDZ-0" style="edgeStyle=none;rounded=0;orthogonalLoop=1;jettySize=auto;html=1;dashed=1;endArrow=none;endFill=0;entryX=0.995;entryY=0.508;entryDx=0;entryDy=0;entryPerimeter=0;" parent="UYtifntdZZfWKfdKlsUH-1" edge="1">
          <mxGeometry relative="1" as="geometry">
            <mxPoint x="729.2000000000004" y="1036.5499999999997" as="targetPoint" />
            <mxPoint x="790.0000000000006" y="1020.0001083032489" as="sourcePoint" />
          </mxGeometry>
        </mxCell>
      </root>
    </mxGraphModel>
  </diagram>
</mxfile>
